<svg version="1.2" xmlns="http://www.w3.org/2000/svg" width="1024" height="1024"><style>.s0{fill:#f5f6f6}.s1{fill:#30383c}</style><g id="Background"><path id="Path 1" class="s0" d="M1 974.2c-1 .9-1.3 3.5-1.2 10L0 993c5.5 0 5.5 0 6.3-8.7.5-6.6.4-9.1-.5-10.1-.7-.7-1.8-1.3-2.3-1.2-.6 0-1.7.5-2.5 1.2zm495.5-775.5c-2.8.1-10.6.8-17.5 1.4-6.9.6-17.4 1.9-23.5 3-6.1 1.1-15.1 2.9-20 4s-14.2 3.7-20.5 5.6c-6.3 1.9-17.6 5.9-25 8.9-7.4 3.1-19.8 8.8-27.5 12.8-7.7 4-17.5 9.5-21.8 12.2-4.3 2.7-12.9 8.5-19 12.8-6.2 4.4-14.6 10.7-18.7 14-4.1 3.3-14 12.6-22 20.6-8 8-18.9 19.9-24.1 26.5-5.3 6.6-12.9 16.7-16.9 22.5-4 5.8-10.4 15.9-14.2 22.5-3.9 6.6-9 16.3-11.5 21.5-2.5 5.2-6.4 14.4-8.8 20.5-2.4 6-6.1 17.3-8.3 25-2.2 7.7-5 18.3-6.1 23.5-1.1 5.2-2.9 15.8-4.1 23.5-1.1 7.7-2.3 22.3-2.7 32.5-.4 11.8-.2 23.8.6 33 .7 8 2.3 20.8 3.6 28.5 1.3 7.7 3.5 18.7 5 24.5 1.5 5.8 4.2 15.4 6.2 21.5 1.9 6 5.3 15.5 7.5 21s5.8 13.8 8 18.5c2.2 4.7 6.2 12.5 9 17.5 2.8 4.9 8.7 14.4 13.1 21s11.4 16.3 15.5 21.5c4.1 5.2 14.5 16.5 23.1 25 8.6 8.5 19.4 18.6 24.1 22.3 4.7 3.8 15.7 11.7 24.5 17.6 8.8 5.8 22.7 14.1 31 18.3 8.2 4.2 19.3 9.4 24.5 11.6 5.2 2.2 16 6.3 24 9s20.4 6.3 27.5 8c7.1 1.7 17.1 3.8 22 4.7 4.9.9 14.6 2.2 21.5 3 7.5.9 21.5 1.5 35 1.5 13.6 0 27.6-.6 35.5-1.5 7.1-.8 18.9-2.7 26-4.1 7.1-1.3 18-3.8 24-5.3 6-1.6 17.5-5.2 25.5-8.1 8-2.9 22.1-8.9 31.5-13.4 9.4-4.5 22.6-11.8 29.5-16.1 6.9-4.4 17.2-11.5 23-15.9 5.8-4.3 15.2-12.1 21-17.2 5.8-5.1 13.2-12.1 16.6-15.6 3.4-3.4 9-9.7 12.5-13.8 3.6-4.1 9.6-11.8 13.5-17 3.8-5.2 9.5-13.3 12.6-18 3.1-4.7 8.8-14.4 12.7-21.5 3.9-7.2 9.3-18.2 12-24.5 2.7-6.3 6.5-16.2 8.6-22 2-5.8 5.2-16.6 7.1-24 1.9-7.4 4.5-20 5.9-28 1.3-8 2.9-19.2 3.6-25 .7-6.7 1-19.2.6-34.5-.3-17-1.1-27.9-2.6-37.5-1.1-7.4-4.1-21.4-6.5-31-2.4-9.6-6.3-22.9-8.6-29.5-2.3-6.6-7.7-19.2-11.9-28s-10.3-20.5-13.6-26c-3.2-5.5-7.8-12.9-10.3-16.5-2.5-3.6-7.5-10.6-11.1-15.5-3.5-5-10.2-13.3-14.7-18.5-4.4-5.2-14.2-15.4-21.5-22.5-7.4-7.2-16.6-15.5-20.4-18.6-3.9-3.2-12.2-9.4-18.5-13.9-6.3-4.5-16.3-11.1-22.3-14.6-5.9-3.5-14.6-8.4-19.5-10.8-4.8-2.4-12.5-5.9-17.2-7.9-4.7-1.9-13.5-5.3-19.5-7.5s-16.2-5.4-22.5-7c-6.3-1.7-16.2-3.9-22-5.1-5.8-1.1-13.9-2.5-18-3-4.1-.6-13.6-1.5-21-2.1-7.4-.5-16.9-.9-21-.8-4.1.1-9.8.3-12.5.5zm-472.8 789c-1.3 2.1-3.4 5.7-4.6 8-1.1 2.4-2.8 4.3-3.6 4.3-.8 0-1.7.8-1.9 1.7-.2 1-.2 2.8 0 4 .2 1.3 1 2.3 1.6 2.3.7-.1 2.2.9 3.3 2.1 1.6 1.7 2.9 2 7.1 1.8 4-.3 5.7-1 7.5-2.9 1.3-1.4 3-3.9 3.8-5.5 1-2.2 1-3.8.3-6-.6-1.7-.6-3.7-.2-4.5.6-1 .1-2.3-1.6-4l-2.4-2.5-5 5.5c3.2 2.7 4.1 4.2 4.1 5 0 .8-.8 2.3-1.8 3.2-1 1-3 1.8-4.5 1.8-1.6 0-3-.6-3.3-1.5-.3-.8.9-4.2 2.5-7.5s3-6.7 3-7.5c0-.8-.4-1.5-1-1.5-.5 0-2 1.7-3.3 3.7z"/><path id="Path 2" fill-rule="evenodd" class="s1" d="M523.3 227.6c3.4.3 6.5.9 6.9 1.3.3.3-.1 7.4-.9 15.6-1.4 13.6-1.4 15.3 0 18.5.9 1.9 2.8 4.1 4.2 4.8 1.4.6 4.1 1.2 6 1.2 2.2 0 4.5-.8 6.1-2.2 2.3-2.1 2.8-3.8 5-18.3 1.3-8.8 2.5-16.1 2.6-16.2.2-.2 3.1.1 6.6.5 5.8.6 6.2.9 6.2 3.2 0 1.4-.7 7.7-1.5 14s-2 13.8-2.7 16.5c-.9 3.7-2.4 6.2-5.7 9.7-3.6 3.6-6 5-10.6 6.3-3.9 1.1-7.5 1.5-10.2 1.1-2.4-.3-6.5-1.7-9.3-3.1-2.7-1.4-6.1-4-7.4-5.7-1.3-1.8-3-5.3-3.7-7.8-1-3.7-1-7.4 0-20 .7-8.5 1.5-16.5 1.7-17.8.5-2.2.8-2.3 6.7-1.6zm-54 3.5c.4 0 .9.5 1.2 1.2.2.6 2 12 3.9 25.2s3.4 24.1 3.3 24.2c-.1.1-3.1.7-6.7 1.3-3.6.6-6.6 1-6.7.8-.2-.2-1.9-11.1-3.8-24.3-1.9-13.2-3.5-24.6-3.5-25.2 0-.8 2.3-1.6 5.8-2.2 3.1-.5 6-.9 6.5-1zm138 14c.4-.1 3.1.8 11.2 4l.8 7.2c.4 4 1.2 17.3 1.7 29.7.6 12.4.9 22.6.8 22.7-.2.2-3-.6-6.3-1.7-3.3-1-6.5-2.5-7.2-3.2-.6-.7-1.3-3-1.8-8.9L584 285l-2.2 2.8c-1.3 1.5-2.7 3.1-3.3 3.4-.5.4-4.3-.5-15.5-4.7l21.7-20.7c12-11.4 22.1-20.7 22.6-20.7zM412 247.7c2.5.3 6.3 1.3 8.5 2.2 2.2.9 4.3 2.1 4.7 2.6.4.6-1.5 3.3-4.2 6-4.6 4.7-5.1 4.9-7.5 3.8-1.4-.7-4-1.3-5.7-1.3-1.8 0-4.8.9-6.5 2-1.8 1.1-4.2 3.5-5.3 5.3-1.2 1.9-2 5-2 7.7s.8 5.8 2 7.8c1.1 1.7 3.2 4 4.8 4.9 1.5 1 4.5 1.7 6.7 1.7s5.6-.9 7.5-2c1.9-1.1 4.2-3.2 5-4.6.8-1.5 1.3-2.9 1-3.3-.3-.3-3.2.1-6.5.9s-6 1.4-6.1 1.3c-.1-.1-.6-2.4-1.3-5.2-.6-2.7-1-5.1-.9-5.2.2-.1 5.4-2 11.6-4.2 6.1-2.3 11.8-4.1 12.5-4.1.6 0 2.1 2.6 3.2 5.7 1.1 3.2 2 8.1 2 10.8 0 3.6-.8 6.3-2.8 9.8-1.5 2.6-4.8 6.2-7.4 8.1-2.7 1.9-6.8 4.1-9.3 4.8-2.5.7-7 1.2-10 1.1-3.1 0-7.5-.9-10-2s-6-3.3-7.9-4.9c-1.9-1.6-4.7-5.6-6.3-8.9-2-4.2-2.8-7.6-2.8-11.2 0-2.9.9-7.7 2-10.5 1.1-2.9 3.3-6.9 4.8-8.8 1.6-1.9 5.1-4.7 7.8-6.2s6.9-3.2 9.4-3.7 6.5-.7 9-.4zM672.2 276c.4 0 8.1 6.7 17.1 14.8 8.9 8.2 16.8 15.6 17.5 16.5 1 1.5.5 2.3-3.5 6.2-2.7 2.4-5.2 4.4-5.8 4.5-.5 0-3.7-2.7-13-12L658 336l-4.1-3.2c-2.3-1.8-5-4-6-4.8-1.8-1.4-1.3-2.1 9.8-13.9 6.5-6.8 12.6-13.5 13.6-14.8.9-1.3 1.6-2.4 1.5-2.6-.2-.1-2.8-2.6-11.3-10.6l5-5c2.7-2.8 5.3-5.1 5.7-5.1zm-345.7 14.9l5.5 5.8c3 3.3 9.8 10.8 15 16.7 5.2 6 10.7 12.3 15 17.6l-4.7 4.3c-2.6 2.3-5.2 4.2-5.8 4.2-.6 0-8.8-8.6-35.4-38zm-27 36.5c4.7.2 8.3 1 11 2.4 2.2 1.1 5.3 3.3 6.9 4.9 1.6 1.5 4 5.1 5.2 7.8 1.6 3.5 2.3 6.9 2.4 11 0 4.6-.7 7.5-2.9 12-1.6 3.3-6.2 9.8-10.3 14.5-4 4.7-7.8 8.8-8.4 9.2-.5.3-4.8-2.8-9.4-6.9-4.7-4.2-12.3-11-17-15.2-4.6-4.2-9.4-8.4-10.7-9.3-1.3-1-2.3-2.4-2.3-3 0-.7 3.1-4.6 6.8-8.7 3.6-4.1 8.9-9.8 11.7-12.6 2.7-2.9 6.1-5.5 7.5-5.8 1.3-.3 5.6-.4 9.5-.3zm428.8.6l9.1 9.8c5 5.3 11.4 12.1 19.1 20.4L747 367l-9.3-9.5c-5.1-5.3-9.6-9.5-10-9.5-.4 0-1.4 1-2.1 2.3-1.3 2.1-1 2.7 11.4 16.7l-8.3 8.5-7.6-7.8c-7.4-7.5-7.7-7.7-9.5-6-1.8 1.8-1.7 1.9 2 6.3 2 2.5 5.8 6.7 12.9 14.2l-5 4.4c-2.8 2.4-5.3 4.4-5.5 4.5-.3 0-4.6-4.4-9.5-9.8-5-5.4-10.7-11.7-12.8-14-2.1-2.4-3.7-4.6-3.8-5 0-.5 5.5-5.5 12.3-11.3 6.7-5.8 15.3-13.3 19.1-16.7zm-289.9 1.9h140.1l2 2.1c1.9 2.1 2 3.4 1.8 25.8-.1 13-.5 24-1 24.3-.4.4-2.5.9-8.3 1.3v10.5h8c4.4 0 8 .2 8 .3 0 .1.9 7 2 15.2 1.1 8.3 2 15.4 2 15.8 0 .4 3.7.7 8.3.7q8.2 0 9.5 1.2c.7.8 2.3 6.3 3.7 12.3 1.3 6.1 3.2 14.5 6 26.6h5.8c4.6-.1 6.2.4 8 2.2 1.5 1.5 3.7 7.3 11.2 32.8h10.3c9.2-.1 10.5.2 12.7 2.2 2 1.8 3.7 6.5 8.5 24.7 3.4 12.4 6.3 23.3 6.6 24.3.4 1.5 1.7 1.7 9.4 1.7s9.3.3 11 2c1.1 1.1 2.3 3.3 2.6 4.8.3 1.5 2 8.5 6.9 28.3l6-.1c3.3 0 7.5.4 9.3.8 2.7.6 3.6 1.5 4.8 4.7.8 2.2 3.5 11 5.9 19.5 2.5 8.6 5.3 18.6 8 29l4 .1c4 0 4.1-.1 6.8-6.3 1.5-3.4 4.4-11 6.6-16.8 2.1-5.7 5.1-14.7 6.7-19.9 1.7-5.3 3.8-10.2 5.1-11.3 1.7-1.6 3.1-1.9 7.5-1.5 4.5.5 5.8 1.1 8.2 3.9 2.7 3 2.9 3.8 2.3 8.3-.4 2.8-2.9 11.6-5.6 19.5-2.6 8-6.9 19.3-9.5 25-2.6 5.8-8.3 16.8-12.7 24.5-4.3 7.7-12.3 19.9-17.6 27-5.3 7.2-15.8 19.3-23.2 26.9-7.5 7.7-18.5 18.2-24.6 23.4-6 5.2-13.7 11.3-17 13.6-3.3 2.3-10.8 7.2-16.7 10.9-5.9 3.7-16.1 9.4-22.5 12.7-6.5 3.2-15.4 7.3-19.8 9-4.4 1.8-12.2 4.8-17.5 6.7-5.2 1.9-15.8 5-23.5 6.9-7.7 1.9-16.4 3.9-19.5 4.5-3 .5-10.2 1.7-16 2.5-5.7.9-20.1 1.8-32 2.1-13 .4-26.4.1-34-.6-6.8-.6-17.6-2-24-3.1-6.3-1.2-17.5-3.6-25-5.5-7.4-1.8-18.2-5-24-7-5.7-2-14.7-5.4-20-7.6-5.2-2.2-15-6.9-21.7-10.4-6.8-3.6-16-8.8-20.5-11.6-4.6-2.8-12.8-8.3-18.3-12.2-5.5-3.9-13.6-10.2-18-14-4.4-3.9-11.5-10.4-15.8-14.6-4.3-4.1-11.3-11.6-15.6-16.6-4.2-4.9-10.4-12.6-13.7-17-3.4-4.4-8.2-11.3-10.9-15.5-2.6-4.1-8.1-13.8-12.1-21.5-4-7.7-9.3-19.1-11.9-25.5-2.5-6.3-5.9-16-7.5-21.5-1.7-5.5-3-11.2-3-12.7s.7-4.1 1.5-5.8c.9-1.6 2.7-3.4 4-4 1.4-.5 4.3-1 6.5-1 2.8 0 4.7.7 6.4 2.3 1.4 1.4 3.5 6.3 5.6 12.7 1.8 5.8 6 17.4 15.5 41.1l8-.1 7-24.7c3.9-13.6 7.7-25.6 8.5-26.5 1.2-1.4 3.6-2 18.5-3l4-15.6c2.4-9.4 4.7-16.4 5.7-17.4 1.5-1.4 3.6-1.8 19.3-1.7l3.4-11.3c1.8-6.2 5.1-17.1 7.3-24.3 2.1-7.1 4.7-13.8 5.6-14.7 1.4-1.5 3.4-1.8 22.2-1.8l2.1-7.2c1.2-4 3.3-11.1 4.7-15.8 1.7-5.5 3.5-9.3 5.1-10.9 2.4-2.2 3.2-2.3 8.4-1.7 5 .6 5.8.4 6.2-1.1.3-1 2.1-9.2 4-18.3 2-9 4-17.5 4.5-18.7 1-2.1 1.7-2.3 19-2.3l.5-3.2c.2-1.8.8-9 2-28.8H443l.1-9.5-8.6-2-.9-47.8zm-196.5 128h30.2l2 2.8q2 2.7 2 7.2c0 3.4-.7 5.2-5 10h-29l-3-3c-2.4-2.4-3-3.8-3-7.1.1-3 .8-4.8 3-7zm515.8 0c8.6 0 14.2.5 15.9 1.3 1.5.7 3.3 2.5 4 4 .8 1.5 1.4 3.7 1.4 5 0 1.2-.9 3.7-2 5.5-1.1 1.8-3 3.4-4.2 3.7-1.3.2-7.7.7-14.3.9-10.8.5-12.3.4-14.7-1.4-1.6-1.1-3.3-3.4-3.8-5.2-.6-1.8-.8-4.6-.4-6.3.4-1.6 1.6-4 2.7-5.2 1.9-2.1 2.8-2.3 15.4-2.3zm31.3 31.3c4.1-.1 8.9.2 10.5.7 2.1.7 3.5 2.1 4.7 4.7.9 2.1 1.4 5 1.2 6.3-.2 1.4-1.6 3.7-3 5-2.3 2.3-3.5 2.6-11.7 2.9-5.1.1-10.2 0-11.4-.3-1.3-.3-3.2-2-4.3-3.8-1.1-1.8-2-4.4-2-5.8 0-1.3.9-3.9 2.1-5.6 1.1-1.8 3-3.4 4.2-3.6 1.2-.2 5.6-.4 9.7-.5zm-551 .7l2.1 3.3c1.4 2.3 1.9 4.2 1.5 6.7-.3 2-1.4 4.7-2.4 6-1.8 2.4-2.5 2.5-12.3 2.8-7.3.2-11-.2-12.4-1.1-1.1-.7-2.6-2.6-3.3-4.2-.8-1.7-1.1-4.1-.9-5.5.3-1.3 1.5-3.7 2.7-5.2 2.1-2.7 2.3-2.8 25-2.8zm-2 35.1c15.8-.1 17.8.1 20.8 1.9 2.4 1.5 3.4 3 3.8 5.8.4 2.5.1 4.8-1 7-.9 1.8-2.7 3.7-4.1 4.2-1.4.6-10.6 1-20.5 1-10 0-18.9-.4-20-1-1.1-.5-2.7-2.3-3.5-4-.8-1.6-1.5-3.9-1.5-5s.6-3.2 1.3-4.6c.6-1.5 2.6-3.3 4.2-4 2.1-.9 8.4-1.3 20.5-1.3zm564 .4l2.7 2.8c2.2 2.2 2.8 3.6 2.6 6.5-.1 2.1-.9 4.7-1.8 6-.8 1.2-2.6 2.7-4 3.2-1.4.6-12 1-45.5 1l-2.5-2.7c-1.4-1.5-2.6-3.2-2.6-3.8 0-.5-.2-1.8-.4-2.9-.2-1.1.3-3.4 1.2-5.3.9-1.8 2.6-3.7 3.7-4.2 1.2-.6 11.9-.9 46.6-.6z"/><path id="Path 3" fill-rule="evenodd" class="s0" d="M605.2 267c.4 0 .9 2.8 1.1 6.3.2 3.4.4 6.3.3 6.5-.1.1-2.4-.7-5.1-2-2.8-1.2-5.2-2.4-5.5-2.5-.3-.2 1.5-2.1 4-4.2 2.5-2.2 4.8-4 5.2-4.1zm-307 75c1 0 3 .6 4.5 1.4 1.6.8 3.8 2.5 5.1 3.8 1.2 1.2 2.5 4.1 2.8 6.3.5 3.4.1 4.7-2.8 8.9-1.8 2.7-4.1 5.3-5.1 5.7-1.3.7-3.5-.8-19.2-15.9l3-3.8c1.7-2.1 4.6-4.4 6.5-5.1 1.9-.7 4.3-1.2 5.2-1.3zm156.8 9h106v13H455zm-2 32h109v11H453zm37.5 31.5l.5 16.5h-11.5c-11.2 0-11.5-.1-11.8-2.3-.2-2.1-.6-2.2-20.7-2.7l-.2-5.3c-.1-3 .3-5.7.7-6.1.5-.3 10.4-.5 43-.1zm35.5-.5h42.5l.7 3.7c.4 2.1.8 4.8.8 6 0 2.2-.3 2.3-10.8 2.5-10.3.3-10.7.4-11 2.5-.2 2.2-.5 2.3-22.2 2.3zm-18 29c39.2 0 42 .1 42.5 1.7.2 1 5.6 33.1 12 71.3 6.4 38.2 14.5 86.8 18.1 108 3.5 21.2 6.7 38.8 6.9 39.3.3.4 35.6.7 156.5.7l-4 5.8c-2.2 3.1-7.8 10.7-12.5 16.7s-12.7 15.5-17.8 20.9c-5.1 5.5-14.2 14.2-20.2 19.4-6.1 5.2-14.6 11.9-19 15-4.4 3.1-11.4 7.7-15.5 10.2-4.1 2.6-11.3 6.7-16 9.2-4.7 2.6-14.4 7.1-21.5 10.1-7.2 3-17.3 6.9-22.5 8.5-5.2 1.7-16.7 4.6-25.5 6.5-8.8 2-20.1 4.1-25 4.9-5.8.8-18.4 1.3-35 1.3-18.8-.1-29-.5-37-1.7-6.1-.9-17.1-3.1-24.5-4.8-7.4-1.7-17.1-4.2-21.5-5.5-4.4-1.4-13.6-4.7-20.5-7.3-6.9-2.7-17-7.2-22.5-9.9-5.5-2.8-14.1-7.4-19-10.3-5-2.9-13.7-8.7-19.5-12.8-5.8-4.2-14.1-10.6-18.5-14.3-4.4-3.7-13-11.8-19-18.1-6.1-6.2-14.9-16.3-19.6-22.3-4.7-6-9.9-13.1-11.7-15.7-1.8-2.7-3.2-5-3.2-5.3 0-.3 34.9-.5 77.5-.5 76.5 0 77.5 0 78.5-2 .5-1.1 1.9-7.7 3-14.7 1.2-7.1 6.1-37.1 11-66.8 4.9-29.7 11.9-72.2 15.5-94.5 3.6-22.3 6.8-41.1 7-41.7.4-1 9.8-1.3 42.5-1.3zm-83.7 1.9l17.9.6-.6 4.5c-.4 2.5-1.1 7.3-2.6 17h-10c-7.5 0-9.9-.3-9.6-1.2.2-.7 1.4-5.7 2.6-11.1zm156 .2c3.4.1 7.6.4 9.2.8 2.9.6 3.1 1.1 5.2 9.6 1.3 5 2.3 9.6 2.3 10.3 0 .9-2.4 1.2-19.4.7l-1.7-9.5c-1-5.2-1.8-10-1.8-10.7-.1-.9 1.8-1.2 6.2-1.2zM435 487l-.6 3.8c-.3 2-1 5.4-2.4 11.2h-39l1.6-6.2c.9-3.5 1.8-6.8 2-7.5.3-1 5.1-1.3 38.4-1.3zm184 0l1.5 6.5c.9 3.6 1.5 7 1.5 7.5 0 .6-7 1-38 1l-1-5.7c-.6-3.2-1.3-6.6-1.6-7.5-.5-1.7.8-1.8 37.6-1.8zm-190 33l-.6 3.8c-.3 2-.9 5.3-2 10.7l-33.2.3c-18.2.1-33.1-.2-33.1-.6.1-.5.8-3.3 1.6-6.3.8-2.9 1.6-5.9 1.9-6.6.3-1 7.8-1.3 65.4-1.3zm223 0l2 7c1.1 3.9 2 7.2 2 7.5 0 .3-14.8.5-66 .5l-1-5.7c-.6-3.2-1.3-6.6-1.6-7.5-.5-1.7 1.5-1.8 64.6-1.8zm-296.7 25.9l34.4.2c34.4.2 34.4.2 34.4 2.3 0 1.2-.6 4.7-2.6 13.5l-9.8.3c-8.5.3-10 .6-11.3 2.3-.8 1.1-1.4 3.5-1.4 5.3 0 2.2.7 3.7 2.3 4.7 1.5 1.1 4.8 1.5 10.5 1.5 6.1 0 8.1.3 7.8 1.3-.2.7-.8 4-2.1 13.6l-6 .4c-3.3.2-24.1.5-46.2.5-31.7.2-40.3-.1-40.2-1 0-.7.7-4 1.5-7.3s1.7-6.2 2-6.5c.3-.3 12.3-.6 52.4-1l1.5-3c.9-1.6 1.5-3.8 1.6-4.7 0-1-.9-2.9-1.9-4.3-2-2.5-2.1-2.5-31.2-2l.6-2.7c.3-1.5 1.3-5.2 2.1-8.1zm236.5.1h68.8l1.7 7.3c1 4 1.8 7.6 1.8 8 0 .4-6.4.7-14.3.7-12.2-.1-14.4.2-15.7 1.6-.9 1-1.5 3.4-1.5 5.4 0 2.1.6 4.5 1.5 5.4 1.3 1.5 4.2 1.7 52.5 1.6l1.7 6.5c1 3.6 1.8 7.2 1.8 8 0 1.3-5.6 1.5-44.9 1.3-24.7-.2-45.2-.5-45.5-.8-.3-.3-1.1-3.7-3.1-14.9h8c4.9 0 8.7-.5 9.7-1.3 1-.7 2-2.6 2.3-4.3.5-2.1.1-3.7-1.4-5.7-2.1-2.7-2.4-2.8-20.6-2.7l-.8-5.3c-.5-2.9-1.1-6.5-1.5-8zm-176.6 62l-.5 2.2c-.3 1.3-1.6 8.8-3 16.8-1.4 7.9-2.5 14.8-2.5 15.2 0 .4-8.8.8-39 .8l.4-2.3c.2-1.2 1-5.1 1.7-8.5 1.2-5.5 1.2-6.5-.1-7.3-.9-.5-5.5-.9-10.3-.9-4.8 0-9.4.3-10.3.7-.8.4-1.9 2.1-2.4 3.8-.5 1.6-1.4 5.6-3 14.5h-20v-6.3c0-4.5-.4-6.8-1.8-8.5-.9-1.2-3.1-2.5-4.7-2.8-2.2-.4-3.7 0-5.5 1.4-2.3 1.8-2.5 2.6-2 16.2h-9.5c-7 0-9.5-.4-9.5-1.3 0-.7 1.8-8.2 4.1-16.7 2.2-8.6 4.3-15.9 4.5-16.3.3-.4 25.9-.7 113.4-.7zm186.7 0l112.5.5 4.4 16c2.4 8.8 4.3 16.5 4.3 17.2.1.9-2.5 1.3-18.9 1.3l.2-6.6c.2-6.1 0-6.8-2.5-9-1.5-1.3-3.5-2.4-4.5-2.5-1 0-3 .9-4.5 2-2.5 1.9-2.7 2.6-2.7 16.1h-19.5l-1.7-6.8c-.9-3.7-2.1-8-3.8-12.2h-10.5c-9.1 0-10.6.2-11.2 1.7-.4 1-.1 4.7.6 8.3.8 3.5 1.5 7 1.7 7.7.3 1-3.9 1.3-37.6 1.3l-2.5-13.8c-1.3-7.5-2.7-15.4-3.1-17.5z"/><path id="Path 4" class="s1" d="M506.5 458.8c-23.8.2-32.2.6-32.7 1.5-.4.7-.8 2.3-.8 3.7 0 1.4.5 3.1 1.2 3.8 1 .9 9 1.2 34.3 1.2 25.2 0 33.4-.3 34.3-1.3.7-.6 1.2-2.3 1.3-3.7 0-1.4-.6-3-1.3-3.6-.7-.6-2-1.3-2.8-1.5-.8-.2-15.9-.3-33.5-.1zm-35.4 26.8c-.5 1.4-.9 3.2-1 4-.1.8.9 2.1 2.2 2.9 1.9 1.3 7.4 1.5 37 1.3 29.6-.3 34.9-.5 35.7-1.8.5-.8 1-2.6 1-4s-.5-3.1-1.2-3.8c-1-.9-9.5-1.2-37.1-1.2H472zm-1.7 25.3c-1 1-1.7 2.7-1.6 3.7.1 1.1.7 2.5 1.4 3.2 1 1 9.9 1.3 39.3 1.3 29.1-.1 38.4-.4 39.3-1.3.7-.7 1.2-2.3 1.2-3.5 0-1.3-.7-2.9-1.5-3.8-1.3-1.2-7-1.5-38.9-1.5-34.8 0-37.4.2-39.2 1.9zm-3.4 25.3c-.8.7-1.3 2.4-1.2 3.8.1 1.4.7 3.1 1.4 3.8 1 1 10.5 1.3 42.5 1.3 35.2-.1 41.4-.3 42.7-1.6.9-.8 1.6-2.1 1.6-3 0-.8-.5-2.4-1-3.5-1-1.9-2-2-42.8-2-31.1 0-42.2.3-43.2 1.2zm-1.9 27c-1 .4-2.1 2-2.5 3.5-.5 2-.3 3.5.8 5.1l1.6 2.2c87.2-.9 90.6-1 91.7-2.7.7-1 1.3-2.4 1.3-3.3 0-.8-.6-2.2-1.3-3.2-1.1-1.6-4.8-1.8-45.5-2-24.4-.1-45.1.1-46.1.4zm-5.3 30.5c-.7.9-1.3 2.9-1.3 4.3 0 1.5.7 3.5 1.5 4.4 1.4 1.6 5.6 1.7 49.7 1.7l48.3-.1c2.3-3.5 3-5.4 3-6.5 0-1.1-.8-2.7-1.7-3.7-1.7-1.6-5.8-1.7-50-1.7-43.5-.1-48.2.1-49.5 1.6zm-4.4 30.6c-.9 1.2-1.6 3-1.5 4 0 .9.8 2.4 1.6 3.2 1.3 1.3 8.6 1.5 53.7 1.6 48.9 0 52.4-.1 54-1.8 1-1 1.8-2.7 1.8-3.8 0-1.1-.8-2.7-1.7-3.7-1.7-1.6-6-1.7-54-1.7l-52.2-.1zm-3.5 27.8c-1.1 1.1-2 3.1-2 4.5s.9 3.4 2 4.5c2 2 3.4 2 58 2h56c2.4-3.5 3.1-5.6 3.1-7 0-1.4-.8-3.3-1.8-4.2-1.6-1.6-6.1-1.7-57.5-1.8-54.5 0-55.8.1-57.8 2zm-37.5 29.5c-1.6.8-3.8 2.9-4.9 4.7-1.4 2.5-1.7 4.4-1.3 7.8.5 3.3 1.4 5.2 3.7 7.3 2.3 2.1 4 2.7 7.3 2.7 2.3 0 5.2-.6 6.5-1.3 1.2-.6 3.1-2.5 4.2-4.2 1.1-1.6 2-4.5 2-6.2 0-1.8-.9-4.6-2-6.3-1.1-1.6-3.3-3.7-5-4.5-1.6-.8-4-1.5-5.2-1.5-1.3 0-3.6.7-5.3 1.5zm179.8-.8c-1.2.2-3.4 1.8-5 3.4-2.3 2.6-2.8 3.9-2.8 8.6 0 4.9.4 5.8 3.3 8.4 2.5 2.3 4.2 2.9 7.7 2.9s5.2-.6 7.6-2.7c1.7-1.6 3.5-4.1 4-5.8.8-2.2.6-4-.5-7-.8-2.2-2.5-4.7-3.8-5.6-1.2-.9-3.6-1.8-5.3-2.1-1.6-.3-4-.3-5.2-.1zM341 682.9c-1.8.9-4 2.9-4.7 4.5-.8 1.5-1.4 4.1-1.4 5.7 0 1.7.5 4.1 1 5.5.6 1.4 2.5 3.4 4.3 4.5 1.8 1.1 4.7 2 6.5 2 2.3 0 4.3-1 7-3.4 3.4-3.1 3.7-3.9 3.7-8.5 0-4.3-.4-5.5-3-8-1.6-1.6-4.5-3.2-6.5-3.5-2.3-.4-4.6 0-6.9 1.2zm147.4-.7c-1.1.5-2.8 2.3-3.7 3.9-1 1.7-1.8 4.6-1.8 6.5 0 2.6.8 4.3 3 6.5l3 3h37.8c4.1-4.3 5.5-6.6 5.8-8 .3-1.4-.1-4.2-1-6.2-.9-2.3-2.8-4.4-4.6-5.3-2.3-1.2-6.7-1.5-19.7-1.4-9.2 0-17.7.5-18.8 1zm172.5 2.7c-2.4 2.1-3.3 3.8-3.6 7.2-.4 3.4 0 5.3 1.6 7.8 1.1 1.7 3.2 3.7 4.5 4.2 1.4.6 3.7 1 5 1 1.4 0 3.9-.7 5.5-1.5 1.7-.8 3.7-2.8 4.5-4.5.9-1.6 1.5-4.6 1.5-6.5 0-2.7-.8-4.3-3.5-7-2.9-2.9-4.2-3.5-8-3.5-3.4 0-5.1.6-7.5 2.8zm-291.8 39c-2.1 1.1-3.8 3.1-4.7 5.5-1.1 2.8-1.2 4.7-.5 7.7.6 2.2 2 4.7 3.3 5.5 1.9 1.3 19.8 1.5 140.2 1.6 75.9 0 138.7-.2 139.5-.5.9-.3 2.4-2 3.4-3.8 1.1-1.8 1.9-4.9 1.8-6.8 0-1.9-.8-4.5-1.6-5.7-.9-1.3-3.1-3-5.1-3.8-3-1.3-20.6-1.5-138.2-1.5-125.7.1-135 .2-138.1 1.8z"/></g></svg>