<svg xmlns="http://www.w3.org/2000/svg" width="436" height="436"><path fill="#E63714" d="M133.3 95.627l-.694-19.185c-.876-17.164 1.65-21.423-18.999-21.424l-17.859.004c-4.242-.106-7.386-5.282-3.577-8.124l.22-.16c1.548-1.149 3.597-.739 5.42-.741l19.922-.001c12.494.018 22.119 3.457 23.427 18.273.303 3.43.06 6.919.273 10.36l1.384 18.559c.021 1.015-.123 2.09.063 3.05l-.02.256-9.552 1.207-.053-1.707.046-.367z"/><path fill="#FFC990" d="M142.695 93.188c.143 1.015-.001 2.09.185 3.05l-.02.256-9.552 1.207-.053-1.707.046-.367c.187.113.104.045.28.252l.14.166c2.362.022 4.81.053 7.157-.242 2.138-.27 1.768-.557 1.817-2.615z"/><path fill="#DEDDDD" d="M64.839 147.874c.227-1.413.173-3.088.319-4.679 2.497-27.24 26.22-46.246 52.89-47.006l15.207-.133.053 1.679.084 13.734c.052 1.22.326 2.446.414 3.672l.583 24.541c.09 2.463-.15 5.305.36 7.697l-69.91.495z"/><path fill="#DEDDDD" d="M142.88 96.238l15.8-.135c3.807-.01 7.652-.11 11.44.314 26.25 2.939 45.128 25.304 46.753 51.152l-11.94.203-43.973.116c-5.83.002-12.056.403-17.84-.286l-.094-.038-6.903-.074-1.29-.11c-.594-2.393-.354-5.235-.444-7.698l-.583-24.54c-.088-1.227-.362-2.453-.414-3.673l-.042-13.734 9.51-1.21.02-.287z"/><path fill="#E63714" d="M133.35 97.735l9.51-1.21.044 50.883.122.156-6.903-.074-1.29-.11c-.594-2.393-.354-5.235-.444-7.698l-.583-24.54c-.088-1.227-.362-2.453-.414-3.673l-.042-13.734z"/><path fill="#DEDDDD" d="M220.166 162.433c3.124-35.5 23.234-65.72 59.492-73.4 11.958-2.534 26.593-2.623 38.373.637 32.96 9.124 55.815 39.234 55.646 73.38l-148.021-.161c-1.813-.007-3.755.127-5.49-.456z"/><path fill="#E63714" d="M220.166 162.29c1.735.726 3.677.592 5.49.599l148.047.096c.017 3.43-.481 6.78-.866 10.117l-22.661 169.822c-1.227 10.999-5.737 14.243-16.335 18.388-21.304 8.333-54.055 8.219-74.922-.798-15.02-6.49-13.98-11.014-15.965-26.012l-19.946-149.639c-1.052-7.486-2.909-15.005-2.842-22.573zm47.068 79.843c-11.103 2.466-8.837 18.531 2.666 16.967l.077-.008c10.54-3.168 10.022-17.322-2.743-16.959zm11.478 57.274c-10.45 3.025-8.423 16.982 2.727 16.141 10.33-2.68 7.826-16.544-2.727-16.141z"/><path fill="#33C9FD" d="M328.644 298.76c7.123.773 7.767 10.449.798 12.674-8.539.335-6.989-10.476-.798-12.675z"/><path fill="#DEDDDD" d="M263.317 185.085c19.97-2.122 24.706 27.772 3.447 31.867-21.201 1.961-23.92-28.226-3.447-31.867z"/><path fill="#D3FBC6" d="M324.932 193.853c19.616-.357 24.48 29.746 1.232 32.89-22.512.432-22.853-31.033-1.232-32.89zm-.533 48.3c22.978-2.316 29.496 32.838 4.115 37.443-23.438 3.48-29.568-33.159-4.115-37.443z"/><path fill="#FECB01" d="M134.832 147.73l1.291-.268 6.903.102.094-.156c5.784.883 12.01.482 17.84.48l43.972-.014 11.94-.008c.373 4.46.544 9.408.264 14.162l-4.434 50.4L199.55 338.56c-.214 2.672-.183 5.57-.7 8.186-2.783 14.091-35.283 20.088-46.572 20.521l-11.167.028c-12.11 0-22.171-1.137-33.89-4.936-21.163-6.86-21.872-11.075-23.536-30.4l-9.572-89.602-8.504-82.99c-.61-3.485-1.309-7.827-.77-11.336l69.993-.3z"/><path fill="#82882F" d="M136.215 147.462l6.811.102-.134 27c.524 3.485.485 6.908.502 10.424l.111 12.284c.084 4.348.69 8.574.59 12.98-.685 1.081-1.59 1.648-2.784 2.2l-3.998-1.175-.43-14.365-.668-49.45z"/><path fill="#D6B101" d="M143.12 147.408c5.784.883 12.01.482 17.84.48l43.972-.014c-2.327 12.358-20.147 18.016-31.189 18.042-6.751.016-9.15-.173-15.518 2.332l-11.466 4.707c-1.18.445-3.266.343-3.76 1.608l.027-27 .094-.155zm-8.288.322l1.291-.268.727 49.45c-.402-.356-.068-2.538-.295-3.237l-1.942-5.657c-2.408-5.35-7.087-9.538-11.184-13.587-12.726-12.575-22.89-14.85-40.957-14.872l-10.554.028c-1.994.006-4.13.183-6.094-.167l-.236-.046c-.59-3.493-1.288-7.835-.75-11.344l69.994-.3z"/><path fill="#E63714" d="M144.186 210.253l.24-.18c10.561-7.73 26.466 2.662 28.094 14.356l.055.372c2.129 15.402-17.887 39.54-31.104 44.11-13.919-5.432-36.219-31.55-30.185-46.956 4.638-11.843 14.547-15.341 25.95-10.72l.077.042 3.998 1.176c1.195-.553 2.1-1.12 2.875-2.2z"/></svg>