<svg xmlns="http://www.w3.org/2000/svg" viewBox="0 0 436 436"><path fill="#E63814" d="M300 240h42c11 0 23-4 27-16v-2 119c-2 14-14 21-27 21h-41l-1-122zM74 217v1c1 7 4 13 11 17 7 6 12 5 21 5h37l1 122H99c-15 0-25-13-25-28V217z"/><path fill="#DDD" d="M234 240h66v122H144l-1-122h91z"/><path fill="#C1C0C0" d="M183 293h1l4-1v70h-5v-69zm38 0h7c-3 0-2 2-2 3v66h-5v-69z"/><path fill="#2E2D3B" d="M214 240h20v41c0 6 0 11-6 12h-8c-6-1-6-5-6-11v-42z"/><path fill="#DDD" d="M234 240h23v45c0 3 0 5 3 7v70h-34v-66c0-1-1-3 1-3 7-1 7-6 7-12v-41z"/><path fill="#DDD" d="M273 240h27v122h-40v-70c-3-2-3-4-3-7v-45h16z"/><path fill="#C1C0C0" d="m260 292 5 1v69h-5v-70z"/><path fill="#2E2D3B" d="M257 240h16v42c0 7 0 10-8 11l-5-1c-3-2-3-4-3-7v-45z"/><path fill="#DDD" d="M143 240h48v43c0 4 0 7-3 9l-4 1h-1v69h-39l-1-122z"/><path fill="#2E2D3B" d="M174 240h17v43c0 4 0 7-3 9l-4 1h-2c-7 0-8-4-8-9v-44z"/><path fill="#FECA02" d="M74 217c2-23 24-22 26-45 1-9-3-17-4-26-1-6 0-12 1-18 6-44 41-79 85-83 53-5 103 33 108 87l2 16c6 24 27 42 51 45 15 2 28 13 26 29v2c-4 12-16 16-27 16H106c-9 0-14 1-21-5-7-4-10-10-11-17v-1z"/><path fill="#E63814" d="M234 102c3 0 7 4 7 7v62c0 5 0 10-3 14-8 13-35 15-39-2-4-15 17-24 29-21l5 2v-31l-50 10h-3v37l-1 10c-6 15-32 19-39 4-7-17 17-28 32-21l-1-48c0-5 0-10 6-11l57-12z"/></svg>