<svg xmlns="http://www.w3.org/2000/svg" viewBox="0 0 436 436"><path fill="#1FAB49" d="M167 85c-3-7-3-15 0-21 4-10 11-14 21-9 9 4 4 10 0 16l-8 15-13-1z"/><path fill="#E83612" d="m297 234 60 1h8l-20 90-4 14c-4 10-13 18-24 19h-69l3-1c27-6 48-31 56-57 6-23 1-45-10-66zm-226-1 13 2h56c-4 8-8 16-10 24l-1 8c-2 8-1 19 1 28 5 27 29 55 56 63l2 1-18-1h-44c-14 0-24-5-30-18l-5-18-20-89z"/><path fill="#DEDEDD" d="M200 195c12-2 21-2 34-1l12 3c23 6 34 16 48 33l3 4c11 21 16 43 10 66-8 26-29 51-56 57l-3 1-17 1h-13l-13 2-5 1c-3-2-11-3-12-3l-2-1c-27-8-51-36-56-63-2-9-3-20-1-28l1-8c2-8 6-16 10-24l3-5c19-22 30-29 57-35z"/><path fill="#FEFEFE" d="M209 330c4-2 9-5 13-2 0 8-8 4-12 2h-1z"/><path fill="#1FAB49" d="M215 249c-1-14-2-13-13-19-9-5-3-12 1-11 5 2 12 7 15 12l2-3c3-4 8-7 13-9 4-2 7 3 6 7-2 6-13 3-15 14l-2 9c-2 2-5 2-7 0z"/><path fill="#FECC02" d="M222 249c15-8 31-4 39 11 11 20 3 58-17 69-4 2-13 4-18 2l-4-3c-4-3-9 0-13 2-14 7-26-9-31-20-9-19-12-53 12-63 9-4 17-1 25 2 2 2 5 2 7 0zm-10-142c6-7 12-13 19-18 35-21 86 0 90 42v4c8-1 14-1 21 1a47 47 0 0 1 29 57c6 2 10 6 12 12 4 9-3 19-12 22l-4 1-1 1-1 6h-8l-60-1-3-4a86 86 0 0 0-48-33l-12-3c-13-1-22-1-34 1-27 6-38 13-57 35l-3 5H84l-13-2-1-3v-2l-4-1c-16-4-19-25-2-34-3-4-3-10-3-15 3-24 22-39 44-44l14-2c6-25 20-43 48-47l13 1c11 1 24 11 31 19l1 2zm0 0c-5 8-8 15-10 24 11-2 13 8 19 12 4 4 10 2 13-2 3-5 8-9 15-8 8 1 8 7 11 10 3 2 8 2 10 2h1c3-1 4-4 6-7 6-8 17-9 23 0l3 5c5 5 14 3 17-3l1-5v-4c-4-42-55-63-90-42-7 5-13 11-19 18z"/><path fill="#E83612" d="M234 194c2-2 8-2 12-2h120l5 1c6 2 10 6 12 12 4 9-3 19-12 22l-4 1-1 1-1 6h-8l-60-1-3-4a86 86 0 0 0-48-33l-12-3z"/><path fill="#BC2F15" d="M294 230h46l21-1h5l-1 6h-8l-60-1-3-4z"/><path fill="#E83612" d="m64 193 19-1h110l5 1 2 2c-27 6-38 13-57 35l-3 5H84l-13-2-1-3v-2l-4-1c-16-4-19-25-2-34z"/><path fill="#BC2F15" d="M70 230h73l-3 5H84l-13-2-1-3z"/><path fill="#E83612" d="M212 107c6-7 12-13 19-18 35-21 86 0 90 42v4l-1 5c-3 6-12 8-17 3l-3-5c-6-9-17-8-23 0-2 3-3 6-6 7h-1c-2 0-7 0-10-2-3-3-3-9-11-10-7-1-12 3-15 8-3 4-9 6-13 2-6-4-8-14-19-12 2-9 5-16 10-24zm48-8c-7 1-19 5-9 12 3 3 8 3 11 2h2c3-1 9-2 11-6 6-8-11-8-15-8zm27 9c-6 2-3 9 2 9 7-2 4-9-2-9z"/></svg>