<svg xmlns="http://www.w3.org/2000/svg" viewBox="0 0 436 436"><path fill="#ED7100" d="M88 356h27l-5 9c-3 6-11 25-20 16-3-3-2-9-2-13v-12zm234 0h27v13c0 7-2 16-11 13-4-1-6-5-8-9l-8-17z"/><path fill="#FECE02" d="M88 356c-10 0-9-11-9-18V111c0-22 12-42 34-48 6-2 12-2 19-2h169c6 0 12-1 19 1 17 4 31 17 36 34 3 8 2 17 2 26v223c0 3-1 9-5 10l-4 1h-27l-2-1H118l-3 1H88z"/><path fill="#393C43" d="M140 311h10c4 0 14-1 13 6 0 1-1 3-3 3l-1 1h-19c-5-1-6-8 0-10zm136 0h19c7 0 8 7 1 9h-20c-5-2-5-7 0-9z"/><path fill="#ED7100" d="M215 278h6v72h-6v-72z"/><path fill="#E83613" d="M339 223v49l-1 5-25 1 1-3 20-40 5-12z"/><path fill="#89E2B1" d="M314 215c10-5 12-18 25-8 1 4 2 12 0 16l-5 12-20 40-1 3h-33c0-3 2-6 3-8l8-14 2-4 18-32 3-5z"/><path fill="#477C3E" d="m291 256-1 3c-1 8 14 21 22 18l2-2-1 3h-33c0-3 2-6 3-8l8-14z"/><path fill="#E83613" d="m122 278-16-1h-8v-98h241v28c-13-10-15 3-25 8l-3 5-18 32-2 4-8 14c-1 2-3 5-3 8-4 1-10 0-13-1l-36 1H122z"/><path fill="#DEDEDD" d="m267 277-7-2c-4-1-6-3-7-6 2-8 6-16 10-23l17-39c2-5 4-10 9-14l7 2 12 5c4 2 6 2 6 7v8l-3 5-18 32-2 4-8 14c-1 2-3 5-3 8-4 1-10 0-13-1zm-145 1v-62c0-11 1-12 14-12h14c5 0 7 8 8 11 2 3 7 11 12 7 3-3-3-7 4-11l10-4c3-2 8-5 12-4 3 1 5 3 7 6l28 69H122z"/><path fill="#E83613" d="m156 216 4 6c-3 0-4-4-4-6zm-6-46-5 1H98v-50l1-15c4-16 19-28 36-28h167c17 0 30 11 35 28 2 5 2 11 2 16v49l-27-1H150z"/><path fill="#DEDEDD" d="M150 170v-66c0-3-1-6 1-9l2-1 5-1h14c4 0 10-1 10 6v71h-32zm53 0v-60c0-9 0-12 9-12h19c7 0 6 9 7 13 1 3 7 6 10 2 1-5-6-8 8-13l19-8c3 2 5 3 6 6l27 72H203z"/></svg>