<svg xmlns="http://www.w3.org/2000/svg" width="436" height="436"><path fill="#363F51" d="M194.39 72.944l-.843-.777c-2.245-2.215-2.591-5.465-2.585-8.449.046-21.708 29.826-35.1 47-17.35 5.806 6.001 10.75 17.766 5.378 25.496l-.968 1.147c-2.232.446-4.849-.12-6.898.431-2.836.739-9.256.892-12.32.309l-10.638-.406c-3.335.993-8.367.702-11.722.3l-.308-.548-.332.36c-2.08.192-3.78.216-5.763-.513zm6.096.153l.308.548c3.355.402 8.387.693 11.722-.3l10.638.406c3.064.583 9.484.43 12.32-.309.708-3.898 1.03-8.032.008-11.905-5.816-22.011-39.772-16.035-34.996 11.56z"/><path fill="#363F51" d="M212.516 73.345l-.01-6.778c.018-2.89-.282-6.87 2.014-9.02 2.668-2.498 7.918-1.586 8.66 2.246.654 3.366.275 10.221.033 13.657l.119.136-10.816-.24z"/><path fill="#DCDCDC" d="M194.39 72.944c1.984.729 3.684.705 5.764.513l.332-.36.308.548c3.355.402 8.387.693 11.722-.084l10.638-.183c3.064.956 9.484.803 12.32.167 2.05-.653 4.666-.088 6.898-.534l.211.123c.964.423 2.57.27 3.624.26l7.525-.125c4.143-.056 9.215-.281 11.899 3.586l.133.189c3.065 4.498.572 18.103 2.344 19.352-1.965 1.664.227 10.751-7.264 15.274-3.439.849-9.532.61-13.064.234-1.04-.613-2.22-.506-3.32-.505l-19.492.033-11.895.024c-4.367-.424-20.907-.484-24.937.227-2.775.472-9.14 1.038-11.83.158-9.097-7.86-6.546-14.44-8.108-16.225l.42-.223c.682-5.308-1.118-12.804 1.512-17.567 4.445-8.052 18.188-2.883 23.872-4.74l.389-.142z"/><path fill="#E73712" d="M275.515 99.1c3.32 1.25 6.528 2.94 9.686 4.55 40.411 20.588 68.343 56.89 76.57 101.556l1.268 8.167c5.433 43.936-6.316 86.733-36.969 119.741-11.21 12.073-31.338 27.815-47.08 33.638l-.072-.137c.716-.947 2.132-1.651 3.08-2.416 59.835-48.21 70.437-143.283 38.735-210.04-9.289-19.56-21.634-38.097-39.585-50.757-1.018-.718-5.534-3.238-5.633-4.302zm-115.768.19l.198.472c-1.018 1.162-2.691 2.087-3.953 3.004l-5.868 4.53c-19.803 16.013-36.016 45.512-43.23 70.288-14.308 49.126-9.386 104.653 15.5 149.588 6.932 12.515 15.16 23.671 25.99 33.18l3.447 2.827c.988.739 1.74.9 2.056 2.123-6.222-2.646-12.26-6.537-17.824-10.356-78.67-53.99-86.315-168.4-15.481-230.789 11.351-9.998 25.212-19.072 39.165-24.866z"/><path fill="#FECD04" d="M268.327 96.396l5.159 1.784c.633.254 1.5.493 2.03.92.098 1.064 4.614 3.584 5.632 4.302 17.95 12.66 30.296 31.197 39.585 50.756 31.702 66.758 21.1 161.831-38.734 210.041-.949.765-2.365 1.469-3.08 2.416l.07.137c-11.521 6.44-22.807 7.507-34.804 10.858l-.924.18.145-1.117c.26-1.953 1.678-4.345 2.507-6.149 3.635-7.906 5.247-17.052 6.532-25.609l5.238-48.795 1.687-30.703-.03-59.277c-.053-1.535-.353-3.04-.43-4.57l-2.55-36.656-5.193-39.21c-.797-4.702-1.724-9.46-3.387-13.943 3.532.518 9.625.758 13.064-.044 7.491-4.57 5.3-13.657 7.483-15.32z"/><path fill="#E73712" d="M260.844 111.717l4.375 6.384c23.193 32.128 34.169 73.321 34.17 112.69l-.237 15.087c-.451 7.196-1.57 14.594-2.848 21.686l-3.88 16.934c-6.042 23.965-14.985 46.754-29.432 66.942-3.92 5.478-17.012 20.856-18.807 26.17l-.924.18.145-1.117c.26-1.953 1.678-4.345 2.507-6.149 3.635-7.906 5.247-17.052 6.532-25.609l5.238-48.795 1.687-30.703-.03-59.277c-.053-1.535-.353-3.04-.43-4.57l-2.55-36.656-5.193-39.21c-.797-4.702-1.724-9.46-3.387-13.943 3.532.518 9.625.758 13.064-.044z"/><path fill="#FECD04" d="M168.198 95.616c1.562 1.784-.989 8.364 8.108 16.225 2.69.88 9.055.314 11.83-.104 4.03-.765 20.57-.705 24.937-.173l11.895-.12 19.492-.045c1.1 0 2.28-.108 3.32.31 1.663 4.535 2.59 9.293 3.387 13.995l5.192 39.21 2.55 36.656c.078 1.53.378 3.035.432 4.57l.03 59.277-1.688 30.703-5.238 48.795c-1.285 8.557-2.897 17.703-6.532 25.609-.83 1.804-2.248 4.196-2.507 6.15l-.145 1.116c-6.437 1.531-13.47 2.593-20.096 2.215l-5.95.038c-1.182-.02-2.384-.15-3.561-.038-3.66-.065-12.665-.323-16.325-1.102l-10.051-1.817c-11.221-2.356-23.478-5.82-33.391-11.784-.317-1.223-1.068-1.384-2.056-2.123l-3.448-2.827c-10.829-9.509-19.057-20.665-25.989-33.18-24.886-44.935-29.808-100.462-15.5-149.588 7.214-24.776 23.427-54.275 43.23-70.289l5.868-4.529c1.262-.917 2.935-1.842 3.953-3.004l-.198-.471 8.45-3.675z"/><path fill="#E73712" d="M176.306 111.84c2.69.88 9.055.315 11.83-.103-1.914 8.063-3.149 16.313-4.305 24.566l-5.523 61.4c-.3 6.587-.842 13.105-.895 19.692l.09 51.858c.067 2.265.513 4.489.6 6.711l2.386 39.25c1.328 15.61 3.18 42.676 10.268 56.947.993 2 2.808 3.81 3.43 5.907-3.316-2.031-5.462-5.665-7.875-8.634l-9.908-12.11c-28.697-37.666-43.206-101.86-37.598-148.109l2.61-17.969c4.356-23.856 12.95-47.532 26.465-67.72l7.398-9.985c.358-.407.903-.863.997-1.422l.03-.278zm48.662-.397l19.492-.044c1.1 0 2.28-.108 3.32.31 1.663 4.535 2.59 9.293 3.387 13.995l5.192 39.21 2.55 36.656c.078 1.53.378 3.035.432 4.57l.03 59.277-1.688 30.703-5.238 48.795c-1.285 8.557-2.897 17.703-6.532 25.609-.83 1.804-2.248 4.196-2.507 6.15l-.145 1.116c-6.437 1.531-13.47 2.593-20.096 2.215l-5.95.038c-1.182-.02-2.384-.15-3.561-.038-5.096-11.279-6.894-30.548-7.51-42.493-.58-11.278-1.079-21.937-1.325-33.23l-.406-116.609c.044-1.852.341-3.67.409-5.509l2.957-47.805c.945-7.696 1.885-15.709 5.294-22.762l11.895-.154z"/><path fill="#FECD04" d="M224.968 111.547l19.492-.148c1.1 0 2.28-.108 3.32.31 1.663 4.535 2.59 9.293 3.387 13.995l5.192 39.21 2.55 36.656c.078 1.53.378 3.035.432 4.57l.03 59.277-1.688 30.703-5.238 48.795c-1.285 8.557-2.897 17.703-6.532 25.609-.83 1.804-2.248 4.196-2.507 6.15l-.145 1.116c-6.437 1.531-13.47 2.593-20.096 2.215l.399-.17c3.249-4.926 3.92-13.752 4.673-19.42l3.572-44.33c.072-1.597.37-3.195.427-4.78l.438-114.199-1.793-44.869c-.692-9.698-1.747-19.48-3.422-29.057l-2.49-11.633z"/></svg>