<svg xmlns="http://www.w3.org/2000/svg" width="436" height="436"><path fill="#4E312F" d="M299.48 340.898l43.984.445c-.55 6.265-4.093 15.192-11.528 15.883-.653.06-1.11.124-1.715.395-13.685 6.105-27.649-2.335-30.74-16.723zm-206.514.169l26.018.306c5.318-.004 10.874.265 16.154-.374l2.208-.163c-1.92 6.53-5.194 12.82-11.285 16.137-13.893 7.568-30.342-.107-33.095-15.906z"/><path fill="#DDDCDC" d="M197.348 115.639c1.038-.223 2.16-.215 3.213-.283l-47.413-42.862c-1.64-1.314-3.795-2.54-5.038-4.257l-.423-.604c-5.597-8.626 9.789-17.654 15.523-6.89l.166.317c.936 1.76 1.094 3.41 1.264 5.364l8.002 6.634 37.03 33.227c2.443 2.12 4.844 4.212 7.712 5.746 2.923-2.324 5.588-5.007 8.35-7.523l35.248-33.654c3.238-3.422 3.77-3.784 5.153-8.146 2.107-6.645 11.1-10.495 14.872-3.152l.118.238c2.51 4.825-.162 9.918-5.24 11.644-4.268 1.45-2.467.143-4.479 4.134-1.64 3.252-4.8 6.118-7.278 8.773l-32.307 31.12-34.473.174z"/><path fill="#E93713" d="M197.348 115.634l34.473-.062 102.672.068c3.176.002 6.86-.386 9.947.205 12.47 2.388 23.188 12.51 25.2 25.221.491 3.104.432 6.214.434 9.344l-.078 162.501c-.465 15.785-11.281 25.612-26.532 28.306l-43.983-.105c-.46-.761-2.389-.606-3.09-.609l-153.898.06c-1.726.057-3.416.267-5.147.175l-2.208.26c-5.28.64-10.836.371-16.154.375l-26.018-.048c-.381-.555-1.116-.538-1.578-.59-12.58-1.404-23.776-13.056-24.872-25.698-.283-3.272-.079-6.711-.078-10.002l-.019-154.623c-.002-3.237-.38-7.067.436-10.198 4-15.346 15.393-24.543 31.043-24.565l99.45-.015z"/><path fill="#DDDCDC" d="M328.233 212.78c12.57-.778 14.673 15.747 1.354 18.423-12.897.503-14.485-16.44-1.354-18.423zm-.316-59.016c11.715-1.38 16.555 13.058 3.376 18.566-6.366 1.692-12.727-3.774-11.136-10.55l.07-.273c1.018-4.1 3.503-6.708 7.69-7.743zm.008 30.258c13.042-1.023 14.746 15.664 2.212 18.446-12.774 1.953-15.354-15.636-2.212-18.446z"/><path fill="#FECB02" d="M327.703 241.076c11.082-1.197 16.959 14.339 3.349 19.443-11.745 2.765-16.366-15.85-3.349-19.443z"/><path fill="#DDDCDC" d="M324.398 271.42c.638-1.658.921-6.636 3.838-5.156 1.655.84 2.217 3.372 2.739 4.992 6.445.685 13.06 6.061 17.025 10.944 6.856 8.441 6.285 20.821-.178 29.33-7.6 10.004-23.996 11.605-33.768 3.982-15.402-12.015-10.171-36.7 7.748-43.493.57-.215 1.575-.665 2.173-.674l.423.075z"/><path fill="#4E312F" d="M324.325 271.42c.71-1.658.994-6.636 3.91-5.156 1.656.84 2.218 3.372 2.74 4.992l-.057 6.711c-.01 1.509.164 3.26-.736 4.516-4.082 1.497-5.787.556-5.865-3.225l.008-7.838z"/><path fill="#FECB02" d="M109.064 135.327l154.117-.002c12.576.165 15.141 7.986 19.766 17.774 8.447 17.871 10.89 28.53 12.379 48.546l.73 32.86-.69 8.661c-1.167 14.514-3.402 28.78-6.955 42.908-2.948 11.718-6.694 27.565-18.795 33.146-1.02.471-2.46.96-3.262 1.728l-.167.164c-1.244 1.201-1.948 1.043-3.616 1.05l-5.67-.032-145.26.028c-13.031-.006-16.183-5.893-22.33-16.866-12.4-22.138-15.412-38.65-19.326-63.276l-.504-5.886c-1.24-27.894 6.032-58.88 18.595-83.644 5.536-10.913 7.388-16.812 20.988-17.16z"/><path fill="#FEEA74" d="M180.269 253.696c1.663.049 2.889-1.56 4.639-1.184l-2.06 18.025-.206-.967c-.013-.773.143.107.003-.606l.262-2.482c.492-1.596-2.202-1.66-3.36-2.075-.045.553-.046 1.655-.472 2.018.357-4.038 1.782-8.404 1.236-12.439l-.042-.29z"/><path fill="#E93713" d="M186.093 244.716l21.86-7.93c1.452-.537 26.199-11.702 19.3-1.457-4.122 6.122-8.866 11.881-13.39 17.712l-26.846 33.332c-1.381 1.63-2.707 3.33-4.307 4.75-4.394-4.683.614-14.624.138-20.586l2.06-18.025c.24-2.503.3-5.453 1.185-7.796z"/><path fill="#DDDCDC" d="M180.269 253.696c-1.834.543-3.417 1.482-5.133 2.3l-37.335 16.537c-6.109 2.62-12.1 5.362-18.51 7.181-.594-.393-1.024-1.185-1.449-1.77l-3.164-4.562c-20.79-32.01-18.383-75.494 7.445-104.235 16.56-18.428 41.985-29.317 66.586-29.568 23.478-.24 43.986 11.999 59.379 28.948 2.197 2.419 4.905 4.937 6.649 7.673-.228 1.485.782 2.995 1.468 4.246-4.567 3.303-10.204 5.62-15.315 7.942l-30.997 14.705c-4.754 2.467-8.335 4.4-13.72 5.159l10.778-43.545c.892-3.723 3.097-8.867-2.263-10.178-5.36-1.313-22.213 24.34-25.247 28.533l-31.37 41.224c-1.058 1.523-2.453 3.476-2.848 5.313l-.191 1.066c-.532 6.366 38.786 7.624 40.777 10.892.556.914.518 2.155.284 3.159-.886 2.343-.945 5.293-1.185 7.796-1.75-.375-2.976 1.233-4.64 1.184z"/></svg>