<svg xmlns="http://www.w3.org/2000/svg" width="436" height="436"><path fill="#989797" d="M282.303 76.288l15.693.325c2.683-.007 5.536.169 8.198-.131l.015 4.156.028 14.328c.005 2.24.227 4.707-.02 6.917l-15.782-.514c-2.675-.004-5.491-.18-8.13.271l-.01-15.806.008-9.546z"/><path fill="#6C6161" d="M282.303 76.288l15.693.325c2.683-.007 5.536.169 8.198-.131l.015 4.156-.08.246c-.206 1.569-.173 3.226-.045 4.802l-23.758.018-.023-9.416z"/><path fill="#FDCA01" d="M282.534 76.538l-.225-.372c-1.155-.517-2.863-.612-4.127-.853l-4.886-1.123c-18.54-4.186-32.813-4.493-49.857 6.961-4.064 2.731-10.198 9.815-15.53 7.611-7.806-3.226-3.818-10.07.618-14.44 16.986-16.738 35.393-19.925 57.795-19.923l45.57.008c1.757.003 3.593-.114 5.268.495l.225.08c1.822.71 3.492 3.237 4.183 4.947 3.425 8.466-4.946 14.625-12.617 15.821-.88.138-1.957.174-2.757.552-2.662.48-5.515.304-8.198.31l-15.462-.074zm-.229 25.197c2.639-.545 5.455-.37 8.13-.366l15.984.257c3.147.551 6.362.309 9.488.805 5.844.928 11.717 6.073 12.974 11.986.46 2.163.24 4.676.247 6.89l.024 12.084c.377 3.295.31 10.091-.012 13.418l-71.05-.064.085-11.323-.076-10.877c-.02-4.42-.483-9.261 1.396-13.4 5.185-11.428 14.248-7.789 22.596-9.366l.214-.044zm46.93 31.747l-.05 1.934c-1.087.427-3.423.03-4.64.005l-66.37.001-.086 11.323 71.05.064c.324-3.327.39-10.123.096-13.327z"/><path fill="#E53613" d="M258.09 146.954l71.316-.199c2.375.021 4.88-.116 7.235.176 11.188 1.384 23.19 12.442 23.433 24.13l.002 165.062c-.004 2.457.16 5.043-.457 7.44-2.552 9.913-10.532 19.5-21.252 20.693-4.01.446-8.309.15-12.354.15l-75.035.026c-2.307-.004-5.036.2-7.28-.39l-.745-.28c-8.22-3.073-15.523-7.4-17.37-17.032 2.346-.66 5.143-.658 7.588-.952 19.165-2.303 36-14.178 44.059-31.965 12.938-28.56 3.736-72.858-6.863-101.08-6.032-16.06-19.971-46.292-36.407-53.752 6.017-8.865 13.967-11.992 24.13-12.027z"/><path fill="#FDCA01" d="M222.659 346.871c-6.842 8.339-1.992 17.153-19.155 17.367l-99.875.117c-16.849-.767-29.516-56.382-31.799-68.764l-3.968-30.707c-.282-4.419-.143-8.928-.15-13.355l.15-15.39c.13-2.39.582-4.755.749-7.132l2.893-25.933c5.195-31.672 18.124-76.117 49.08-90.728-1.384-7.42.46-20.652 1.661-27.929 3.123-18.911 7.805-23.863 26.309-23.911l11.711-.041c9.235-.024 17.83-1.422 24.588 6.46 6.584 7.68 8.63 36.616 7.834 46.15.235.482.838.645 1.308.894 11.52 6.096 20.651 17.75 26.328 29.235 2.224 4.5 3.855 11.31 8.777 13.545l.232.104c1.439.324 3.286 1.434 4.628 2.128 16.436 7.46 30.375 37.692 36.407 53.752 10.6 28.222 19.801 72.52 6.863 101.08-8.058 17.787-24.894 29.662-44.059 31.965-2.445.294-5.242.291-7.588.952-1.052-.08-1.905-.197-2.924.141z"/><path fill="#FEA000" d="M119.771 144.899l.388.115c-2.239 10.784-6.473 18.382-10.773 28.401-15.098 35.177-17.035 72.56-9.375 109.56 2.879 13.905 6.662 26.978 13.067 39.686 1.157 2.295 2.898 4.563 3.741 6.955-.15 1.357-1.693 3.94-3.283 3.94-6.01-5.522-13.673-28.746-15.993-37.148-4.624-16.743-6.395-35.12-6.41-52.412-.004-4.743-.254-9.672.24-14.384 2.441-23.311 7.863-46.656 17.628-67.998 2.615-5.716 5.797-12.659 10.77-16.715z"/><path fill="#DA2000" d="M169.294 317.384c-2.103.316-4.181.06-6.267-.283-22.9-3.768-41.77-25.915-42.285-49.1-.136-6.122.534-11.704 7.462-13.342l.353-.08c2.55-.598 5.556-.526 8.033.375l4.161 1.886c8.283 4.198 14.709 11.64 19.606 19.4l1.31 19.256c1.388 8.036 3.344 14.815 7.627 21.888z"/><path fill="#E53613" d="M140.751 256.84c8.283 4.198 14.709 11.64 19.606 19.4l1.31 19.256c-13.692-1.28-25.658-14.693-27.924-27.73-1.214-6.983 4.234-6.844 6.893-10.749l.115-.177z"/><path fill="#DEDEDD" d="M160.4 276.24c.378-2.942.348-5.949.513-8.906.885-15.773 6.76-37.616 12.43-52.75 7.638-20.386 26.342-58.447 50.203-58.679 1.982-.019 3.782.98 5.601.953l.185-.005c1.439.324 3.286 1.434 4.628 2.128 16.436 7.46 30.375 37.692 36.407 53.752 10.6 28.222 19.801 72.52 6.863 101.08-8.058 17.787-24.894 29.662-44.059 31.965-2.445.294-5.242.291-7.588.952-1.052-.08-1.905-.197-2.924.141-1.201-.479-2.654-.423-3.904-.456-16.022-.419-31.404-5.787-41.925-18.483-2.718-3.281-4.7-7.091-7.37-10.35l-.166-.198c-4.283-7.073-6.24-13.852-7.609-21.888L160.4 276.24z"/><path fill="#E53613" d="M233.67 244.905c10.84-.454 14.814 9.124 13.263 18.859-1.333 8.366-16.628 25.781-24.16 31.304-2.987-2.308-5.675-5.292-8.323-7.977l-10.265-11.204c-4.227-5.472-6.351-11.468-5.413-18.437 1.75-12.989 15.748-16.968 23.8-5.747 3.49-3.133 6.385-5.843 11.097-6.798z"/></svg>