<svg xmlns="http://www.w3.org/2000/svg" width="436" height="436"><path fill="#ED7100" d="M87.575 356.246l27.128-.115c-1.147 3.279-2.886 6.28-4.438 9.285-2.915 5.641-10.971 24.29-20.071 15.286-3.138-3.104-2.594-8.51-2.604-12.518l-.015-11.938zm234.38-.034c1.942-.244 4.027-.096 5.984-.095h13c2.66-.001 5.402.108 8.047-.186l-.069 13.476c-.159 6.821-1.553 16.022-10.892 12.959-3.785-1.242-6.059-5.748-7.845-8.993l-8.225-17.16z"/><path fill="#FECE02" d="M87.534 356.167c-9.93-.083-8.971-10.983-8.969-17.84l-.015-227.481c.026-22.176 12.875-41.494 34.683-47.857 5.994-1.748 12.225-2.058 18.416-2.075l169.215-.004c6.403 0 12.633-.428 18.91.974 17.045 3.804 31.166 16.9 36.237 33.676 2.618 8.664 1.872 17.902 1.87 26.845l-.125 222.576c-.133 3.2-1.214 9.333-5.001 10.31l-3.77.517c-2.644.417-5.386.308-8.046.31l-13-.001c-1.957-.001-4.042-.15-5.984.032-.731-.867-.898-.714-1.907-.758l-201.56.035c-1.108.059-2.926.055-3.785.797l-27.169-.056z"/><path fill="#393C43" d="M140.31 311.364c3.232-.237 6.576-.076 9.82-.075 3.508.002 14.31-1.284 13.075 5.214l-.05.231c-.338 1.645-1.36 3.025-3.031 3.538l-1.427.337-12.34.087c-2.071.006-4.324.186-6.379-.025-5.243-.539-6.027-8.06.331-9.307zm135.734-.007l18.683-.069c6.878.02 7.897 6.486 1.658 9.039-1.554.546-19.526.659-20.831.1-4.653-1.994-4.286-7.775.49-9.07z"/><path fill="#ED7100" d="M215.24 278.227l5.438.073-.009 72.185-5.62-.058.191-72.2z"/><path fill="#E83613" d="M339.262 223.084c.615 2.437.148 5.58.14 8.122l-.067 20.584c-.057 2.057-.47 4.096-.505 6.183l-.043 14.345c-.004 1.247.271 3.99-.292 5.02l-25.967.18.984-2.874 20.673-39.659c1.983-3.859 3.56-7.843 5.077-11.9z"/><path fill="#89E2B1" d="M314.266 214.743c9.709-4.388 11.327-17.753 24.395-7.658 1.555 4.247 2.004 11.529.6 16-1.515 4.057-3.093 8.041-5.076 11.9l-20.673 39.659-.984 2.933c-4.943 1.377-10.777.773-15.895.755l-17.084-.015c.75-3.056 2.452-5.901 3.924-8.702l7.278-13.445c.417-1.516 1.616-3.24 2.387-4.644l17.763-31.66c1.043-1.718 1.991-3.646 3.365-5.123z"/><path fill="#477C3E" d="M290.751 256.17l-.01.278c-.062.924-.61 1.768-.704 2.717-.796 8.097 14.415 21.26 22.06 17.553.458-.687.89-1.438 1.415-2.074l-.984 2.933c-4.943 1.377-10.777.773-15.895.755l-17.084-.015c.75-3.056 2.452-5.901 3.924-8.702l7.278-13.445z"/><path fill="#E83613" d="M122.235 277.773l-16.34-.284c-2.523-.004-5.571.31-8.034-.153l-.197-98.475 241.135.05-.039 28.174c-13.167-10.095-14.785 3.27-24.494 7.658-1.374 1.477-2.322 3.405-3.365 5.122l-17.763 31.66c-.77 1.404-1.97 3.13-2.387 4.645l-7.278 13.445c-1.472 2.8-3.174 5.646-3.924 8.748-3.12.932-9.444-.306-12.543-.878l-36.404.02-9.924.706-5.265.05c-3.316-.693-6.989-.416-10.352-.417l-82.826-.071z"/><path fill="#DEDEDD" d="M267.006 277.485l-7.358-2.264c-3.578-1.146-5.404-3.097-7.079-6.357 2.65-8.1 6.386-15.49 10.02-23.156l17.096-38.225c2.46-5.621 3.91-10.934 9.036-14.814 2.517.665 5.009 1.769 7.435 2.73l11.803 5.046c4.257 2.046 5.725 1.975 5.831 6.52.06 2.496.047 5.022.269 7.51l.026.268c-1.193 1.477-2.141 3.405-3.184 5.122l-17.763 31.66c-.77 1.404-1.97 3.13-2.387 4.645l-7.278 13.445c-1.472 2.8-3.174 5.646-3.924 8.748-3.12.932-9.444-.306-12.543-.878zm-144.771.288l-.216-61.874c-.023-11.388.696-12.334 13.512-12.36l14.916.016c4.606.048 7.03 8.117 7.994 11.253 1.101 3.586 6.982 11.33 11.165 7.28 2.92-2.828-2.455-7.204 3.942-10.618 3.33-1.778 6.98-3.096 10.427-4.656 3.106-1.406 8.465-5.263 12.027-3.92l.387.144c2.908 1.097 4.942 2.995 6.207 5.852l28.006 68.666-9.924.655-5.265.05c-3.316-.693-6.989-.416-10.352-.417l-82.826-.071z"/><path fill="#E83613" d="M155.907 215.941l4.323 5.905-.266.152c-2.798-.195-3.617-3.876-4.057-6.057zm-5.774-45.807c-1.568.468-3.384.366-4.977.37l-33.179.02c-4.717.003-9.533-.198-14.236.145l-.025-49.392c.005-5.273.026-10.249 1.321-15.4 4.111-16.34 19.394-28.145 36.28-28.244l166.353.122c17.157.104 30.768 11.53 35.492 27.963 1.583 5.508 1.606 11.045 1.613 16.717l.066 48.12-26.522-.109c-1.388-.02-2.85.043-4.206-.28l-.202-.053-104.884-.306c-1.425.595-3.079.589-4.575.622l-6.656.035c-2.96-.003-6.153.198-9.087-.156l-21.29-.517c-3.69 0-7.647-.28-11.286.343z"/><path fill="#DEDEDD" d="M150.133 170.134l-.085-65.773c0-2.961-.882-6.742 1.419-9.074l1.672-1.386c1.032-.738 3.543-.597 4.793-.625l13.69-.064c4.717-.007 10.315-.827 10.703 5.776.264 4.48.059 9.077.063 13.568l.037 46.783c.003 3.502.24 7.183-.024 10.665l-20.982-.213c-3.69 0-7.647-.28-11.286.343zm52.894-.327l-.116-59.384c.002-9.69-.236-12.125 9.226-12.066l18.64-.246c7.678-.04 5.893 8.956 7.257 12.506l.083.22c1.369 3.255 7.374 6.48 9.821 2.51 1.136-5.455-5.659-8.4 7.578-13.08 5.374-1.899 15.362-7.746 19.081-7.995 3.118 1.284 4.945 2.798 6.257 5.98l27.057 71.619-104.884-.064z"/></svg>