<svg xmlns="http://www.w3.org/2000/svg" viewBox="0 0 436 436"><path fill="#2A9D8F" d="M276 171c3-10 20-12 28-4l2 2c5-11 23-8 27 3 3 11-6 23-17 21l-8-4 2 15h-10c1-12-10-19-17-26l-7-7z"/><path fill="#264653" d="m207 78 5-6c32-38 78-5 58 33-4 8-12 14-20 18l-5 3-2-3-2-7c-7-16-19-28-34-38zm-101 49c-7-2-20-12-24-18-18-24-1-59 30-53 11 2 24 13 30 22 0 2-3 3-5 4-12 9-22 21-28 36l-2 5-1 4zm0 21c6 16 14 25 27 37h-1l-3 4-3 4c-14 17-21 36-23 58-1 11 1 22 2 33l2 24 2 14-37-23c-11-7-12-17-12-29v-31c0-37 18-68 46-91z"/><path fill="#E9C46A" d="M300 204h15c26 2 46 12 61 35 32 47 2 118-57 122h-29c-15 0-28-5-40-13l-9-7a84 84 0 0 1-25-57l1-9c1-20 13-41 27-54 18-14 35-17 56-17z"/><path fill="#2A9D8F" d="M142 78c4-4 26-7 31-8 12 0 24 2 34 8 15 10 27 22 34 38l2 7 2 3v20c6 2 26 20 31 25l7 7c7 7 18 14 17 26-21 0-38 3-56 17a83 83 0 0 0-27 54l-1 9 2 13c2 13 12 36 23 44-8 19-42 30-54 10l-1-1h-22c-1 3-6 6-9 8-17 9-45-4-46-23v-13l-2-14-2-24c-1-11-3-22-2-33 2-22 9-41 23-58l3-4 3-4h1a80 80 0 0 1-27-37c0-7-2-14 0-21l1-4 2-5c6-15 16-27 28-36 2-1 5-2 5-4z"/><path fill="#264653" d="M204 114c10 0 13 11 4 15-10 1-14-13-4-15zm-61 0c11 0 12 11 3 14-10 2-14-12-3-14zm102 32c6 2 26 20 31 25l7 7c7 7 18 14 17 26-21 0-38 3-56 17l-2-5-3-6c-5-9-12-19-19-27 9-7 16-15 21-27l2-6 2-4z"/><path fill="#E9C46A" d="M158 146v-2c2-12 18-13 26-9 4 2 6 5 7 10l6 1c21 6 17 34-2 42-11 5-27 6-38 2-19-7-27-34-8-42l2-1 7-1z"/><path fill="#264653" d="M158 146v-2c2-12 18-13 26-9 4 2 6 5 7 10 0 7-6 11-12 15v11c8 7 15-9 17-9 13-2-6 26-21 14-9 6-17 3-23-5-5-7-2-14 5-5 2 3 4 5 7 6 5 1 7-1 7-5v-7c-6-3-11-6-13-14zm6 204 1-12v-9c-2-12-12-24-24-26-2 0-1 0-1-2v-32c0-10 5-20 13-27 22-20 57-2 60 25v36c-12 2-19 5-25 18-2 4-2 8-2 12v17h-22z"/></svg>