<svg xmlns="http://www.w3.org/2000/svg" width="436" height="436"><path fill="#FEC901" d="M340.584 148.298c17.754-11.602 27.306-4.106 34.302 14.395 16.33 43.195-16.014 36.459-18.596 45.613-.99 3.512.027 17.93.72 21.182 2.452 2.858 6.967 3.764 10.3 5.31 15.64 7.249 12.853 23.137 8.481 36.38-3.517 10.65-9.32 22.929-22.54 22.032-3.091-.21-6.65-1.845-9.478-3.054l-11.176-4.703c-2.486-.944-5.223-2.085-7.918-1.554.091-.422.027-.291.214-.621 3.018-5.314 2.846-10.72 2.843-16.597l-.06-7.936c-.085-1.57-.378-3.124-.44-4.695l-.04-90.297c.011-6.552-1.552-5.829 3.71-9.176l9.678-6.28zM95.177 143.83c4.824-1.582 9.476-1.558 14.502-1.562l.145 8.26.123 120.019c.032 3.449.063 9.014 2.088 11.967L95.84 289.31c-4.542 1.856-9.52 4.074-14.535 3.653-13.673-1.147-18.67-16.446-21.97-27.493-4.635-15.517-2.422-24.618 12.573-31.795 7.94-3.801 8.11-2.84 8.172-11.29l.023-9.263c-.001-1.699.313-4.028-.128-5.623-1.611-5.813-32.848-2.816-19.54-42.04 2.92-8.604 7.588-19.692 17.32-22.138l.375-.091c4.552-1.143 8.646.494 12.604 2.588l4.443-1.988z"/><path fill="#F3B400" d="M95.177 143.83c4.824-1.582 9.476-1.558 14.502-1.562l.145 8.26c-1.779-.013-13.945-5.432-14.647-6.697z"/><path fill="#FEC901" d="M113.9 130.262c-1.426-1.79-3.227-3.267-4.857-4.867-7.34-7.207-9.23-18.747-2.316-26.969 1.78-2.117 3.893-4.036 5.922-5.913 13.9-12.865 30.07-23.244 43.578-2.744 2.312 3.508 3.848 7.02 7.124 9.81 5.175-1.476 19.71-6.245 24.028-9.513 2.329-1.762 2.209-4.255 2.222-6.91l-.067-6.248c-.83-18.353 11.719-21.823 27.802-21.9 11.577-.057 26.49.084 29.444 14.34l.077.387c1.082 5.107-1.043 11.48.248 15.926l.082.257c1.738 5.753 9.945 7.343 14.824 9.272 3.851 1.523 7.645 3.266 11.588 4.54 4.275-3.999 6.405-10.192 10.513-14.517 14.282-15.033 31.048-1.43 42.447 9.55 9.283 8.943 10.272 21.743.976 31.155l-3.37 3.072-.189-.066c-11.447-4.158-11.002-4.528-22.923-4.518l-171.956.156c-4.748.265-9.457 1.47-13.243 4.42-.598.466-1.205 1.096-1.954 1.28zm.648 155.901l.22.045c4.996 1.779 2.997 7.33 14.296 7.058l7.211-.11c1.615-.098 3.203-.342 4.826-.387l44.198-.088c2.18.007 6.032-.75 7.773.79 2.168-.764 17.289-.76 20.226-.78l30.26-.015 68.162.08 7.34 6.237c11.91 11.71 23.589 26.436 8.325 41.702l-6.665 6.08c-6.12 5.44-13.347 11.692-21.994 11.62-15.195-.128-18.43-14.366-26.613-22.714-4.173 1.594-8.04 3.668-12.314 5.076-8.472 2.79-13.4 3.336-13.12 13.133l.155 7.53c.279 18.576-14.166 19.742-29.35 19.693-11.498-.036-25.65-1.422-27.777-15.43l-.057-.4c-1.796-11.974 5.536-18.767-11.571-24.363l-14.425-4.948c-1.84 2.131-3.177 4.554-4.674 6.923-13.526 21.404-24.935 18.661-42.093 4.552-8.648-7.11-17.593-15.458-14.872-27.839 1.075-4.89 3.154-8.678 7.388-11.429l1.016-3.893c1.697-5.546 4.13-11.934 4.13-17.806l-.001-.317z"/><defs><linearGradient id="a" gradientUnits="userSpaceOnUse" x1="355.551" y1="427.47" x2="289.445" y2="448.318"><stop offset="0" stop-color="#B1B9CB"/><stop offset="1" stop-color="#DDDADC"/></linearGradient></defs><path fill="url(#a)" transform="scale(.68138)" d="M283.356 430.968c3.181-1.387 25.373-1.38 29.683-1.411l44.41-.021c-4.968 11.778-14.94 20.492-26.822 25.355-18.616 7.62-39.256-7.784-47.271-23.923z"/><path fill="#DDDCDC" d="M113.9 130.262c.75-.184 1.356-.814 1.954-1.28 3.786-2.95 8.495-4.155 13.243-4.42l171.956-.156c11.921-.01 11.476.36 22.923 4.518l.19.066c8.467 1.639 14.13 11.65 16.418 19.308l-9.678 6.28c-5.262 3.346-3.699 2.623-3.71 9.175l.04 90.297c.062 1.571.355 3.125.44 4.695l.06 7.936c.003 5.877.175 11.283-2.843 16.597-.187.33-.123.199-.214.621-2 .992-11.177 7.044-12.96 8.888l-68.161-.127-30.26.03c-2.937.021-18.058.017-20.226.682-1.74-1.441-5.594-.684-7.773-.69l-44.198.087c-1.623.045-3.21.29-4.826.387l-7.21.11c-11.3.272-9.3-5.28-14.298-7.058l-.22-.045-.061-.043c-.453-1.687-1.185-2.454-2.451-3.606-2.025-2.953-2.056-8.518-2.088-11.967l-.089-120.019-.01-8.286c-.683-5.967-.954-8.95 4.052-11.98z"/><path fill="#2D3860" d="M216.902 265.984c9.614-.39 13.324 12.86 2.512 15.28-10.051.24-12.92-12.32-2.512-15.28z"/><path fill="#E63914" d="M182.553 134.75l125.307-.04c11.473-.105 9.506 3.947 9.517 13.677l.015 95.973c.003 3.378-.206 6.95.168 10.306l-62.806.275-134.832.066c-.436-3.62-.087-7.6-.087-11.27l-.189-103.523c-.08-6.748 7.024-5.42 11.905-5.437l51.002-.028z"/></svg>