<svg xmlns="http://www.w3.org/2000/svg" width="436" height="436"><path fill="#39343B" d="M55.04 308.867c6.023 1.882 10.324 4.807 13.496 10.184-2.192 1.56-9.807 7.066-12.133 6.764-7.434-.965-5.844-13.66-1.362-16.948z"/><defs><linearGradient id="a" gradientUnits="userSpaceOnUse" x1="504.015" y1="194.797" x2="515.535" y2="126.368"><stop offset="0" stop-color="#E28500"/><stop offset="1" stop-color="#EFA101"/></linearGradient></defs><path fill="url(#a)" transform="scale(.68138)" d="M471.245 177.305c11.891-8.762 10.282-5.122 19.667-17.32 5.895-7.662 18.891-25.1 27.438-29.692 12.69-6.819 30.405 4.421 27.711 18.055-3.96 20.04-39.903 31.023-49.368 46.172-.273.924-.472 1.871-.97 2.701l-.175 1.309-.348.064c-.976.188-1.416.145-2.345-.115l-13.618-13.182c-2.726-2.473-6.451-4.638-8.84-7.306l.848-.686z"/><path fill="#DD7107" d="M366.647 104.655c.726.269.124.881.339 1.62l.532.042c.316-.252.576-.466.941-.644-.372.857-1.128 1.138-1.793.473-1.366.159-2.128 2.151-3.472 2.606l-1.68.525-3.33.664c2.477-2.003 5.43-4.27 8.463-5.286z"/><path fill="#B74A1F" d="M320.518 121.279l.578-.467 1.8.191c1.298.167 2.89 1.655 3.888 2.47l7.937 6.589c1.198.93 2.436 1.673 3.714 2.48-.186.629-.321 1.274-.66 1.84l-.12.892-.237.043c-.665.128-.965.1-1.598-.078l-9.279-8.982c-1.857-1.685-4.395-3.16-6.023-4.978z"/><path fill="#E73814" d="M320.518 121.279c1.628 1.818 4.166 3.293 6.023 4.978l9.28 8.982c.632.177.932.206 1.597.078l.237-.043.12-.892c1.534.38 2.775 1.106 4.189 1.782l5.284 2.466c5.147 2.055 11.486 2.87 13.995 8.657 1.874 4.322-.91 9.687-5.209 11.244-2.397.869-5.035.269-7.315 1.049l3.197 16.065 19.683 108.404c2.765 14.24 6.289 28.762 6.218 43.332-.102 21.35-14.058 39.993-33.875 47.543-3.634 1.384-7.602 1.67-11.448 1.906l-38.92.325c-13.715-.054-24.737-5.724-34.215-15.706-1.68-1.768-3.213-3.69-4.95-5.402-9.367-14.419-11.996-25.279-8.888-41.784l15.4-81.507 6.226-28.038c1.675-4.584 2.284-9.853 3.043-14.678l2.667-16.89c.717-4.438 1.425-8.977 2.613-13.315-1.907-.063-4.668.229-6.44-.338-6.89-2.202-8.453-10.363-3.418-15.217 3.381-3.26 8.468-2.72 12.782-2.7l9.159.146 4.159-.264 28.806-20.183zm17.256 13.103l-.119.892-.237.043c-.665.128-.965.1-1.598-.078-.196.815-.462 1.654-.52 2.49l-1.753.804c.992.477 5.199-.036 6.562.082 2.183.19 4.391.918 6.566.961l.573-.946-5.284-2.466c-1.414-.676-2.655-1.401-4.19-1.782z"/><path fill="#811829" d="M337.774 134.382c1.535.38 2.776 1.106 4.19 1.782l5.284 2.466-.573.946c-2.175-.043-4.383-.771-6.566-.96-1.363-.12-5.57.394-6.562-.083l1.754-.804c.057-.836.323-1.675.52-2.49.632.177.932.206 1.597.078l.237-.043.12-.892zm-.119.892l-.237.043c-.665.128-.965.1-1.598-.078-.196.815-.462 1.654-.52 2.49.813-.329 1.674-.607 2.38-1.134l-.025-1.321z"/><path fill="#FECB02" d="M320.518 121.279c1.628 1.818 4.166 3.293 6.023 4.978l9.28 8.982c-.197.815-.463 1.654-.52 2.49l-1.754.804c-7.777 2.7-10.356 2.98-18.775 3.002l-11.835.022c-3.626.005-7.643.366-11.225-.075l28.806-20.203zm-7.461 132.792l.156.137c2.096 2.223 3.815 5.142 5.529 7.68l10.555 16.816c1.824 3.127 3.768 6.274 5.11 9.649 5.403 13.584-5.56 29.254-20.364 29.672-6.176-.28-12.012-2.244-16.56-6.58-14.003-13.346-3.4-29.861 4.816-42.674 3.243-5.056 6.542-10.394 10.758-14.7zM136.252 63.804l.538-.876c.56-1.055 1.696-1.835 2.68-2.469l.312-.204c6.485-4.174 9.76-6.295 17.423-6.348l52.88-.018c3.001.003 6.566-.555 9.446.418l1.386.417c3.477.966 11.536 8.13 13.86 11.381l.127-.714c.466-3.23 16.23-2.038 18.741-1.52 11.398 2.345 21.801 9.135 27.951 19.134 6.55 10.65 6.046 21.727 6.08 33.617l-.108 25.23-9.174-.271c-4.314-.022-9.4-.562-12.782 2.699-5.035 4.854-3.473 13.015 3.417 15.217 1.773.567 4.534.275 6.44.338-1.187 4.338-1.895 8.877-2.612 13.316l-2.667 16.89c-.759 4.824-1.368 10.093-3.043 14.677l-6.225 28.038-15.401 81.507c-3.108 16.505-.479 27.365 8.887 41.784-2.408.074-4.872-.153-7.292-.173l-124.724-.184c-19.56-.644-36.433-13.54-40.548-33.072-.653-3.1-.755-6.484-1.08-9.642-3.53 2.573-7.958 5.021-12.228 6.075-3.172-5.377-7.473-8.302-13.495-10.184l.474-.156c.318-2.846 1.29-5.72 2.156-8.442l2.562-8.341c2.071-6.745 3.756-13.647 6.318-20.231 3.805-9.781 12.043-14.605 16.363-22.392l.141-.259c.159-.927-.319-9.509-.32-11.277l-.006-125.263c.007-4.013-.017-7.891.475-11.88 2.27-18.399 17.096-33.56 35.292-36.733 5.614-.98 12.105-.774 17.756-.09z"/><path fill="#DD7107" d="M184.691 205.378l.85-.647c1.038 1.18 1.643 1.986 2.045 3.515l.374 1.42-3.269-4.288z"/><path fill="#FFA300" d="M269.432 102.574l.126-.248c3.266-6.255 5.525 4.79.62 4.55-1.437-.07-3.262 1.088-4.503.34l.212-.113c2.017-1.163 2.958-2.32 3.545-4.529z"/><defs><linearGradient id="b" gradientUnits="userSpaceOnUse" x1="322.347" y1="164.691" x2="338.111" y2="173.486"><stop offset="0" stop-color="#FF5236"/><stop offset="1" stop-color="#FF424E"/></linearGradient></defs><path fill="url(#b)" transform="scale(.68138)" d="M349.103 146.523l3.739 3.049c-11.537 10.559-20.791 23.34-32.812 33.496l-9.794 7.636-2.572-1.259 41.439-42.922z"/><path fill="#E73814" d="M237.87 99.837c-3.274-7.717 5.283-18.883 12.06-11.447 1.308 1.435 1.16 3.004 1.087 4.8-.477 1.46-1.36 2.794-2.132 4.115-1.157 1.655-2.156 3.034-3.86 4.18-1.472.436-3.091.913-4.607.43l-2.547-2.078z"/><path fill="#DCDCDB" d="M251.017 93.19l5.177.651c4.007.534 6.241 1.357 9.349 3.988 1.57 1.43 3.1 2.717 3.89 4.745-.588 2.21-1.529 3.366-3.546 4.529l-.212.112c-7.573 2.424-13.768-5.032-20.65-5.73 1.704-1.146 2.703-2.525 3.86-4.18.772-1.321 1.655-2.654 2.132-4.115z"/><path fill="#E73814" d="M123.308 300.715c17.987-2.127 23.846 25.042 4.872 28.887-7.477 1.099-15.638-3.498-16.829-11.327l-.052-.37c-1.237-8.07 3.953-15.728 12.01-17.19z"/><path fill="#664A38" d="M130.944 194.72l5.244-7.078c1.21-1.589 2.587-3.799 4.317-4.841.135 1.96 1.279 2.339 2.693 3.653l25.246 22.308c2.734 2.252 5.514 4.675 8.605 6.412l-9.274 11.557-36.83-32.012z"/><path fill="#DCDCDB" d="M260.922 232.756c-1.878.911-3.684 2.012-5.613 2.807-9.488 3.91-19.394.43-25.45-7.704-15.25-20.48 10.987-53.084 33.742-27.894 1.314 1.455 2.415 3.152 3.546 4.753l-6.225 28.038z"/><path fill="#E73814" d="M194.525 243.246c23.736-1.895 38.665 27.347 24.487 45.272-5.176 6.544-12.147 9.882-20.297 10.802-36.494 2.242-42.174-51.464-4.19-56.074zm-9.834-37.868c-2.35-2.28-5.323-4.201-7.924-6.209l-23.082-19.493c-1.671-1.551-3.396-3.465-5.515-4.368l-.275-.113c3.234-5.018 6.434-10.135 9.188-15.433 2.316-4.455 4.208-9.147 6.949-13.372 9.357-14.427 28.997-23.555 45.603-17.307l1.753.858c15.296 9.865 14.401 31.13 5.279 44.878-8.063 12.152-24.16 18.189-31.127 29.912l-.849.647z"/><path fill="#DCDCDB" d="M136.252 63.868l.538-.94c.56-1.055 1.696-1.835 2.68-2.469l.312-.204c6.485-4.174 9.76-6.295 17.423-6.348l52.88-.018c3.001.003 6.566-.555 9.446.418l1.386.417c3.477.966 11.536 8.13 13.86 11.381l.127-.714c.747 2.44-.388 5.837-1.005 8.178l-2.424 9.186c-1.076 4.624-1.444 9.88-3.283 14.248-4.732 11.241-10.805 13.247-22.17 13.251l-49.837.02c-5.967-.168-13.132-6.472-15.036-12.13-.565-1.677-.63-3.593-.805-5.353l-2.878-19.354c-.578-3.054-1.342-6.453-1.214-9.569zm-5.308 130.852l36.83 32.01c-3.397 4.478-7.312 8.71-10.97 12.983l-42.903 49.56c-2.73 3.136-5.414 6.58-8.546 9.327-7.082 6.211-19.095 8.857-24.59 14.376-3.532 2.573-7.959 5.021-12.229 6.075-3.172-5.377-7.473-8.302-13.495-10.184l.474-.156c.318-2.846 1.29-5.72 2.156-8.442l2.562-8.341c2.071-6.745 3.756-13.647 6.318-20.231 3.805-9.781 12.043-14.605 16.363-22.392l.141-.259c1.664-1.216 3.104-3.553 4.426-5.18l33.673-38.293c3.277-3.577 6.291-7.501 9.79-10.854z"/></svg>