<svg xmlns="http://www.w3.org/2000/svg" viewBox="0 0 436 436"><path fill="#FECC02" d="m154 74 14-1h110l4 1c6 3 18 15 22 19 6 3 11 8 17 10l9 3 16 5c41 17 54 69 28 104l-20 26-88 108c-16 19-33 45-61 33-10-4-17-12-24-21l-74-90-23-28c-11-14-23-26-30-42-17-41 9-87 52-94 2-4 9-5 12-5l14-8c1-3 6-7 8-8l14-12z"/><path fill="#FEFEDD" d="M271 142c4 2 8 3 12 2h4l-5 5-7 4-5 3 1-7v-7z"/><path fill="#FBFBEA" d="M271 149v-1l1-3 1 1h2v2c2 0 1 1 2 2l-2 3-5 3 1-7z"/><path fill="#888367" d="M215 238h7v17c-6 2-5 1-8-4l1-13z"/><path fill="#E93B14" d="M118 102c5 3 7 6 8 12 1 11-19 13-20-2v-5c2-4 9-5 12-5zm180 30h14c4 2 8 6 9 12 6 23-29 28-33 7l-1-3-1 2-4-1 5-5h-4l8-6h1c2-3 3-5 6-6z"/><path fill="#FEE711" d="m283 144 8-6h1c-4 4-5 5-5 10l-1 2-4-1 5-5h-4z"/><path fill="#A8FEFD" d="M209 193c7-2 13-2 20 0 5 4 9 9 12 15 2 14-6 25-19 30h-7c-15-6-22-15-19-31 3-6 8-11 13-14z"/><path fill="#0DCFD7" d="M218 202c14-1 15 21 1 23-15-1-17-21-1-23z"/><path fill="#E93B14" d="M196 207c-11 0-22-3-25-14l-4 1c-7 2-15 0-20-6-11-12 4-29 17-27 7 1 12 7 17 13l2-1c13-3 25 4 26 17v3c-5 3-10 8-13 14zm33-14c-4-15 14-24 27-20 4-6 8-10 15-12 22-4 32 27 9 33-4 1-10 0-13-1-6 12-13 14-26 15-3-6-7-11-12-15zm-15 58c3 5 2 6 8 4 8-2 16-5 25-3 21 5 31 29 27 48l-1 5c-5 18-19 31-30 45l-14 17c-6 6-12 8-20 1l-15-18c-17-20-39-43-30-73 6-18 22-28 41-25l9 3v-4z"/><path fill="#E93B14" d="m154 74 14-1h110l4 1c6 3 18 15 22 19 6 3 11 8 17 10l9 3v5c1 7-5 13-12 12l-4 7-3 1 1 1h-14c-3 1-4 3-6 6h-1l-8 6c-4 1-8 0-12-2l-2-2c2 4 2 8 1 13-5 13-24 16-34 3-1 25-35 22-35 0-9 14-27 10-35-3l-4-3c-4-2-8-1-12 0h-1c-1 3-1 6-3 8-5 7-16 9-23 4-8-5-11-16-5-24 5-7 17-10 25-4-4-7-4-12 0-19l-2 1c-5-1-9-9-9-13v-9c1-3 6-7 8-8l14-12z"/><path fill="#DBDADA" d="m163 143 8-7c-4 5-7 11-5 17l-4-3-1-1 1-1h1c3-2 1-3 0-2l-1-1 1-2z"/><path fill="#FBFBEA" d="M149 150v-9l3 2c3 1 7 2 11 0l-1 2 1 1c1-1 3 0 0 2h-1l-1 1 1 1c-4-2-8-1-12 0h-1z"/><path fill="#FECC02" d="M291 138c2-3 4-4 5-8v-9c0-3-1-4-3-6l5-1c0 2 5 5 5 6l-1 2-4 10c-3 1-4 3-6 6h-1z"/><path fill="#FEE711" d="M304 93c6 3 11 8 17 10l9 3v5c1 7-5 13-12 12l-4 7-3 1 1 1h-14l4-10 1-2c0-1-5-4-5-6 7-5 6-13 6-21z"/><path fill="#FFB301" d="m298 132 4-10 1-2 8 11 1 1h-14z"/><path fill="#E93B14" d="M318 123c-11-4-10-17 0-20h3l9 3v5c1 7-5 13-12 12z"/><path fill="#DBDADA" d="m154 74 14-1h110l4 1-4 11-3 10v1c-1 4 1 8 2 12-12 1-20 16-14 26-11-10-26 0-29 14-4-8-17-11-25-7l-7 7c-2-9-5-15-15-17-4-1-9 0-12 1 3-9-5-21-14-24h-2c8-11-1-24-5-34z"/></svg>