<svg xmlns="http://www.w3.org/2000/svg" viewBox="0 0 436 436"><path fill="#E63714" d="M133 96V76c-1-17 1-21-19-21H96c-4 0-8-5-4-8l6-1h20c12 0 22 3 23 18v11l2 18v3l-10 2v-2z"/><path fill="#FFC990" d="M143 93v3l-10 2v-2h8c2 0 2-1 2-3z"/><path fill="#DEDDDD" d="M65 148v-5c3-27 26-46 53-47h15v15l1 4v25l1 7-70 1z"/><path fill="#DEDDDD" d="M143 96h27c26 3 45 26 47 52h-74l-7-1h-1l-1-7v-25l-1-4V98l10-1v-1z"/><path fill="#E63714" d="m133 98 10-1v51l-7-1h-1l-1-7v-25l-1-4V98z"/><path fill="#DEDDDD" d="M220 162c3-35 23-65 60-73 12-3 26-3 38 1 33 9 56 39 56 73H226l-6-1z"/><path fill="#E63714" d="m220 162 6 1h148l-1 10-23 170c-1 11-6 14-16 18-21 9-54 9-75 0-15-7-14-12-16-26l-20-150c-1-8-3-15-3-23zm47 80c-11 3-9 19 3 17 11-3 10-17-3-17zm12 57c-11 3-9 17 2 17 11-3 8-17-2-17z"/><path fill="#33C9FD" d="M329 299c7 1 7 10 0 12-8 1-7-10 0-12z"/><path fill="#DEDDDD" d="M263 185c20-2 25 28 4 32-21 2-24-28-4-32z"/><path fill="#D3FBC6" d="M325 194c20-1 24 30 1 33-22 0-23-31-1-33zm-1 48c23-2 30 33 5 38-24 3-30-34-5-38z"/><path fill="#FECB01" d="m135 148 1-1 7 1v-1l18 1h56v14l-4 50-13 127-1 8c-3 14-35 20-47 20h-11c-12 0-22-1-34-5-21-7-22-11-23-30l-10-90-8-83c-1-3-2-7-1-11h70z"/><path fill="#82882F" d="m136 147 7 1v37l1 12v13c-1 1-1 2-3 2l-4-1v-14l-1-50z"/><path fill="#D6B101" d="m143 147 18 1h44c-2 12-20 18-31 18-7 0-9 0-16 2l-11 5c-1 0-4 0-4 2v-28zm-8 1 1-1 1 50v-3l-2-6c-3-5-7-10-12-14-12-12-22-14-41-14H72l-6-1c-1-3-2-7-1-11h70z"/><path fill="#E63714" d="M144 210c11-8 27 3 29 14v1c2 15-18 39-32 44-13-6-36-32-30-47 5-12 15-15 26-11l4 1c2 0 2-1 3-2z"/></svg>