<svg xmlns="http://www.w3.org/2000/svg" width="436" height="436"><path fill="#FECC02" d="M153.82 74.064l.617-.56c4.183-.684 8.85-.248 13.098-.243l110.02.003c1.56.025 3.189-.036 4.64.609 5.553 3.53 17.94 14.765 22.191 19.271 5.35 3.321 10.535 7.358 16.56 9.423 3.238.625 5.808 1.406 8.671 3.078 5.251 2.078 10.814 3.251 16.057 5.376 41.247 16.717 54.057 68.614 28.651 104.418-6.258 8.82-13.744 16.812-20.458 25.29l-88.118 107.966c-15.316 18.87-32.255 45.112-60.686 33.622-10.221-4.132-17.015-12.761-23.842-20.977l-74.656-90.523-22.437-28.289c-10.81-13.263-23.428-25.785-30.095-41.822-16.83-40.478 8.689-86.995 52.177-94.145 1.826-3.866 8.422-4.68 12.153-5.047 4.906-1.167 9.828-4.242 13.334-7.807.898-2.38 6.723-6.4 8.67-8.076l13.454-11.567z"/><path fill="#FEFEDD" d="M270.982 141.9c3.851 1.811 8.157 2.822 12.36 1.842l.18.08c1.052.43 2.116.262 3.22.173-1.073 2.041-2.415 3.431-4.398 4.615l-7.716 4.198-4.629 2.76 1.178-7.03c-.091-2.175-.533-4.5-.195-6.639z"/><path fill="#FBFBEA" d="M271.177 148.537l.1-.418c.18-.83-.187-2.44.422-2.9l.348.166c.203.268.31.303.61.417l1.853.696c.678.271 1.008.066.65.903l.159.268c1.48.368 1.139 1.765 2.02 2.447-.784.98-1.848 1.75-2.711 2.692l-4.629 2.76 1.178-7.03z"/><path fill="#888367" d="M214.666 237.77c2.427.423 5.35.396 7.592-.147.895 4.574-.523 12.332-.365 17.367-6.148 2.189-5.055 1.112-7.556-3.853l-.166-.32c-.193-2.57-.58-10.75.495-13.046z"/><path fill="#E93B14" d="M118.363 101.514c4.202 3.503 7.03 6.39 7.57 12.303 1.053 11.522-19.432 13.375-20.275-1.596-.102-1.82.362-3.836.552-5.66 1.826-3.866 8.422-4.68 12.153-5.047zm180.134 30.561c4.513-1.212 8.435-1.563 13.015-.41 4.6 2.773 8.367 6.813 9.703 12.111 5.89 23.354-29.02 28.563-33.378 6.97l-.414-3.152-.125.136c-.534.61-.654 1.131-.8 1.912l-.32.283c-1.324-.477-2.446-.992-3.834-1.315 1.983-1.184 3.325-2.574 4.397-4.615-1.103.089-2.167.257-3.22-.173l-.18-.08c3.207-1.402 5.295-3.665 7.756-6.071l.434.095c2.41-2.268 3.738-4.42 6.966-5.69z"/><path fill="#FEE711" d="M283.342 143.742c3.206-1.402 5.294-3.665 7.755-6.071l.434.095c-3.148 3.866-4.14 4.776-4.108 9.828l-.125.136c-.534.61-.654 1.131-.8 1.912l-.32.283c-1.324-.477-2.446-.992-3.834-1.315 1.983-1.184 3.325-2.574 4.397-4.615-1.103.089-2.167.257-3.22-.173l-.18-.08z"/><path fill="#A8FEFD" d="M208.632 192.762c7.268-2.082 13.137-2.207 20.087.55 5.256 4.027 9.073 8.504 11.816 14.564 2.342 14.053-5.281 24.906-18.277 29.747-2.241.543-5.165.57-7.44.148-14.742-5.418-21.773-14.982-18.603-30.976 2.729-5.38 7.474-10.599 12.417-14.033z"/><path fill="#0DCFD7" d="M218.117 202.354c14.299-1.028 15.195 21.097.703 22.336-14.618-.202-16.436-20.426-.703-22.336z"/><path fill="#E93B14" d="M196.215 206.795c-11.112.358-21.75-2.334-25.596-13.867-1.193.352-2.292.966-3.49 1.322-6.738 2.007-15.43-.624-19.954-5.89-10.722-12.48 3.687-29.352 16.738-27.682 7.444.952 12.37 7.58 16.593 13.145.928.029 2.027-.366 2.942-.571 12.447-2.789 24.253 4.02 25.184 17.108v2.402c-4.943 3.434-9.688 8.652-12.417 14.033zm32.505-13.484c-3.42-15.58 13.922-24.315 27.536-20.427 3.7-5.485 7.6-10.376 14.485-11.675 21.974-4.146 32.125 27.088 9.156 32.992l-.386.103c-3.884.98-9.295.06-12.842-1.737-5.458 12.09-13 13.958-26.134 15.309-2.743-6.06-6.56-10.537-11.816-14.565zm-14.549 57.505l.166.321c2.501 4.965 1.408 6.042 7.556 3.853 8.487-2.485 16.318-4.749 25.206-2.7 20.5 4.725 31.141 28.918 26.458 48.118l-.95 4.098c-5.089 18.282-18.162 31.585-30.026 45.682-4.616 5.485-8.804 11.4-13.768 16.576-6.28 6.549-12.149 7.939-19.61 1.158-5.684-5.167-10.35-11.772-15.207-17.713-16.734-20.464-39.104-43.497-29.8-72.778 5.797-18.24 22-28.647 40.996-25.265 2.986.532 5.934 1.59 8.815 2.52l.164-3.87z"/><path fill="#E93B14" d="M153.82 74.064l.617-.56c4.183-.684 8.85-.248 13.098-.243l110.02.003c1.56.025 3.189-.036 4.64.609 5.553 3.53 17.94 14.765 22.191 19.271 5.35 3.321 10.535 7.358 16.56 9.423 3.238.625 5.808 1.406 8.671 3.078.285 1.821.785 3.534.828 5.398.161 7.08-5.226 13.098-12.353 11.85l-.164-.026c-.32 1.691-2.476 6.392-4.212 7.25l-2.22.634.016.915c-4.58-1.154-8.502-.803-13.015.41-3.228 1.27-4.556 3.422-6.966 5.69l-.434-.095c-2.46 2.406-4.549 4.669-7.755 6.07-4.203.98-8.509-.03-12.335-1.842l-2.377-1.971c1.956 3.937 2.807 8.357 1.305 12.683-4.506 12.971-24.348 16.798-33.775 3.372-1.153 25.238-35.57 21.718-35.381-.339l-.152.258c-8.223 13.734-26.477 10.238-34.19-3.079l-.17.088c-1.298-.422-3.043-2.259-4.184-3.151-3.73-1.87-8.11-.882-11.912.416l-1.008-.043c-.892 2.68-1.615 5.378-3.128 7.801-4.598 7.37-15.936 9.166-23.033 4.549-8.034-5.228-10.785-16.22-5.176-24.211 5.285-7.527 17.259-10.085 24.804-4.577-3.658-6.417-3.34-11.534-.06-18.277-.481-.055-.724.067-1.184.212-5.053-.913-8.97-8.593-9.495-13.061-.338-2.878-.144-5.963-.145-8.862.85-2.38 6.674-6.4 8.62-8.076l13.455-11.567z"/><path fill="#DBDADA" d="M162.942 142.97l7.57-6.992c-3.71 4.624-6.45 10.904-4.075 16.845l-.17.088c-1.298-.422-3.043-2.259-4.184-3.151-.26-.502-.695-.872-1.19-1.138l-.217-.103c.485-.366.675-.133 1.151-.32.185-.072.605-.543.852-.69l.32.051c2.87-1.22 1.027-2.586.229-2.039l-.902-1.01c.102-.578.358-1.021.616-1.542z"/><path fill="#FBFBEA" d="M149.163 150.133c.668-2.897.335-5.855-.397-8.7l2.947 1.412c3.559 1.284 7.764 1.808 11.229.124-.258.52-.514.964-.616 1.542l.902 1.01c.798-.547 2.64.818-.23 2.04l-.32-.052c-.246.147-.666.618-.851.69-.476.187-.666-.046-1.15.32l.215.103c.496.266.93.636 1.191 1.138-3.73-1.87-8.11-.882-11.912.416l-1.008-.043z"/><path fill="#FECC02" d="M291.097 137.67c1.748-2.802 4.255-3.66 5.077-7.205l.081-.364c.65-2.786.8-6.246.059-9.026l-.097-.343c-.64-2.327-1.574-4.022-3.083-5.874 1.816-.144 2.811-.137 4.546-.866.525 1.683 5.557 5.274 5.335 6.134-.663.267-.949.921-1.237 1.564l-3.281 10.385c-3.228 1.272-4.556 3.423-6.966 5.69l-.434-.094z"/><path fill="#FEE711" d="M304.386 93.144c5.35 3.321 10.535 7.358 16.56 9.423 3.238.625 5.808 1.406 8.671 3.078.285 1.821.785 3.534.828 5.398.161 7.08-5.226 13.098-12.353 11.85l-.164-.026c-.32 1.691-2.476 6.392-4.212 7.25l-2.22.634.016.915c-4.58-1.154-8.502-.803-13.015.41l3.28-10.386c.289-.643.575-1.297 1.238-1.564.222-.86-4.81-4.451-5.335-6.134 7.287-4.565 6.607-13.276 6.702-20.656l.004-.192z"/><path fill="#FFB301" d="M298.497 132.075l3.28-10.385c.289-.643.575-1.297 1.238-1.564l8.481 10.625.016.915c-4.58-1.154-8.502-.803-13.015.41z"/><path fill="#E93B14" d="M317.928 122.867l-.25-.075c-10.885-3.56-9.886-16.753.635-19.539.869-.23 1.613-.209 2.455-.6l.178-.086c3.238.625 5.808 1.406 8.671 3.078.285 1.821.785 3.534.828 5.398.161 7.08-5.226 13.098-12.353 11.85l-.164-.026z"/><path fill="#DBDADA" d="M153.82 74.064l.617-.56c4.183-.684 8.85-.248 13.098-.243l110.02.003c1.56.025 3.189-.036 4.64.609l-4.352 11.16c-1.24 3.406-2.464 6.866-2.982 10.466l-.054.365c-.59 4.242.735 8.353 2.66 12.069-12.203 1.384-20.75 15.591-14.29 26.425-11.263-10.57-25.827-.421-28.695 13.648l-.126-.223c-4.682-8.088-17.12-11.079-25.081-6.363-2.771 1.642-4.984 4.16-7.23 6.427-1.86-8.681-5.417-14.927-15.198-17.117l-.32-.074c-3.857-.822-8.042.418-11.696 1.579l.082-.256c2.78-9.021-4.783-21.275-13.618-23.8l-2.524-.473c8.016-10.426-1.119-23.767-4.95-33.642z"/></svg>