<svg xmlns="http://www.w3.org/2000/svg" width="436" height="436"><path fill="#E73714" d="M291.337 82.352c-4.622-6.802-2.664-14.826 5.807-17.2l.247-.073c3.114-.875 6.25.352 8.89 1.903l45.504 25.353c18.194 10.247 31.46 25.699 33.179 47.486.289 3.66.037 7.478.007 11.154l-.045 6.814c-.015 1.777.184 3.757-.629 5.378-3.648 7.282-10.95 10.663-18.47 6.65-3.98-2.124-6.373-5.617-9.55-8.64-1.453-2.627-3.943-5.003-5.847-7.327l-53.696-65.395c-1.734-2.084-3.403-4.258-5.397-6.103zM80.382 161.53c-3.569 3.622-7.73 8.442-12.734 9.898-7.126 2.074-14.084-3.304-15.77-10.137-1.104-4.47-.892-15.71-.524-20.601 1.978-26.254 17.549-39.8 38.507-51.405l33.845-18.907c5.578-3.21 12.395-8.114 18.814-4.054 5.506 3.482 6.173 10.787 2.726 15.85-2.817 2.188-5.246 5.8-7.536 8.548l-52.977 64.844c-1.476 1.84-3.318 3.839-4.351 5.963z"/><path fill="#FECC02" d="M291.337 82.353c1.994 1.844 3.663 4.018 5.397 6.102l53.696 65.395c1.904 2.324 4.394 4.7 5.848 7.327-.669 2.801-.44 5.92-.445 8.758l-.023 103.026c-.004 7.285.14 15.44-1.836 22.506-2.051-3.035-6.252-5.318-9.231-7.47l-28.97-20.09c-3.271-2.44-6.13-5.22-9.018-8.09l.198-.14c.318.274.566.495.944.685l.108-.32c-1.389-1.372-2.389-3.15-3.642-4.673l-10.525-12.555c-1.976-2.281-3.92-4.696-6.153-6.733-6.023-7.219-29.015-28.372-36.458-31.489-2.434-8.78-3.906-17.828-5.922-26.71l-17.19-80.731c-.92-4.819-2.031-9.623-2.43-14.521 1.846-.024 3.986-.256 5.862-.258l59.79-.019z"/><path fill="#393544" d="M292.68 164.448l.236-.033c22.417-2.382 27.62 36.372 2.472 38.534-24.676.143-28.957-34.177-2.709-38.5z"/><path fill="#DDD" d="M293.03 172.539c8.697.46 8.249 8.64 1.038 10.366-7.787.265-9.388-8.862-1.037-10.366z"/><path fill="#FECC02" d="M145.246 82.173l65.797.182c.288.93-.331 2.296-.532 3.157l-9.046 48.53-11.586 56.36c-1.05 4.72-2.134 9.85-3.914 14.352l-.01.018c-13.568 8.292-23.3 17.306-34.477 28.368-3.774 3.734-7.825 7.405-11.186 11.515-4.989 6.101-8.585 13.926-14.49 19.149-4.579 4.05-10.133 6.898-15.244 10.195-6.86 4.425-22.402 15.54-28.128 21.456-2.026-9.08-1.775-18.286-1.78-27.52l-.057-106.406c.822-2.124 2.664-4.123 4.14-5.963l52.977-64.844c2.29-2.747 4.719-6.36 7.536-8.549z"/><path fill="#393544" d="M140.667 164.428c24.466-2.237 29.684 33.78 5.393 38.271-24.215 4.443-31.238-33.525-5.393-38.271z"/><path fill="#DDD" d="M141.988 172.928c9.214-.617 9.947 6.658 2.917 9.673-7.882 1.83-10.539-7.99-2.917-9.673zm69.055-90.477l14.641-.096c.4 5.173 1.512 9.977 2.431 14.796l17.19 80.731c2.016 8.882 3.488 17.93 5.922 26.71 7.443 3.117 30.435 24.27 36.458 31.49 2.233 2.036 4.177 4.45 6.153 6.732l10.525 12.555c1.253 1.523 2.253 3.3 3.642 4.672l-.108.32c-.378-.19-.626-.41-.944-.683l-.198.139c2.888 2.87 5.747 5.65 9.019 8.09l28.969 20.09c2.979 2.152 7.18 4.435 9.231 7.47-6.342 37.355-34.687 66.976-72.42 73.534-10.138 1.761-20.228 1.483-30.465 1.486l-66.851-.022c-6.349-.004-12.823.248-19.156-.115-41.258-2.371-75.603-34.192-82.652-74.895 5.726-5.916 21.267-17.03 28.128-21.456 5.111-3.297 10.665-6.146 15.245-10.195 5.904-5.223 9.5-13.048 14.49-19.149 3.36-4.11 7.411-7.781 11.185-11.515 11.178-11.062 20.909-20.076 34.477-28.368l.01-.018c1.78-4.503 2.864-9.631 3.914-14.353l11.586-56.358 9.046-48.53c.2-.862.82-2.228.532-3.062z"/><path fill="#63666D" d="M215.78 279.918l4.743-.154c.092 4.029.512 36.95-.3 37.99-1.445-.096-2.432.157-3.447.818-1.08-3.485-1.057-7.5-1.066-11.099l-.014-10.376c-.004-5.696-.231-11.5.083-17.18z"/><path fill="#393544" d="M191.188 237.694c7.538-6.602 22.764-8.556 32.208-7.914l1.352.141c7.298.859 16.703 3.177 21.575 9.21l.381.49c8.59 12.435-12.314 37.84-26.181 40.095l-4.652.126c-13.223-3.37-37.617-29.22-24.683-42.148z"/><path fill="#63666D" d="M191.188 237.694c7.538-6.602 22.764-8.556 32.208-7.914l1.352.141c7.298.859 16.703 3.177 21.575 9.21l.381.49c-8.706 13.352-48.403 14.222-54.642.71-.347-.75-.465-1.568-.757-2.336l-.117-.301z"/><path fill="#E73714" d="M251.227 204.592c7.443 3.117 30.435 24.27 36.458 31.49 2.233 2.036 4.177 4.45 6.153 6.732l10.525 12.555c1.253 1.523 2.253 3.3 3.642 4.672l-.108.32c-.378-.19-.626-.41-.944-.683l-.198.139c2.888 2.87 5.747 5.65 9.019 8.09l28.969 20.09c2.979 2.152 7.18 4.435 9.231 7.47-6.342 37.355-34.687 66.976-72.42 73.534-10.138 1.761-20.228 1.483-30.465 1.486l-66.851-.022c-6.349-.004-12.823.248-19.156-.115-41.258-2.371-75.603-34.192-82.652-74.895 5.726-5.916 21.267-17.03 28.128-21.456 5.111-3.297 10.665-6.146 15.245-10.195 5.904-5.223 9.5-13.048 14.49-19.149 3.36-4.11 7.411-7.781 11.185-11.515 11.178-11.062 20.909-20.076 34.477-28.368l-.086.243c-1.19 3.285-3 6.479-4.453 9.668l-8.468 17.617c-3.355 6.18-7.28 12.186-11.526 17.789l-11.517 14.05c-5.515 6.308-11.92 11.697-14.802 19.822-5.373 15.139 4.086 31.944 13.568 43.334 19.13 22.978 43.755 24.722 63.206-.56 1.832-2.383 3.715-5.117 4.817-7.93l.082-.233c1.015-.661 2.002-.914 3.208-.819l.048.362c.239 1.37 1.272 2.978 1.996 4.164 8.702 14.254 23.326 25.463 40.821 22.062 23.137-4.499 50.219-43.095 36.25-65.205-4.456-7.053-10.656-12.805-15.965-19.195-10-12.04-28.809-39.371-31.907-55.349z"/><path fill="#FD8200" d="M306.755 259.817c-.462-.226-.922-.839-1.284-1.21l-12.54-13.89c-2.9-3.155-6.141-6.172-8.845-9.476.914.434 2.47 1.4 3.44 1.431l.159-.59c2.233 2.036 4.177 4.45 6.153 6.732l10.525 12.555c1.253 1.523 2.253 3.3 3.642 4.672l-.108.32c-.378-.19-.626-.41-.944-.683l-.198.139z"/></svg>