<svg xmlns="http://www.w3.org/2000/svg" viewBox="0 0 436 436"><path fill="#DDDCDC" d="M160 99V89c0-3-1-8 1-11l1-6c4-8 11-14 19-17-1 3-1 6 1 9-12 5-14 15-14 26v8l-8 1zm96-44c6 1 11 5 14 9 7 9 8 23 6 34l1 1h-9v-4c0-11 1-21-9-28l-4-3c1-4 2-5 1-9z"/><path fill="#303139" d="m291 360 8-1c8 0 16 0 24-2l6-1v3c-3 19-32 23-38 2v-1zm-184-5 5 1 6 2 28 1v2c-2 9-12 16-22 14-12-2-15-10-17-20zm74-300c1-3 3-4 5-5h1l5-1h56c4 0 7 3 8 6 1 4 0 5-1 9-5 5-8 4-15 4h-53l-1-1-4-3c-2-3-2-6-1-9z"/><path fill="#FECD03" d="M330 100c12 4 24 12 30 23 6 10 6 18 6 30v151c0 28-12 40-36 51v-13l1-231-1-11zM107 354h-1c-13-5-25-13-31-26-6-12-5-24-5-37V145c0-21 17-39 37-45l-1 18v230l1 6z"/><path fill="#E83813" d="M168 99h154l8 1v255l-1 1-6 1c-8 2-16 2-24 2h-8l-142 1h-3v-1l-28-1-6-2-5-1v-1l-1-6V100h1l9-1h41l3-1 8 1z"/><path fill="#DDDCDC" d="M168 99h107v68c8-2 17-2 19 8v9c-1 7-6 12-10 18l-12 14-3 3 3 12 18 66c2 7 3 8-2 14-14 17-17 8-26-6l-22-35-11-17-7 6-21 17-13 8-3 3 5 24c1 6 3 8-1 13-3 6-12 17-17 8l-5-10c-1-3-8-14-6-16h-1l-4 2c-8-3-3-9-6-12l-6-5-22-15c-4-3-10-5-8-11 2-3 11-12 15-13h4l32 18 26-31-62-35c-13-6-18-7-5-20 6-5 6-8 13-6l23 6V98h-2 2l8 1z"/><path fill="#E83813" d="M201 195v-12l-1-34 36 42-6 5-5 4-24-5z"/><path fill="#FECD03" d="M168 99h107v68c-4 1-5 1-9-1l-45-32c-9-7-11-11-20-4-11 9-10 10-1 19l1 34v12l-41-11V98h-2 2l8 1z"/></svg>