<svg xmlns="http://www.w3.org/2000/svg" viewBox="0 0 436 436"><path fill="#4A4A4A" d="M305 326h39c4 5 6 17 8 24l2 6c1 6 0 7-6 7h-11c-10 0-10-3-16-12l-8-13-8-12zm-212-1h40l-4 6-18 27-4 5H90c-4 0-6 1-8-4l3-10 4-13 4-11z"/><path fill="#FEC802" d="m73 308-2-16-16-82c-1-6-3-12-2-18 1-18 18-29 35-26l7 1v-18c2-32 18-60 51-68 10-2 21-2 31-2h96c34 0 65 27 68 62v15l1 11c6-3 17-2 23 0 18 7 20 22 17 38l-17 91-2 14c0 13-8 14-19 16h-39c-1-2-4-1-5-1H93c-13-1-20-1-20-17z"/><path fill="#E53913" d="M218 165c19 1 19 27 1 28-20 0-19-26-1-28zm-1-44c18-2 22 25 3 27-19 1-21-25-3-27zm54 45c18-2 22 23 4 27-18 3-24-24-4-27zm2-45c15-2 22 25 1 27-18 1-22-24-1-27zm-110 45c6-1 12 3 14 8v1c4 9-2 17-12 18-18 2-22-24-2-27zm1-45c16 1 22 24 1 28-19 0-22-26-1-28zM73 308c10-10 19-22 28-34l12-17c10-12 20-23 36-27l6-1 9-1h110l7 1 6 1c21 4 32 21 44 37l27 37 5 6c0 13-8 14-19 16h-39c-1-2-4-1-5-1H93c-13-1-20-1-20-17z"/></svg>