<svg xmlns="http://www.w3.org/2000/svg" width="436" height="436"><path fill="#DDDCDC" d="M159.893 98.518l.046-9.342c.001-3.552-.492-8.21.62-11.64l1.654-5.14c3.298-7.977 10.368-14.514 18.294-17.815-.631 3.679-.29 6.047 1.09 9.504-11.452 4.458-13.14 14.73-13.244 25.558l-.026 8.741-8.434.134zm96.073-43.405c5.556.578 10.74 5.193 14.131 9.367 6.516 8.023 8.002 22.928 6.203 33.161-.07.398-.055.244-.006.676l.637.234-1.741-.018-7.322.011c.357-.834.086-2.94.084-3.896-.024-10.58.876-20.569-8.46-27.923-1.455-1.146-3.052-2.065-4.52-3.184 1.04-3.22 1.793-4.966.994-8.428z"/><path fill="#303139" d="M290.887 359.56c2.354-.802 5.233-.56 7.675-.565 8.473-.016 16.482.136 24.795-1.855 1.949-.466 3.846-1.238 5.84-1.476l.259-.027-.598 3.075c-3.227 19.69-31.555 23.641-37.596 2.37l-.375-1.523zm-183.832-4.964l.207.042c1.794.377 3.45 1.177 5.165 1.796l5.557 1.698c5.103 1.343 26.299.18 27.604 1.358l.116.336-.091.68c-1.6 9.172-11.951 16.71-21.165 14.974l-.31-.063c-12.097-2.262-15.378-10.408-17.083-20.82zM180.507 54.58c1.6-2.111 3.178-3.752 5.7-4.719l.342-.136c1.569-.573 3.554-.445 5.21-.465l56.41-.054c3.354.153 6.528 2.941 7.797 5.907.8 3.462.045 5.208-.995 8.428-4.707 5.786-8.199 4.781-14.87 4.785l-50.585-.033c-1.047-.054-1.873-.323-2.837-.715l-.324-.126c-1.666-.668-3.624-1.958-4.758-3.367-1.38-3.457-1.721-5.825-1.09-9.504z"/><path fill="#FECD03" d="M330.475 100.165c11.951 3.354 23.227 11.631 29.368 22.514 5.774 10.233 6.319 18.82 6.343 30.093l.043 151.327c-.049 27.868-11.762 39.762-36.077 50.697.733-3.965.33-8.494.325-12.504l.023-230.898c.007-3.617.488-7.683-.025-11.229zM106.853 354.15l-.735-.246c-13.56-4.46-24.676-12.674-31.197-25.63-6.19-12.302-4.82-24.167-4.823-37.45l.063-145.483c.338-21.451 16.392-39.022 36.343-45.358-.644 6.035-.458 12.102-.456 18.158l.33 229.421c.114 2.18.148 4.43.475 6.588z"/><path fill="#E83813" d="M168.073 98.544H275.19l1.741.007 44.656.45c2.647.16 6.63-.358 8.89 1.164.51 3.546.03 7.612.023 11.23l-.023 230.897c.005 4.01.408 8.539-.157 12.504l-.864.841-.259.027c-1.994.238-3.891 1.01-5.84 1.476-8.313 1.99-16.322 1.839-24.795 1.855-2.442.005-5.32-.237-7.675.474l-142.298.377c-.881-.009-2.047-.168-2.885.022l-.116-.378c-1.305-1.178-22.501-.015-27.604-1.358l-5.557-1.698c-1.716-.619-3.371-1.419-5.165-1.796l-.207-.042-.155-.446c-.374-2.157-.408-4.409-.522-6.588l-.33-229.42c-.002-6.057-.188-12.124.379-18.159l.67-.184c2.718-.847 5.703-.748 8.525-.889l41.586-.367 2.685-.12 8.18.121z"/><path fill="#DDDCDC" d="M168.073 98.544H275.19l.229 60.705c.001 2.517.194 5.22-.079 7.712 8.133-1.73 16.473-1.754 18.95 7.642l.105.391c.673 2.647.478 5.787-.08 8.446l-.077.378c-1.415 6.769-5.926 12.581-10.173 17.851l-12.433 14.147c-.53.568-3.098 3.036-2.83 3.623 1.63 3.575 2.3 7.899 3.3 11.72l17.786 65.98c1.694 6.757 2.712 8.127-2.087 13.9-14.227 17.114-17.244 7.826-25.479-5.728l-22.575-35.529c-3.593-5.373-7.3-10.591-10.362-16.3-2.569 1.453-4.924 3.81-7.263 5.629L200.924 275.6l-12.946 8.899c-1.057.708-2.347 1.452-3.16 2.433l5.093 24.412c1.07 5.47 2.691 8.11-.464 13.119-3.308 5.254-12.063 16.589-17.656 7.406-1.914-3.143-3.188-6.872-4.745-10.219-1.295-2.783-7.808-13.932-6.26-15.776l-.433.055c-1.437 1.048-2.86 1.38-4.583 1.625-7.933-2.552-2.898-8.866-5.276-11.694-1.619-1.926-4.328-3.52-6.375-4.983l-22.1-14.971c-4.181-2.698-9.652-4.866-7.521-10.786 1.21-3.36 10.499-11.973 14.165-13.55 1.298-.56 2.8.283 4.042.813l32.74 17.735 25.375-30.822-62.169-34.923c-12.699-6.808-17.214-7.795-4.313-20.202 5.253-5.051 5.505-7.75 13.04-6.03l22.7 5.814-.156-85.472-2.37.004 2.341-.065 8.18.122z"/><path fill="#E83813" d="M200.999 194.633c.02-1.221-.128-2.608-.132-3.85l-.019-7.642c-.014-11.277.217-22.438-1.289-33.647l36.273 41.642-5.596 5.178c-1.505 1.351-2.995 2.851-4.794 3.803L201 194.633z"/><path fill="#FECD03" d="M168.073 98.544H275.19l.229 60.705c.001 2.517.194 5.22-.079 7.712-4.301 1.435-5.335 1.379-8.853-1.18l-45.155-31.55c-8.88-6.761-10.882-11.326-20.433-4.134-11.383 8.57-9.647 9.773-1.34 19.397 1.506 11.21 1.275 22.37 1.29 33.647l.018 7.643c.004 1.241.153 2.628.005 3.85l-40.794-10.679-.156-85.472-2.37.004 2.341-.065 8.18.122z"/></svg>