<svg xmlns="http://www.w3.org/2000/svg" width="436" height="436"><path fill="#1FAB49" d="M166.577 85.068c-2.447-6.868-2.94-14.577.262-21.285 4.453-9.328 11.225-14.12 21.109-9.268 8.66 4.251 4.084 10.648.163 16.726-2.98 4.617-5.9 9.26-8.193 14.264l-13.341-.437z"/><path fill="#E83612" d="M296.992 234.392l60.063.153c2.62.153 5.316.593 7.923.15l-19.758 90.433c-1.006 4.787-1.87 9.655-3.888 14.147-4.243 9.444-13.803 17.585-24.28 18.974-3.53.469-7.488.146-11.061.15l-44.445-.03c-4.561-.004-9.406.323-13.91-.337.714-.759 2.378-.858 3.334-1.063 27.144-5.838 48.43-31.378 55.673-57.365 6.286-22.544 1.719-45.083-9.65-65.212zM71.22 233.174c2.454.82 9.756 1.543 12.288 1.667l49.196.05c2.419.036 4.842.348 7.256.06-4.326 7.579-7.746 15.594-9.786 24.104l-1.563 8.33c-1.674 8.036-.458 18.98 1.174 27.25 5.389 27.302 29.146 55.56 56.57 63.224.676.188 1.564.307 2.13.699-6.238-.464-12.643-.182-18.9-.173l-43.232.004c-13.864.035-24.196-5.58-30.305-18.822-2.487-5.394-3.59-11.468-4.835-17.243l-19.993-89.15z"/><path fill="#DEDEDD" d="M199.723 194.684c12.15-1.796 21.293-2.172 33.805-1.175l12.4 3.134c22.6 6.6 33.69 16.058 47.878 33.36l3.186 4.39c11.37 20.128 15.937 42.667 9.651 65.211-7.244 25.987-28.53 51.527-55.673 57.365-.956.205-2.62.304-3.334.926-6.078.234-10.905.88-16.649 1.112l-13.418.08c-4.284.226-8.335 1.038-12.57 1.46l-4.97 1.002c-2.715-1.678-10.982-2.524-11.544-2.991-.566-.392-1.454-.51-2.13-.7-27.424-7.662-51.181-35.921-56.57-63.224-1.632-8.27-2.848-19.213-1.174-27.249l1.563-8.33c2.04-8.51 5.46-16.525 9.786-24.105l3.387-4.916c18.156-21.596 30.061-28.871 56.376-35.35z"/><path fill="#FEFEFE" d="M209.256 329.955c3.66-2.432 8.508-4.985 12.444-1.937-.192 8.428-7.902 3.5-11.75 2.232l-.694-.295z"/><path fill="#1FAB49" d="M215.092 249.384c-1.377-14.857-1.83-13.705-12.952-19.49-8.912-4.636-3.362-11.66.366-10.734 5.713 1.419 12.834 6.649 15.777 11.503.694-.49 1.288-1.853 1.874-2.553 3.21-3.836 8.3-7.447 12.911-9.172 4.377-1.638 6.676 3.192 5.778 6.806-1.487 5.993-12.623 3.317-15.128 14.122-.731 3.155-1.124 6.36-1.956 9.495-1.56 2.118-4.805 1.314-6.67.023z"/><path fill="#FECC02" d="M221.762 249.361c14.743-8.287 31.434-4.402 39.645 10.697 10.67 19.62 2.191 57.91-17.03 68.599-3.926 2.184-13.804 4.234-18.218 2.087l-4.46-2.726c-3.935-3.048-8.782-.495-12.443 1.937l-.579.272c-13.626 6.293-26.12-9.474-30.977-20.401-8.408-18.918-11.344-52.881 11.957-62.86 9.04-3.871 16.894-1.042 25.435 2.418 1.865 1.291 5.11 2.095 6.67-.023zm-9.375-142.349c5.369-6.877 11.484-13.11 18.962-17.705 34.802-21.384 85.25-.392 89.672 41.98l.156 3.893c7.401-.683 14.195-1.678 21.257 1.027 16.552 6.337 28.742 21.817 30.298 39.596.468 5.353.544 11.652-1.391 16.724 5.57 2.803 10.055 6.009 12.139 12.168 3.303 9.764-2.998 18.857-12.372 21.85l-4.266 1.02-.46 1.699-1.404 5.43c-2.607.444-5.302.004-7.923-.149l-60.063-.12-3.186-4.423c-14.188-17.3-25.279-26.76-47.877-33.36l-12.4-3.048c-12.513-1.082-21.656-.706-33.806 1.09-26.315 6.479-38.22 13.754-56.376 35.35l-3.387 4.916c-2.414.289-4.837-.023-7.256-.058l-49.196-.051c-2.532-.124-9.834-.847-12.288-1.667l-.775-2.984-.763-2.616-3.388-.688C49.996 222.734 47.32 202.3 63.58 193.09c-2.347-4.405-2.88-10.37-2.352-15.286 2.517-23.4 21.998-38.645 43.584-43.969 4.684-1.156 9.018-1.889 13.845-1.337 6.139-25.1 20.709-43.507 47.92-47.446l13.342.452c10.86 1.158 24.475 11.44 30.963 19.47l1.506 2.037zm0 0c-4.895 7.615-7.933 14.824-10.007 23.583 10.932-1.779 12.634 8.54 18.254 12.82 4.093 3.119 10.515 1.966 13.328-2.25 3.527-5.285 8.098-9.5 14.847-8.362l.357.057c8.084 1.358 7.7 7.478 11.141 10.432 2.214 1.9 7.389 2.16 10.008 1.35l.297-.089c3.024-.959 4.532-3.768 6.304-6.151 5.99-8.057 17.157-9.42 22.777-.137 1.025 1.693 1.96 3.668 3.396 5.05 5.148 4.95 13.798 2.554 16.852-3.62.688-1.388.932-3.007 1.236-4.515l-.156-3.893c-4.423-42.372-54.87-63.364-89.672-41.98-7.478 4.594-13.593 10.828-18.962 17.705z"/><path fill="#E83612" d="M233.528 193.594c2.96-1.183 8.837-1.196 12.3-1.276l120.578-.109c1.62-.003 3.367-.136 4.935.318 5.57 2.803 10.055 6.009 12.139 12.168 3.303 9.764-2.998 18.857-12.372 21.85l-4.266 1.02-.46 1.699-1.404 5.43c-2.607.444-5.302.004-7.923-.149l-60.063-.12-3.186-4.423c-14.188-17.3-25.279-26.76-47.877-33.36l-12.4-3.048z"/><path fill="#BC2F15" d="M293.806 230.002c3.024-.476 6.011-.437 9.061-.447l37.126-.047c6.835.01 13.782.27 20.603-.118 1.453-.082 4.605-1.121 5.786-.126l-1.404 5.43c-2.607.444-5.302.004-7.923-.149l-60.063-.12-3.186-4.423z"/><path fill="#E83612" d="M63.579 193.09c6.09-1.464 12.803-.829 19.054-.83l110.266.044c1.267.021 3.535-.136 4.646.488l.588.408c.654.441 1.129.843 1.59 1.484-26.315 6.479-38.22 13.754-56.376 35.35l-3.387 4.916c-2.414.289-4.837-.023-7.256-.058l-49.196-.051c-2.532-.124-9.834-.847-12.288-1.667l-.775-2.984-.763-2.616-3.388-.688C49.996 222.734 47.32 202.3 63.58 193.09z"/><path fill="#BC2F15" d="M70.445 230.19c.734-.57 1.346-.608 2.204-.634l61.067-.04c2.883-.036 6.996-.869 9.63.518l-3.386 4.916c-2.414.289-4.837-.023-7.256-.058l-49.196-.051c-2.532-.124-9.834-.847-12.288-1.667l-.775-2.984z"/><path fill="#E83612" d="M212.387 107.012c5.369-6.877 11.484-13.11 18.962-17.705 34.802-21.384 85.25-.392 89.672 41.98l.156 3.893c-.304 1.508-.548 3.127-1.236 4.516-3.054 6.173-11.704 8.57-16.852 3.619-1.437-1.382-2.371-3.357-3.396-5.05-5.62-9.283-16.787-7.92-22.777.137-1.772 2.383-3.28 5.192-6.304 6.151l-.297.089c-2.619.81-7.794.55-10.008-1.35-3.441-2.954-3.057-9.074-11.141-10.432l-.357-.057c-6.75-1.138-11.32 3.077-14.847 8.361-2.813 4.217-9.235 5.37-13.328 2.252-5.62-4.28-7.322-14.6-18.254-12.82 2.074-8.76 5.112-15.969 10.007-23.584zm47.775-7.698c-7.034.652-19.038 4.508-9.037 12.14 3.174 2.422 7.53 2.484 11.313 1.904l1.117-.192c3.788-.842 9.214-2.227 11.485-5.689 5.516-8.409-10.839-8.4-14.878-8.163zm27.134 8.473c-6.383 1.817-3.63 9.184 1.955 9.11 6.36-1.86 4.22-9.306-1.955-9.11z"/></svg>