<svg xmlns="http://www.w3.org/2000/svg" viewBox="0 0 436 436"><path fill="#4E312F" d="M299 341h44c0 7-4 16-11 16l-2 1c-13 6-27-3-31-17zm-206 0h44c-2 6-5 13-11 16-14 8-30 0-33-16z"/><path fill="#DDDCDC" d="m197 116 4-1-48-43-5-4c-6-9 9-18 15-7l2 5 8 7 37 33 7 6 9-7 35-34c3-4 4-4 5-8 2-7 11-11 15-3 3 5 0 10-5 11-4 2-3 1-5 5-1 3-4 6-7 8l-32 31-35 1z"/><path fill="#E93713" d="M197 116h147c13 2 24 12 26 25v172c0 16-11 26-27 28H91c-12-2-23-13-24-26l-1-10V150l1-10c4-15 15-24 31-24h99z"/><path fill="#DDDCDC" d="M328 213c13-1 15 16 2 18-13 1-15-16-2-18zm0-59c12-2 16 13 3 18-6 2-12-3-11-10 1-5 4-7 8-8zm0 30c13-1 15 16 2 18s-15-15-2-18z"/><path fill="#FECB02" d="M328 241c11-1 17 14 3 20-12 2-16-16-3-20z"/><path fill="#DDDCDC" d="M324 271c1-1 1-6 4-5 2 1 2 4 3 5 6 1 13 6 17 11 7 9 6 21 0 30-8 10-24 11-34 4-15-13-10-37 8-44l2-1z"/><path fill="#4E312F" d="M324 271c1-1 1-6 4-5 2 1 2 4 3 5v7l-1 4c-4 2-6 1-6-3v-8z"/><path fill="#FECB02" d="M109 135h154c13 0 15 8 20 18 8 18 11 29 12 49l1 33-1 8c-1 15-3 29-7 43-3 12-6 28-18 33l-4 2-3 1H112c-13 0-17-6-23-17-12-22-15-38-19-63l-1-6c-1-28 7-59 19-84 6-10 7-16 21-17z"/><path fill="#FEEA74" d="M180 254c2 0 3-2 5-1l-2 18v-5l-3-2-1 2c0-4 2-8 1-12z"/><path fill="#E93713" d="m186 245 22-8c1-1 26-12 19-2l-13 18-27 33-4 5c-5-5 0-15 0-20l2-18 1-8z"/><path fill="#DDDCDC" d="m180 254-5 2-37 17-19 7-1-2-3-5a87 87 0 0 1 7-104c17-18 42-29 67-29 23-1 44 12 59 29l7 7 1 4c-4 4-10 6-15 8l-31 15c-5 3-8 4-14 5l11-43c1-4 3-9-2-10-6-2-23 24-26 28l-31 41-3 6v1c-1 6 39 7 41 11v3l-1 8c-2-1-3 1-5 1z"/></svg>