<svg xmlns="http://www.w3.org/2000/svg" width="436" height="436"><path fill="#E63814" d="M300.247 240.029l41.702-.077c11.47-.017 23.373-3.75 26.694-16.193.161-.603.267-1.452.645-1.945l.172-.21.01 107.266c0 3.723.42 8.09-.232 11.733-2.654 14.824-13.82 21.306-27.698 21.347l-40.96.014-.333-121.935zM73.534 217.317l.885.335c1.018 7.45 4.052 13.128 10.126 17.732 7.152 5.421 12.65 4.604 21.102 4.602l32.555.008c1.574.008 3.385.2 4.93.03l.218-.046.195 121.984-44.266-.032c-15.496-.214-25.7-12.726-25.75-27.512l.005-117.101z"/><path fill="#DDD" d="M233.804 239.946c1.899-.049 22.665-.264 23.196.006l15.953-.004 27.528.026-.124 121.794c-4.682.593-9.99.245-14.932.24l-22.482-.108-2.537-.072-34.49.156c-.99.217-2.271.086-3.304.079l-34.606-.08h-44.412l-.183-121.766 30.91-.331 16.525.055 22.953.011 20.005-.006z"/><path fill="#C1C0C0" d="M183.143 293.103c.253-.041 1.061-.118 1.194-.136l3.27-.596.183 69.606-5.11.007.463-68.88zm37.391-.278l7-.129c-2.233.413-1.536 1.942-1.576 3.644l-.066 65.642-4.813-.016c-.273-1.115-.098-2.62-.099-3.776l-.042-57.891c-.006-2.42.182-5.118-.404-7.474z"/><path fill="#2E2D3B" d="M213.698 239.98l20.106-.034.12 41.492c-.007 5.565.186 10.26-6.39 11.183l-7 .103-.139.08c-6.262-.888-6.71-5.23-6.715-10.705l.018-42.12z"/><path fill="#DDD" d="M233.92 239.738c1.783.16 22.549-.056 23.08.214-.12 1.392-.26 2.967-.284 4.499l-.05 40.236c.007 3.243.39 5.056 3.109 7.231l.64.442-.012 69.468-34.486.156.041-65.644c.04-1.702-.657-3.23 1.26-3.72 6.892-.922 6.7-5.617 6.706-11.182l-.003-41.7z"/><path fill="#DDD" d="M272.953 239.948l27.528.026-.124 121.794c-4.682.593-9.99.245-14.932.24l-22.482-.108-2.537-.072-.008-69.468-.623-.442c-2.72-2.175-3.102-3.988-3.11-7.23l.051-40.237c.024-1.532.163-3.107.011-4.63l16.226.127z"/><path fill="#C1C0C0" d="M260.398 292.36c1.499.442 2.932.55 4.47.655l.03 68.54c-.387.266-.695.215-1.153.247l-3.34.026-.007-69.468z"/><path fill="#2E2D3B" d="M256.727 239.82l16.226.128-.002 42.148c-.005 6.774-.372 10.373-8.083 10.919-1.538-.105-2.971-.213-4.454-.655l-.639-.442c-2.72-2.175-3.102-3.988-3.11-7.23l.051-40.237c.024-1.532.163-3.107.011-4.63z"/><path fill="#DDD" d="M143.41 240.217l30.91-.331 16.526.055.183 42.711c-.003 3.894.3 7.249-3.421 9.719l-3.271.596c-.133.018-.941.095-.989.136l-.582 68.878-39.172.002-.183-121.766z"/><path fill="#2E2D3B" d="M174.279 239.855l16.567.086.183 42.711c-.003 3.894.3 7.249-3.421 9.719l-3.271.596c-.133.018-.941.095-.989.136l-1.292.064c-7.002-.146-7.852-4.08-7.858-9.567l.08-43.745z"/><path fill="#FECA02" d="M73.615 217.317c2.4-23.075 24.135-22.216 26.62-44.933.987-9.018-3.298-17.209-4.19-26.034-.628-6.191-.214-12.598.623-18.733 5.98-43.83 41.31-78.721 85.761-82.994 52.383-5.036 102.964 33.685 108.003 87.208.524 5.564.72 11.114 1.951 16.594 5.351 23.835 26.784 41.996 50.84 44.8 14.354 1.673 27.86 13.045 26.237 28.379l-.172.21c-.378.493-.484 1.342-.645 1.945-3.32 12.443-15.224 16.176-26.694 16.193l-41.468.02-27.528-.164-15.953.116c-.531-.242-21.297-.027-23.196-.038l-20.005.072-22.953-.033-16.525.009-30.97.06-.22.03c-1.544.17-3.355-.022-4.93-.03l-32.554-.008c-8.453.002-13.95.82-21.102-4.602-6.074-4.604-9.108-10.283-10.126-17.732l-.804-.335z"/><path fill="#E63814" d="M233.774 102.064c3.035-.506 6.802 3.936 7.063 6.904.184 2.075-.02 4.342-.027 6.438l-.032 55.11c-.005 5.181-.198 10.195-2.969 14.77-7.794 12.87-35.194 14.883-39.15-2.155l-.074-.33c-3.362-14.337 17.108-23.793 28.94-21.088 1.945.445 3.805 1.238 5.665 1.944l-.054-30.446-50.526 9.4c-.936.133-1.78.281-2.667.625-.417 2.616-.074 5.854-.073 8.543l-.003 27.9c-.03 3.613-.074 7.224-1.322 10.664-5.326 14.687-31.738 18.33-38.33 3.223-7.227-16.569 17.238-27.161 31.468-20.995l-.492-47.358c-.064-4.863-.294-10.21 5.907-11.493l56.676-11.656z"/></svg>