<svg xmlns="http://www.w3.org/2000/svg" width="436" height="436"><path fill="#4A4A4A" d="M304.845 325.624l39.355.104c3.852 5.74 5.894 17.43 7.843 24.295l1.589 5.666c1.855 6.277.309 7.161-5.506 7.17l-11.16-.008c-10.458-.032-10.378-3.06-15.894-11.526l-8.24-12.845c-2.66-4.22-5.735-8.41-7.987-12.856zm-212.173-.299l40.48.025c-1.359 2.035-3.01 3.986-4.472 6.034l-17.735 26.765c-.813 1.147-2.432 3.785-3.659 4.4-1.509.756-14.587.313-17.176.309-3.857-.006-6.387.886-7.956-3.363.595-3.654 1.972-7.23 2.996-10.786l3.87-13.15c1.059-3.472 2.09-6.949 3.652-10.234z"/><path fill="#FEC802" d="M73.482 308.47l-.013-.25c-.306-5.355-1.44-10.928-2.428-16.207l-15.583-82.36c-1.278-5.976-2.963-11.49-2.587-17.696 1.09-18.003 18.528-28.991 35.568-26.319 1.647.258 4.874.877 6.322 1.674.008-6.06-.23-12.254.16-18.295 2.048-31.703 18.382-59.542 51.043-67.898 10.19-2.607 20.58-2.287 30.994-2.281l96.226-.005c34.264.084 64.89 27.448 67.928 61.89.444 5.033.112 10.363.137 15.426l.717 10.602c6.159-2.65 17.066-2.066 23.001.346 17.816 7.236 20.468 21.752 17.063 38.335l-17.01 90.603c-.822 4.68-1.714 9.319-2.022 14.072-.29 13.204-8.469 13.595-18.798 15.504l-39.355.055c-.946-1.39-3.591-.89-4.921-.9l-162.335.02c-1.451.01-3.035-.108-4.436.306l-40.481.27c-12.378-1.807-19.507-1.677-19.19-16.892z"/><path fill="#E53913" d="M217.975 165.324c18.712.667 19.41 26.58 1.06 27.671-19.827-.268-19.3-26.415-1.06-27.671zm-.89-44.517c17.8-1.483 21.912 24.914 2.71 27.57-19.166.862-20.934-25.231-2.71-27.57zm53.893 44.9c18.512-1.215 22.116 23.764 3.892 27.42-18.367 2.96-23.471-23.939-3.892-27.42zm1.592-44.898c15.883-2.238 22.128 24.923 1.307 27.654-18.186.829-22.099-24.89-1.308-27.654zm-109.75 44.908c6.072-.782 12.201 2.87 14.516 8.557l.108.27c3.867 9.507-2.511 17.44-11.944 18.716l-.03.008c-18.887 1.477-22.019-24.466-2.65-27.551zm.918-44.893c16.727.78 22.629 23.791 1.039 27.805-18.994.505-21.447-26.066-1.039-27.805zM73.482 308.47c9.927-10.903 18.714-22.85 27.524-34.66l12.2-16.66c9.319-12.62 19.513-23.339 35.45-27.263l6.25-1.263c2.855-.635 6.19-.373 9.118-.378l110.475.049c2.036.062 4.147.073 6.155.438l6.576 1.033c21.197 4.41 31.359 21.606 43.535 37.732l27.573 36.354c1.446 1.945 2.9 4.648 4.66 6.255-.29 13.204-8.469 13.595-18.798 15.504l-39.355.055c-.946-1.39-3.591-.89-4.921-.9l-162.335.02c-1.451.01-3.035-.108-4.436.306l-40.481.27c-12.378-1.807-19.507-1.677-19.19-16.892z"/></svg>