<svg xmlns="http://www.w3.org/2000/svg" width="436" height="436"><path fill="#2A9D8F" d="M276.036 170.847c3.198-9.601 19.82-12.158 27.594-3.972.78.82 1.367 1.782 2.124 2.612 5.72-11.92 23.476-8.7 27.26 2.952 3.471 10.682-5.565 22.525-17.081 20.566l-.399-.064c-2.75-.455-5.305-2.009-7.22-4.005l1.304 14.952c-.885-.166-2.21.024-3.137.037l-6.846-.027c.938-11.452-9.329-19.038-16.494-26.23-2.25-2.258-4.405-5.133-7.105-6.82z"/><path fill="#264653" d="M207.256 78.007c1.145-2.277 2.753-4.108 4.399-6.037 32.56-38.15 78.526-4.68 58.518 33.064-4.29 8.094-12.042 13.957-19.9 18.373-1.274.716-4.59 1.81-5.432 2.64l-.244.075c-1.015-.62-1.024-1.72-1.384-2.795l-2.425-6.886c-6.533-16.839-18.414-28.724-33.532-38.434zm-101.47 48.684c-7.185-2.126-19.83-12.128-24.033-17.807-17.946-24.25-.568-58.93 29.976-53.213 10.918 2.043 24.039 12.895 30.418 22.187-.444 1.73-3.567 3.076-4.923 4.074-12.66 9.32-22.366 20.775-28.223 35.592l-2.004 5.676c-.336 1.057-.6 2.599-1.211 3.491zm.426 21.109c5.45 16.565 14 25.585 26.418 36.874l-.21.166c-1.407 1.138-2.375 2.602-3.444 4.044l-3.229 4.136c-13.325 17.181-20.629 36.177-22.82 57.705-1.128 11.083.642 21.894 1.762 32.898l2.539 24.502c.593 4.545 1.824 9.15 2.131 13.706L72.161 299.47c-11.176-7.847-12.02-17.761-12.034-29.841l.006-30.668c.103-36.798 17.838-67.917 46.08-91.16z"/><path fill="#E9C46A" d="M299.635 203.886l6.846.039c.927-.013 2.252-.203 3.137-.018l.17.03c1.715.362 3.6.19 5.352.314 25.853 1.826 46.333 12.07 61.204 34.301 32.042 47.902 1.878 118.663-57.186 122.723-6.285.432-12.807.086-19.116.08l-10.149-.024c-14.442-.084-28.132-5.068-39.981-13.267-3.031-2.097-5.762-5.02-8.928-6.845-10.937-8.098-21.2-31.073-23.34-44.17-.735-4.501-1.186-8.954-1.194-13.518l.085-8.708c1-20.079 13.456-40.452 27.954-53.557 17.207-13.829 34.133-17.064 55.146-17.38z"/><path fill="#2A9D8F" d="M142.147 77.858c3.888-3.913 25.846-7.348 31.25-7.363 11.368-.032 23.827 1.824 33.86 7.512 15.117 9.71 26.998 21.595 33.53 38.434l2.426 6.886c.36 1.075.37 2.175 1.384 2.795l.244-.074c.222 3.661 1.354 17.101-.208 20.026 6.413 1.979 26.254 19.994 31.403 24.773 2.7 1.688 4.856 4.563 7.105 6.821 7.165 7.192 17.432 14.778 16.494 26.172-21.013.362-37.94 3.597-55.146 17.426-14.498 13.105-26.953 33.478-27.954 53.557l-.085 8.708c.008 4.564.459 9.017 1.194 13.519 2.14 13.096 12.403 36.071 23.34 44.169-7.781 18.285-42.02 29.349-54.288 9.862l-.599-1.015-21.616-.248c-1.956 3.513-6.198 6.42-9.635 8.3-16.763 9.17-45.178-4.175-46.27-23.577-.146-2.602 1.22-11.891.783-12.71-.307-4.556-1.538-9.16-2.131-13.706l-2.539-24.502c-1.12-11.004-2.89-21.815-1.762-32.898 2.191-21.528 9.495-40.524 22.82-57.705l3.229-4.136c1.069-1.442 2.037-2.906 3.444-4.044l.21-.166c-12.418-11.29-20.967-20.309-26.418-36.874-.472-7.004-2.636-14.117-.426-21.109.611-.892.875-2.434 1.21-3.49l2.005-5.677c5.857-14.817 15.562-26.272 28.223-35.592 1.356-.998 4.479-2.343 4.923-4.074z"/><path fill="#264653" d="M203.733 114.182c10.194-.475 13.289 11.036 3.842 14.538-9.503 1.506-13.855-12.414-3.842-14.538zm-61.055-.201c11.181-.458 12.597 11.316 3.255 14.466-9.68 1.182-13.51-12.608-3.255-14.466zm101.887 32.093c6.48 1.979 26.322 19.994 31.471 24.773 2.7 1.688 4.856 4.563 7.105 6.821 7.165 7.192 17.432 14.778 16.494 26.172-21.013.362-37.94 3.597-55.146 17.426-1.102-1.35-1.665-3.43-2.39-5.035l-3.171-6.359c-5.169-9.326-11.974-18.701-19.225-26.485 9.107-7.81 16.258-15.87 20.97-26.922l2.557-6.792c.424-1.217.716-2.46 1.335-3.599z"/><path fill="#E9C46A" d="M158.167 145.875c.251-.633.21-1.585.294-2.271 1.368-11.188 17.246-13.04 25.551-8.931 4.383 2.168 5.764 5.575 7.291 9.896l.195.077c1.624.616 3.37.796 5.03 1.297 21.704 6.552 17.32 33.736-1.677 42.388-10.69 4.869-26.847 6.03-37.993 1.775-18.667-7.123-27.146-34.061-8.183-42.247l2.08-.745c2.363-.705 4.93-1.286 7.412-1.24z"/><path fill="#264653" d="M158.167 145.875c.251-.633.21-1.585.294-2.271 1.368-11.188 17.246-13.04 25.551-8.931 4.383 2.168 5.764 5.575 7.291 9.896-.658 7.618-6.692 11.686-12.385 15.493l-.015 7.086c.015 1.318-.029 2.864.563 4.064 7.658 6.512 15.001-9.246 16.633-9.424 12.75-1.398-5.844 26.136-21.457 14.39-8.407 5.634-17.017 2.94-22.44-5.27-4.851-7.344-2.652-14.378 4.408-4.85 1.897 2.562 4.668 5.124 7.878 5.758 4.925.973 6.735-.696 6.74-5.029l-.044-6.92c-6.33-2.944-11.448-6.35-13.017-13.992zm6.314 203.943l.36-11.857c0-2.852.132-5.8-.15-8.639-1.24-12.417-11.385-24.38-23.948-26.023-1.733-.226-1.184-.306-1.199-2.154l.039-32.342c.523-10.266 5.866-19.937 13.445-26.714 22.194-19.843 56.915-2.335 60.068 25.394.61 5.36.225 11.067.224 16.478l-.08 18.78c-12.58 2.582-19.46 5.351-25.34 18.622-1.77 3.995-1.666 7.58-1.681 11.84l.042 11.39c.011 1.29.449 4.505-.127 5.473l-21.653-.248z"/></svg>