<svg xmlns="http://www.w3.org/2000/svg" width="436" height="436"><path fill="#FECB02" d="M336.657 75.125l.03 20.77-30.258.266L306.4 75.4l28.125-.247c.662-.052 1.498-.258 2.132-.028z"/><path fill="#E63614" d="M306.418 75.332l-.02-12.606c.004-2.149-.23-4.63.198-6.725 3.582-17.492 25.62-18.307 29.74-2.293.623 2.418.332 5.387.338 7.885l.011 13.326c-.662-.024-1.498.182-2.16.234l-28.107.179zm-.019 20.981l30.47-.179-.182 137.717c-3.356-.455-6.918-.223-10.271-.23l-20.014-.024-.009-13.118.006-124.166z"/><path fill="#FECB02" d="M126.078 267.094c-4.035-3.154-7.668-6.818-11.237-10.48-24.54-25.182-38.03-50.398-44.411-84.402-1.205-6.419-2.555-15.576-1.55-22.167l.06-.355c1.167-7.207 6.83-4.423 11.605-2.686 15.739 5.727 30.02 14.916 42.683 25.79l-4.734-27.401c-1.62-7.87-.79-16.546-.703-24.526l.158-6.72c.095-1.581.46-2.959.656-4.488 1.39-10.882 3.389-21.66 7.19-31.98 2.963-8.04 3.75-11.19 11.802-7.113 21.306 10.787 38.935 27.133 52.376 46.726l3.037 4.012-.172.26c-1.995 3.003-4.723 5.613-6.976 8.441-26.534 33.298-32.245 66.326-28.98 106.972l.675 9.492c.134 1.857.197 3.898.566 5.719l.064.3-2.802.746c-8.229 1.989-16.37 5.834-23.605 10.136l-5.702 3.724z"/><path fill="#FE9E00" d="M189.973 117.292l3.037 4.012-.172.26c-1.995 3.003-4.723 5.613-6.976 8.441-26.534 33.298-32.245 66.326-28.98 106.972l.675 9.492c.134 1.857.197 3.898.566 5.719l.064.3-2.802.746c-.555-1.784-.73-3.722-.955-5.573l-2.668-21.83c-2.078-11.799-6.529-19.143-11.917-29.644l-5.553-11.72 15.627 18.907c.46-.96.555-2.285.703-3.338l3.121-16.361c3.215-13.834 11.13-33.604 18.59-46.016 2.364-3.933 13.017-19.224 17.64-20.367z"/><path fill="#DCDCDB" d="M285.889 232.912c1.973 1.125 17.08.687 20.412.704l.089-13.137.012 13.118 20.014.025c3.353.006 6.915-.226 10.244.138l.347.236c4.002 1.532 21.639.836 26.591.836l6.076.003c4.371.008 8.725 1.213 11.08 5.335l1.152 2.218c1.902 4.38.886 10.36.89 15.083v17.565c-.015 15.98-.915 28.263-9.75 42.443-2.083 3.343-4.518 6.403-6.73 9.65l-.962 1.073c-40.096 45.506-104.622 10.519-106.3-46.85-.29-9.902.338-19.867-.277-29.756l-.282-5.791c.124-3.167 2.355-6.762 4.615-8.886 7.401-6.956 19.536-.908 22.779-4.007z"/><path fill="#FECB02" d="M193.01 121.304c15.827-16.42 38.322-29.902 59.797-37.712 14.208-5.167 13.975-5.948 16.723 9.976 4.044 23.426 1.623 47.348-4.15 70.268-1.609 6.389-2.858 13.006-6.403 18.654-.355.566-1.068 1.423-1.22 2.049 7.094-5.09 33.105-21.393 42.033-20.104 3.56 2.543 2.525 14.085 1.751 18.126l-1.651 9.34c-1.722 7.82-4.164 15.614-6.915 23.13l-4.539 11.736c-.83 2.022-1.853 4.077-2.547 6.145-3.243 3.1-15.378-2.949-22.78 4.007-2.26 2.124-4.49 5.719-4.614 8.886l.011 5.791-6.178-1.81c-13.7-3.358-23.015-3.608-36.462-.736l-7.376 2.193-14.906 6.933c-6.205-5.585-14.274-7.939-22.511-7.497l-12.86 1.81-.09-.301c-.37-1.821-.432-3.862-.566-5.719l-.675-9.492c-3.265-40.646 2.446-73.674 28.98-106.972 2.253-2.828 4.98-5.438 6.976-8.44l.172-.261z"/><path fill="#FE9E00" d="M208.49 251.243c.293-1.16.9-2.241 1.397-3.327l2.282-5.273c6.882-16.792 15.234-33.081 28.142-46.1l-.717 1.72c-1.124 2.65.883 2.695-.12 3.885-5.903 6.997-10.238 15.613-14.366 23.721-1.516 2.978-10.488 20.79-9.242 23.181l-7.376 2.193z"/><path fill="#E63614" d="M215.866 249.05c13.447-2.872 22.761-2.622 36.462.737l6.212 1.81c.852 9.888.224 19.853.514 29.754 1.678 57.37 66.204 92.357 106.3 46.851l.962-1.073c4.219 5.65 10.109 12.546 9.159 20.079l-.054.4c-.638 4.94-4.549 10.665-9.205 12.424l-.324.117c-1.61.592-3.05.75-4.744.784l-272.72.023c-3.555.003-7.313.256-10.842-.112-14.73-1.533-27.306-14.202-25.548-29.445 2.172-18.844 22.988-29.3 40.046-31.334.978-.116 2.437-.01 3.348-.283.399-.12 5.72-7.99 6.344-8.847 4.222-5.794 8.794-11.05 14.187-15.795l10.115-8.046 5.702-3.724c7.236-4.302 15.376-8.147 23.605-10.136l2.827-.746 12.86-1.809c8.238-.442 16.307 1.912 22.512 7.497l14.906-6.933 7.376-2.193zm-91.639 85.553c-12.486.815-9.1 11.368 1.242 10.87 13.431-.89 8.095-11.9-1.242-10.87zm-35.432-8.581c-6.58 1.487-8.844 11.436 4.096 10.374 1.672-.395 3.12-.908 4.115-2.438 3.759-5.786-3.082-8.434-8.211-7.936z"/><path fill="#DCDCDB" d="M199.475 281.778c11.398-.761 13.673 9.84 3.077 10.732-1.98.029-5.882.511-7.514-.68-4.173-3.044-1.814-9.255 4.437-10.052zm-32.641 27.449c19.016-2.4 23.815 25.822 4.113 31.013-19.595 3.531-24.294-27.448-4.113-31.013z"/><path fill="#C18B68" d="M167.665 319.855c5.884-.353 6.332 7.036 1.29 8.223-5.069-.426-7.285-5.766-1.29-8.223z"/><path fill="#DCDCDB" d="M229.312 311.594l3.527.063c8.82.98 15.242 8.899 14.038 17.76l-.057.412c-1.032 7.792-6.38 12.615-13.927 14.402l-.486.099c-8.384 1.497-16.043-5.337-17.35-13.375l-.16-.965c-1.202-8.692 5.827-17.34 14.415-18.396z"/><path fill="#E63614" d="M229.856 321.15c8.312-.377 9.734 11.831 1.674 13.225-9.305-.178-9.484-10.786-1.674-13.224z"/></svg>