<svg xmlns="http://www.w3.org/2000/svg" viewBox="0 0 436 436"><path fill="#FECB02" d="M337 75v21h-31V75h31z"/><path fill="#E63614" d="M306 75V63l1-7c3-17 25-18 29-2l1 8v13h-31zm0 21h31v138h-31V96z"/><path fill="#FECB02" d="m126 267-11-10a154 154 0 0 1-46-107c1-8 7-5 12-3 15 6 30 15 42 26l-5-28v-31l1-4c1-11 3-22 7-32 3-8 4-12 12-7 21 10 39 27 52 46l3 4v1l-7 8c-27 33-32 66-29 107l1 9v6l-3 1c-8 2-16 6-23 10l-6 4z"/><path fill="#FE9E00" d="m190 117 3 4v1l-7 8c-27 33-32 66-29 107l1 9v6l-3 1-1-5-2-22c-2-12-7-19-12-30l-6-12 16 19 1-3 3-16c3-14 11-34 18-46 3-4 13-20 18-21z"/><path fill="#DCDCDB" d="m286 233 20 1v-14 14h31c4 2 22 1 27 1h6c4 0 8 1 11 5l1 2c2 5 1 11 1 15v18c0 16-1 28-10 42l-7 10-1 1c-40 46-104 11-106-47v-29l-1-6 5-9c8-7 20-1 23-4z"/><path fill="#FECB02" d="M193 121c16-16 38-30 60-37 14-6 14-6 17 10 4 23 1 47-5 70-1 6-2 13-6 18l-1 3c7-6 33-22 42-21 3 3 2 15 2 19l-2 9-7 23-5 12-2 6c-3 3-15-3-23 4l-5 9 1 6-7-2c-13-4-23-4-36-1l-8 2-14 7c-7-5-15-8-23-7l-13 1v-6l-1-9c-3-41 2-74 29-107l7-8v-1z"/><path fill="#FE9E00" d="m208 251 2-3 2-5c7-17 15-33 28-46v1c-2 3 0 3-1 4l-14 24c-1 3-10 21-9 23l-8 2z"/><path fill="#E63614" d="M216 249c13-3 23-3 36 1l7 2v29c2 58 66 93 106 47l1-1c5 6 10 13 9 20v1c0 5-4 10-9 12l-5 1H78c-15-2-28-14-26-30 2-18 23-29 40-31h3l7-9 14-16 10-8 6-4c7-4 15-8 23-10l3-1 13-1c8-1 16 2 23 7l14-7 8-2zm-92 86c-12 0-9 11 1 10 14 0 9-11-1-10zm-35-9c-7 2-9 11 4 10l4-2c4-6-3-8-8-8z"/><path fill="#DCDCDB" d="M199 282c12-1 14 10 4 11l-8-1c-4-3-2-9 4-10zm-32 27c19-2 24 26 4 31-20 4-24-27-4-31z"/><path fill="#C18B68" d="M168 320c6 0 6 7 1 8-5 0-7-6-1-8z"/><path fill="#DCDCDB" d="M229 312h4c9 1 15 9 14 17v1c-1 8-7 12-14 14h-1c-8 2-16-5-17-13v-1c-1-9 6-17 14-18z"/><path fill="#E63614" d="M230 321c8 0 10 12 2 13-10 0-10-10-2-13z"/></svg>