<svg xmlns="http://www.w3.org/2000/svg" viewBox="0 0 436 436"><path fill="#363F51" d="M194 73v-1c-3-2-3-5-3-8 0-22 30-35 47-18 6 6 11 18 5 26l-1 1h-7l-12 1-10-1-12 1-1-1h-6zm6 0 1 1 12-1 10 1 12-1c1-3 2-8 0-11-5-22-39-16-35 11z"/><path fill="#363F51" d="M213 73v-6c0-3-1-7 2-9 2-3 7-2 8 2v14l-10-1z"/><path fill="#DCDCDC" d="M194 73h6l1 1h12l10-1 12 1 7-1h12c4 0 9 0 12 4 3 5 0 18 2 19-2 2 0 11-7 16h-13l-4-1h-31l-25 1h-12c-9-8-6-15-8-16l1-1c0-5-2-12 1-17 5-8 18-3 24-5z"/><path fill="#E73712" d="m276 99 9 5c41 20 69 57 77 101l1 8a146 146 0 0 1-84 154l3-3c60-48 70-143 39-210-10-19-22-38-40-51l-5-4zm-116 0v1l-4 3-6 4c-20 16-36 46-43 71-14 49-9 104 15 149 7 13 16 24 26 33l4 3 2 2c-6-2-12-6-18-10a147 147 0 0 1 24-256z"/><path fill="#FECD04" d="m268 96 5 2 3 1 5 4c18 13 30 32 40 51 31 67 21 162-39 210l-3 3c-12 6-23 7-35 11h-1v-1l3-6c4-8 5-18 6-26l6-49 1-31v-63l-3-37-5-39-3-14h13c7-5 5-14 7-16z"/><path fill="#E73712" d="m261 112 4 6c23 32 34 73 34 113v15l-3 22-4 16c-6 24-15 47-29 67-4 6-17 21-19 27h-1v-1l3-6c4-8 5-18 6-26l6-49 1-31v-63l-3-37-5-39-3-14h13z"/><path fill="#FECD04" d="M168 96c2 1-1 8 8 16h37l12-1h19l4 1 3 14 5 39 3 37v63l-1 31-6 49c-1 8-2 18-6 26l-3 6v1l-20 2h-9l-17-1-10-2c-11-2-23-6-33-12l-2-2-4-3c-10-9-19-20-26-33-24-45-29-100-15-149 7-25 23-55 43-71l6-4 4-3v-1l8-3z"/><path fill="#E73712" d="M176 112h12l-4 24-6 62-1 19 1 52v7l2 39c2 16 4 43 11 57l3 6-8-9-10-12c-28-37-43-102-37-148l2-18c5-24 13-47 27-67l7-10 1-2zm49-1h19l4 1 3 14 5 39 3 37v63l-1 31-6 49c-1 8-2 18-6 26l-3 6v1l-20 2h-9c-5-11-7-31-8-42l-1-34-1-116 1-6 3-48c1-7 2-15 5-22l12-1z"/><path fill="#FECD04" d="m225 112 19-1 4 1 3 14 5 39 3 37v63l-1 31-6 49c-1 8-2 18-6 26l-3 6v1l-20 2h1c3-5 3-14 4-20l4-44v-5l1-114-2-45-4-29-2-11z"/></svg>