<svg xmlns="http://www.w3.org/2000/svg" viewBox="0 0 436 436"><path fill="#39343B" d="M55 309c6 2 10 5 14 10-3 2-10 7-13 7-7-1-5-14-1-17z"/><defs><linearGradient id="a" x1="504" x2="515.5" y1="194.8" y2="126.4" gradientUnits="userSpaceOnUse"><stop offset="0" stop-color="#E28500"/><stop offset="1" stop-color="#EFA101"/></linearGradient></defs><path fill="url(#a)" d="M471 177c12-8 11-5 20-17 6-8 19-25 27-30 13-7 31 5 28 18-4 20-40 31-49 47l-1 2v2h-1l-2-1-14-13-9-7 1-1z" transform="scale(.68)"/><path fill="#DD7107" d="M367 105v1h1-1c-2 0-2 2-4 3h-1l-4 1 9-5z"/><path fill="#B74A1F" d="M321 121h2l4 2 8 7 3 3v2h-2l-9-9-6-5z"/><path fill="#E73814" d="m321 121 6 5 9 9h2v-1l4 2 5 3c5 2 12 2 14 8 2 5-1 10-5 12l-7 1 3 16 20 108c2 14 6 29 6 43 0 22-14 40-34 48l-12 2h-38c-14 0-25-6-35-16l-5-5c-9-14-12-25-8-42l15-81 6-28 3-15 3-17 2-13-6-1c-7-2-8-10-3-15 3-3 8-2 12-2h10l4-1 29-20zm17 13v1h-2l-1 3-1 1h6l7 1v-1l-5-3-4-2z"/><path fill="#811829" d="m338 134 4 2 5 3v1l-7-1h-6l1-1 1-3h2v-1zm0 1h-2l-1 3 3-1v-2z"/><path fill="#FECB02" d="m321 121 6 5 9 9-1 3-1 1c-8 2-11 3-19 3h-12l-11-1 29-20zm-8 133 6 8 10 17 5 9c6 14-5 30-20 30-6 0-12-2-17-7-14-13-3-29 5-42l11-15zM136 64l1-1 2-3h1c6-4 10-6 17-6h63l1 1c3 1 11 8 14 11v-1c0-3 16-2 19-1 11 2 21 9 28 19 6 11 6 22 6 34v25h-10c-4 0-9-1-12 2-5 5-4 13 3 15l6 1-2 13-3 17-3 15-6 28-15 81c-4 17-1 28 8 42H122c-19-1-36-14-40-33l-1-10-12 6c-4-5-8-8-14-10h1l2-9 2-8 7-20c3-10 12-15 16-23V101c2-19 17-34 35-37h18z"/><path fill="#DD7107" d="M185 205h1l2 3v2l-3-5z"/><path fill="#FFA300" d="m269 103 1-1c3-6 5 5 0 5h-4c2-1 3-2 3-4z"/><defs><linearGradient id="b" x1="322.3" x2="338.1" y1="164.7" y2="173.5" gradientUnits="userSpaceOnUse"><stop offset="0" stop-color="#FF5236"/><stop offset="1" stop-color="#FF424E"/></linearGradient></defs><path fill="url(#b)" d="m349 147 4 3c-12 10-21 23-33 33l-10 8-2-2 41-42z" transform="scale(.68)"/><path fill="#E73814" d="M238 100c-3-8 5-19 12-12l1 5-2 4-4 4-5 1-2-2z"/><path fill="#DCDCDB" d="m251 93 5 1c4 0 6 1 10 4 1 1 3 3 3 5s-1 3-3 4c-8 3-14-5-21-6l4-4 2-4z"/><path fill="#E73814" d="M123 301c18-2 24 25 5 29-7 1-15-4-17-12-1-8 4-16 12-17z"/><path fill="#664A38" d="m131 195 5-7 5-5c0 2 1 2 2 3l25 23 9 6-9 12-37-32z"/><path fill="#DCDCDB" d="m261 233-6 3c-9 3-19 0-25-8-15-21 11-53 34-28l3 5-6 28z"/><path fill="#E73814" d="M195 243c23-2 38 28 24 46-5 6-12 9-20 10-37 3-42-51-4-56zm-10-38-8-6-23-19-6-5 9-15 7-14c9-14 29-23 46-17l1 1c16 10 15 31 6 45-8 12-24 18-31 30h-1z"/><path fill="#DCDCDB" d="m136 64 1-1 2-3h1c6-4 10-6 17-6h63l1 1c3 1 11 8 14 11v-1c1 3 0 6-1 9l-3 9c-1 4-1 10-3 14-5 11-11 13-22 13h-50c-6 0-13-6-15-12l-1-5-3-20-1-9zm-5 131 37 32-11 13-43 49-9 10c-7 6-19 8-24 14l-12 6c-4-5-8-8-14-10h1l2-9 2-8 7-20c3-10 12-15 16-23l4-5 34-38 10-11z"/></svg>