<svg xmlns="http://www.w3.org/2000/svg" width="436" height="436"><path fill="#E53712" d="M271.097 72.935c3.17-1.625 6.04-.555 9.362.301l11.183 3.217c18.608 6.002 29.864 11.35 38.832 28.966 7.467 14.666 13.112 30.07 19.972 44.998l11.897 25.525c2.374 5.024 5.408 10.015 6.795 15.419 5.013 19.522-22.242 42.122-40.686 42.225-10.571.059-11.285-5.804-12.06-14.367l-5.367-54.914c-.125-1.755-.07-3.821-.594-5.502-1.304-4.177-7.115-4.2-8.524.043l-.078.224c-.362 1.148.003 2.837.134 4.008l4.045 43.97 2.526 38.035 6.785 72.497c1.996 22.202.323 25.922-18.608 35.1l-20.749 9.989c-9.457 4.738-18.645 10.706-27.302 16.79l-5.284 3.895c-2.713 2.046-5.558 4.69-9.247 3.595-5.707-1.696-6.974-8.849-6.947-13.945l-.449-244.994c5.225 5.811 11.647 15.023 20.819 12.77 13.146-3.23 20.797-30.445 24.232-42.575 3.073-10.851 3.878-15.094-.687-25.27z"/><path fill="#FE5006" d="M233.418 337.474c3.509-.13 4.61 4.608-.096 6.057l-3.583.029c.254-3.596-.1-4.946 3.679-6.086z"/><defs><linearGradient id="a" gradientUnits="userSpaceOnUse" x1="387.971" y1="249.961" x2="387.963" y2="244.686"><stop offset="0" stop-color="#000F99"/><stop offset="1" stop-color="#0046BA"/></linearGradient></defs><path fill="url(#a)" transform="scale(.68138)" d="M360.335 250.609c.015-2.26-.078-5.018 2.795-5.533 6.735-1.209 14.389-.66 21.225-.674l30.45.248c1.27 1.47.992 4.468 1.12 6.372l.636 17.734-1.15-19.093-28.177.021c-9.129.01-17.837-.014-26.899.925z"/><path fill="#0091EB" d="M245.662 170.79c6.037-.67 11.97-.654 18.19-.661l19.2-.014.718 13.01c.183 3.224.347 6.928-.058 10.12l-.055.415c-1.833 14.353-19.212 16.627-29.77 10.438-8.9-5.218-8.169-10.328-8.203-19.608l-.022-13.7z"/><path fill="#FECD01" d="M179.827 58.196c4.327-.71 8.82-.416 13.173-.509l52.858.011c3.761.067 7.736-.241 11.448.307 3.819 2.808 10.87 11.106 13.791 14.93 4.565 10.176 3.76 14.419.687 25.27-3.435 12.13-11.086 39.346-24.232 42.576-9.172 2.252-15.594-6.96-20.819-12.771l.545 244.994c-5.613-.052-11.457.301-16.927-.367l-.38 4.492c-.437 3.21-2.497 7.152-5.189 9.02-5.198 3.608-12.71-3.608-16.63-6.446l-12.31-8.347c-5.982-3.795-12.222-7.135-18.565-10.281l-11.919-5.723c-14.71-6.842-26.587-11.169-24.683-29.358l.574-7.124c.24-2.69.151-5.419.452-8.098l3.043-31.252c.77-7.984 1.328-16.24 2.188-24.156l7.368-85.792c.326-3.366.463-6.729 1.039-10.068-.864-1.62-2.177-3.735-4.068-4.247-5.664-1.533-5.788 8.926-5.95 11.689l-4.834 51.554c-.505 5.411-.762 13.815-7.357 15.478-7.175 1.81-19.735-3.65-25.74-7.463-11.94-7.582-24.09-22.278-19.385-37.114 1.24-3.908 3.456-7.573 5.204-11.277l23.034-51.43c4.1-9.648 8.126-19.885 13.779-28.735 9.79-15.324 37.923-23.235 55.792-27.21 5.174-3.516 8.676-9.174 14.013-12.553z"/><path fill="#DDDDDC" d="M179.827 58.196c4.327-.71 8.82-.416 13.173-.509l52.858.011c3.761.067 7.736-.241 11.448.307 3.819 2.808 10.87 11.106 13.791 14.93 4.565 10.176 3.76 14.419.687 25.27-3.435 12.13-11.086 39.346-24.232 42.576-9.172 2.252-15.594-6.96-20.819-12.771l-7.955-9.58-6.825 7.724c-4.451 5.132-9.787 12.247-16.79 13.73l-.331.065c-16.06 3.313-23.883-25.791-27.981-37.241l-3.437-9.776c-3.778-11.441-.74-12.728 2.53-21.802l-.13-.381c5.174-3.516 8.676-9.174 14.013-12.553z"/><path fill="#04183D" d="M212.834 90.585c4.755-.132 10.032-.599 14.714.106l.394.062c11.23 1.655 5.063 6.584.738 10.996l-7.398 8.043-3.008 3.507c-4.35-6.032-10.31-10.375-14.942-16.026-4.604-5.62 6.678-6.517 9.502-6.688z"/><path fill="#BDBCBC" d="M179.827 58.196c4.327-.71 8.82-.416 13.173-.509l52.858.011c3.761.067 7.736-.241 11.448.307-2.243 8.819-6.578 19.88-14.689 24.461-6.106 3.45-16.648 2.279-23.399 2.272l-11.964-.032c-3.02-.014-7.566.571-10.237-1.06-6.966-4.251-11.602-11.504-14.681-18.942-.867-2.094-1.373-4.571-2.509-6.508z"/></svg>