<svg xmlns="http://www.w3.org/2000/svg" width="436" height="436"><path fill="#E53712" d="M271 73c3-2 6-1 9 0l12 3c18 6 30 12 38 29 8 15 14 30 20 45l12 26c3 5 6 10 7 15 5 20-22 42-41 43-10 0-11-6-12-15l-5-55-1-5c-1-4-7-4-8 0v4l4 44 3 38 6 73c2 22 1 26-18 35l-21 10c-9 4-19 10-27 16l-6 4c-2 2-5 5-9 4-6-2-7-9-7-14V128c5 6 11 15 21 13 13-3 20-31 24-43 3-11 4-15-1-25z"/><path fill="#FE5006" d="M233 337c4 0 5 5 0 7h-3c0-4 0-5 3-7z"/><defs><linearGradient id="a" x1="388" x2="388" y1="250" y2="244.7" gradientUnits="userSpaceOnUse"><stop offset="0" stop-color="#000F99"/><stop offset="1" stop-color="#0046BA"/></linearGradient></defs><path fill="url(#a)" d="M360 251c0-3 0-5 3-6l21-1 31 1 1 6 1 18-2-19h-28l-27 1z" transform="scale(.68)"/><path fill="#0091EB" d="m246 171 18-1h19l1 13v11c-2 14-20 16-30 10-9-5-8-10-8-20v-13z"/><path fill="#FECD01" d="M180 58h77l14 15c5 10 4 14 1 25-4 12-11 40-24 43-10 2-16-7-21-13v245h-17v4c0 3-3 7-5 9-5 4-13-3-17-6l-12-9-19-10-12-6c-14-6-26-11-24-29v-7l1-8 3-31 2-25 7-85 1-10-4-5c-5-1-6 9-6 12l-5 51c0 6 0 14-7 16s-20-4-26-7c-12-8-24-23-19-38l5-11 23-51c4-10 8-20 14-29 10-15 38-23 56-27 5-4 8-9 14-13z"/><path fill="#DDDDDC" d="M180 58h77l14 15c5 10 4 14 1 25-4 12-11 40-24 43-10 2-16-7-21-13l-8-10-7 8c-4 5-10 12-17 14-16 3-24-26-28-37l-4-10c-3-12 0-13 3-22 5-4 8-9 14-13z"/><path fill="#04183D" d="M213 91h15c11 1 5 6 1 11l-8 8-3 3c-4-6-10-10-15-16-4-5 7-6 10-6z"/><path fill="#BDBCBC" d="M180 58h77c-2 9-6 20-14 24-6 4-17 3-24 3h-12l-10-1c-7-5-12-12-15-19l-2-7z"/></svg>