<svg xmlns="http://www.w3.org/2000/svg" viewBox="0 0 436 436"><path fill="#989797" d="m282 76 16 1 8-1v26l-16-1-8 1V76z"/><path fill="#6C6161" d="m282 76 16 1 8-1v10h-24V76z"/><path fill="#FDCA01" d="m283 77-1-1-4-1-5-1c-18-4-33-4-50 7-4 3-10 10-15 8-8-3-4-10 1-15 17-16 35-20 57-20h46l5 1 5 5c3 8-5 15-13 16h-3l-8 1h-15zm-1 25 8-1 16 1h10c6 1 12 7 13 12v33h-71v-22l1-14c6-11 15-8 23-9zm47 31v2h-71v12h71v-14z"/><path fill="#E53613" d="M258 147h79c11 1 23 12 23 24v173c-3 9-11 19-22 20h-95c-8-3-16-8-17-17l7-1c19-3 36-14 44-32 13-29 4-73-7-101-6-16-20-47-36-54 6-9 14-12 24-12z"/><path fill="#FDCA01" d="M223 347c-7 8-2 17-19 17H104c-17 0-30-56-32-68l-4-31v-29l1-7 3-26c5-32 18-76 49-91-2-7 0-20 1-28 3-18 8-23 27-23l11-1c9 0 18-1 25 7 6 8 8 37 8 46l1 1c12 6 21 18 26 29 3 5 4 12 9 14l5 2c16 7 30 38 36 54 11 28 20 72 7 101-8 18-25 29-44 32l-7 1h-3z"/><path fill="#FEA000" d="M120 145c-2 11-6 18-11 28a181 181 0 0 0 4 150l4 7-3 4c-6-6-14-29-16-38-5-16-7-35-7-52v-14c3-24 8-47 18-68 3-6 6-13 11-17z"/><path fill="#DA2000" d="M169 317h-6c-23-4-42-26-42-49 0-6 0-12 7-13h9l4 2c8 4 14 11 19 19l2 19c1 9 3 15 7 22z"/><path fill="#E53613" d="M141 257c8 4 14 11 19 19l2 19c-14-1-26-14-28-27-1-7 4-7 7-11z"/><path fill="#DEDEDD" d="m160 276 1-9c1-15 7-37 12-52 8-21 27-59 51-59l5 1 5 2c16 7 30 38 36 54 11 28 20 72 7 101-8 18-25 29-44 32l-7 1h-3l-4-1c-16 0-32-5-42-18l-8-10v-1c-4-7-6-13-7-22l-2-19z"/><path fill="#E53613" d="M234 245c11-1 14 9 13 19-1 8-17 26-24 31l-9-8-10-11c-4-6-6-12-5-19 2-13 16-17 24-5 3-3 6-6 11-7z"/></svg>