<svg xmlns="http://www.w3.org/2000/svg" width="436" height="436"><path fill="#77DC14" d="M293.177 206.307c7.387-8.255 9.735-14.788 21.626-20.14.907 4.94 3.508 9.525 4.39 14.456l.445 3.85c-5.215-1.094-14.667 17.095-16.028 21.065l-2.332-5.4c-1.04-2.12-8.086-12.66-8.1-13.831z"/><path fill="#31AA24" d="M264.134 218.475c-2.598-7.13 2.709-15.212 4.533-22.223 3.163-.368 9.454 4.352 12.443 3.413 4.1.852 8.765 4.258 12.067 6.642.015 1.17 7.06 11.711 8.1 13.83l2.333 5.4c1.36-3.969 10.813-22.158 16.028-21.064l.42 2.048c4.857-3.276 8.031-5.133 13.836-6.915 4.562-1.143 14.35-3.392 19.067-2.595 0 3.756.212 7.69-.202 11.42-1.645 14.792-12.008 27.28-25.593 32.79-2.01.431-4.115.266-6.156.243l-38.023-.08-.162-.247c-9.743-4.702-15.264-12.8-18.69-22.662z"/><path fill="#77DC14" d="M320.058 206.521c4.857-3.276 8.031-5.133 13.836-6.915l-.674 9.2c-.322 4.733.972 10.112-3.627 11.92l-4.479 1.707c-6.854 2.735-12.908 6.079-18.208 11.298 3.158-6.221 5.084-12.087 8.658-18.508l3.656-6.087c.607-1.054 1.046-1.424.838-2.615z"/><path fill="#A7EA1F" d="M264.134 218.475c-2.598-7.13 2.709-15.212 4.533-22.223 3.163-.368 9.454 4.352 12.443 3.413 4.1.852 8.765 4.258 12.067 6.642.015 1.17 7.06 11.711 8.1 13.83l2.333 5.4-1.658 10.089-3.088-3.261c-8.527-7.709-23.353-14.52-34.73-13.89z"/><path fill="#DBDADA" d="M76.256 104.718c-1.68-24.989 7.957-35.455 31.727-43.317 9.918-3.28 19.976-5.408 30.292-6.94l7.835-.902c1.237-.131 2.6-.148 3.805-.438l.57-.147c3.927-.815 8.49-.204 12.517-.4 24.608-1.193 49.753-.038 73.541 6.807 10.314 2.968 32.882 10.908 35.39 23.27l.065.337c.32 1.6.389 3.035.187 4.651l-.053.408c-.917 7.359-4.845 8.05-6.516 11.848l-.107.26c-18.471 12.503-42.296 16.982-64.113 18.725l-10.182.77-31.169-.083c-22.808-1.081-47.593-5.815-67.748-16.732l-3.289-1.905c-2.619-1.587-10.051 2.465-12.752 3.788z"/><path fill="#A79C95" d="M171.567 63.32c4.99-.027 45.525.32 40.18 8.744-3.261 5.139-22.373 4.072-28.569 5.546l-.217.065c-6.255.169-12.754.258-19.005-.1l-6.176-.625c-3.86-.356-7.934-.685-11.604-1.997-10.254-3.667-1.659-7.788 3.942-9.085 7.19-1.665 14.07-2.45 21.45-2.549z"/><path fill="#E73614" d="M265.509 100.154c8.839 3.849 18.233 11.179 21.798 20.367 3.075 7.926 3.535 20.86-4.762 25.698-3.067 1.788-2.09.4-1.976 4.222l.06 11.164-201.86-.198-.07-12.358c.005-4.288.19-2.316-3.683-3.704-7.786-2.79-13.44-10.943-12.335-19.29 1.156-8.734 6.809-16.086 13.575-21.337 2.7-1.323 10.133-5.375 12.752-3.788l3.289 1.905c20.155 10.917 44.94 15.651 67.748 16.732l31.17.083 10.181-.77c21.817-1.743 45.642-6.222 64.113-18.726zM84.062 120.151c-9.926 2.098-7.37 15.945 1.386 15.243 8.926-2.098 8.438-14.678-1.386-15.243z"/><path fill="#FB6E30" d="M84.536 106.94c2.117-.066 6.005-.46 7.074 1.974l-.083.149c-1.111 1.477-4.818 2.178-6.477 2.453l-4.577.452c-5.145.377-.26-4.114 4.063-5.029z"/><path fill="#E73614" d="M78.683 206.07c1.709-.99 7.688-.875 9.55-.686.255 3.348.15 6.735.154 10.093l.43 61.748c.01 7.4.167 14.716 2.47 21.834 5.484 16.952 20.586 28.332 36.286 35.206 11.344 4.967 19.247 5.573 31.678 5.577l68.475.51c-2.573-5.185-5.399-12.612-6.911-18.116-9.477-34.476 8.437-72.648 44.754-79.46l6.094-.883c3.685-.661 7.594-.274 11.324-.664l38.023.235c2.041.023 4.145.188 6.156-.242l.385.022c1.183-.276 3.34.098 4.603.161 26.566 1.313 46.533 19.725 52.774 45.13 8.017 32.633-10.308 72.418-43.754 81.33-1.976.528-4.925.12-7.016.116l-65.969-.054c-9.092-.074-17.375-3.308-24.819-8.595l-3.148-2.292c-.728-.514-.674-.766-1.483-.464l-6.79 2.827c-13.79 5.467-28.072 4.298-42.605 4.296l-44.464.076c-30.122.064-58.582-17.248-65.106-48.232-1.3-6.179-1.07-12.358-1.075-18.63l-.016-90.842z"/><path fill="#FECB01" d="M78.744 161.16l201.865.318.022 23.294c.007 4.857-.23 10.082.418 14.893-2.928.94-9.22-3.78-12.382-3.413-1.824 7.01-7.131 15.093-4.533 22.223 3.427 9.862 8.948 17.96 18.69 22.662l.163.077c-3.73.405-7.64.018-11.324.679l-6.094.883c-36.317 6.812-54.231 44.984-44.754 79.46 1.512 5.504 4.338 12.93 6.91 18.116l-68.474-.51c-12.43-.004-20.334-.61-31.678-5.577-15.7-6.874-30.802-18.254-36.286-35.206-2.303-7.118-2.46-14.434-2.47-21.834l-.43-61.748c-.004-3.358.101-6.745-.155-10.093-1.861-.19-7.84-.305-9.554.687l.066-44.912zm22.8 62.23l.145 50.335c.003 4.607-1.12 24.141 2.243 27.259 2.67 2.476 6.923 1.385 8.22-2.03l.102-.265c.585-1.635.39-3.767.392-5.485l.03-61.337c.01-2.123-.125-4.395.262-6.499-3.449-3.961-7.066-4.432-11.394-1.978z"/><path fill="#E73614" d="M101.182 223.39c-.994-1.012-.922-3.538-.916-4.947.052-12.31 23.317-7.49 12.672 6.925-3.449-3.961-7.066-4.432-11.756-1.978z"/></svg>