<svg xmlns="http://www.w3.org/2000/svg" viewBox="0 0 436 436"><path fill="#77DC14" d="M293 206c8-8 10-14 22-20l4 15 1 3c-6-1-15 18-16 22l-3-6-8-14z"/><path fill="#31AA24" d="M264 218c-2-7 3-15 5-22 3 0 9 5 12 4l12 6 8 14 3 6c1-4 10-23 16-22v3c5-4 8-6 14-7 4-2 14-4 19-3v11c-2 15-12 28-26 33h-44c-10-5-15-13-19-23z"/><path fill="#77DC14" d="M320 207c5-4 8-6 14-7l-1 9c0 5 1 10-3 12l-5 1c-7 3-13 7-18 12l9-19 3-6 1-2z"/><path fill="#A7EA1F" d="M264 218c-2-7 3-15 5-22 3 0 9 5 12 4l12 6 8 14 3 6-2 10-3-4c-9-7-23-14-35-14z"/><path fill="#DBDADA" d="M76 105c-1-25 8-36 32-44l30-7h8l4-1h13c25-2 50 0 74 6 10 3 32 11 35 24v5c-1 7-5 8-6 12-19 13-43 17-65 19l-10 1h-31c-23-2-48-6-68-17l-3-2c-3-2-10 2-13 4z"/><path fill="#A79C95" d="M172 63c5 0 45 1 40 9-4 5-23 4-29 6h-19l-6-1-12-2c-10-4-1-8 4-9 7-2 14-3 22-3z"/><path fill="#E73614" d="M266 100c8 4 18 11 21 21 3 7 4 20-4 25-4 2-3 1-2 4v12l-202-1v-12c0-4 0-2-4-4-8-2-13-11-12-19 1-9 6-16 13-21 3-2 10-6 13-4l3 2c20 11 45 15 68 17h31l10-1c22-2 46-6 65-19zM84 120c-10 2-7 16 1 15 9-2 9-14-1-15z"/><path fill="#FB6E30" d="M85 107c2 0 6-1 7 2-2 2-5 2-7 3h-5c-5 0 0-4 5-5z"/><path fill="#E73614" d="m79 206 9-1v10l1 62c0 8 0 15 2 22 6 17 21 28 37 35 11 5 19 6 31 6h69c-3-5-6-12-7-18-10-34 8-72 45-79l6-1 11-1h49c27 2 47 20 53 46 8 32-10 72-44 81h-73c-9 0-17-3-25-9l-3-2h-1l-7 2c-14 6-28 5-43 5h-44c-30 0-59-17-65-48-2-7-1-13-1-19v-91z"/><path fill="#FECB01" d="M79 161h202v39c-3 1-9-4-12-4-2 7-7 15-5 22 4 10 9 18 19 23l-11 1-6 1c-37 7-55 45-45 79 1 6 4 13 7 18h-69c-12 0-20-1-31-6-16-7-31-18-37-35-2-7-2-14-2-22l-1-62v-10l-9 1v-45zm23 62v51c0 4-1 24 2 27 3 2 7 1 8-2l1-6v-68c-4-4-7-4-11-2z"/><path fill="#E73614" d="m101 223-1-5c0-12 24-7 13 7-4-4-7-4-12-2z"/></svg>