<svg xmlns="http://www.w3.org/2000/svg" viewBox="0 0 436 436"><path fill="#E73714" d="M291 82c-4-6-2-14 6-17 4-1 7 0 9 2l46 25c18 11 31 26 33 48v18l-1 5c-3 7-11 11-18 7-4-2-7-6-10-9l-6-7-53-66-6-6zM80 162c-3 3-7 8-12 9-7 3-14-3-16-10l-1-20c2-27 18-40 39-52l34-19c5-3 12-8 19-4 5 4 6 11 2 16-3 2-5 6-7 9l-53 65c-2 1-4 3-5 6z"/><path fill="#FECC02" d="m291 82 6 6 53 66 6 7v112c0 7 0 15-2 22-2-3-6-5-9-7l-29-20-9-8h1l-4-5-10-12-6-7c-6-7-29-28-37-31l-6-27-17-81-2-14 6-1h59z"/><path fill="#393544" d="M293 164c22-2 28 37 2 39-24 0-29-34-2-39z"/><path fill="#DDD" d="M293 173c9 0 8 8 1 10-8 0-9-9-1-10z"/><path fill="#FECC02" d="M145 82h66v4l-10 48-11 56-4 15c-14 8-23 17-35 28l-11 12c-5 6-8 14-14 19l-15 10-29 21c-2-9-1-18-1-27V162c0-3 2-5 4-6l53-65c2-3 4-7 7-9z"/><path fill="#393544" d="M141 164c24-2 29 34 5 39-24 4-31-34-5-39z"/><path fill="#DDD" d="M142 173c9-1 10 7 3 10-8 1-11-8-3-10zm69-91h15l2 15 17 81 6 27c8 3 31 24 37 31l6 7 10 12 4 5h-1l9 8 29 20c3 2 7 4 9 7-6 38-35 67-72 74-11 2-21 1-31 1h-86c-41-2-76-34-83-75l29-21 15-10c6-5 9-13 14-19l11-12c12-11 21-20 35-28l4-15 11-56 10-48v-4z"/><path fill="#63666D" d="M216 280h5l-1 38-3 1-1-12v-27z"/><path fill="#393544" d="M191 238c8-7 23-9 32-8h2c7 1 16 3 21 9l1 1c8 12-13 37-26 40h-5c-13-4-38-29-25-42z"/><path fill="#63666D" d="M191 238c8-7 23-9 32-8h2c7 1 16 3 21 9l1 1c-9 13-49 14-55 0l-1-2z"/><path fill="#E73714" d="M251 205c8 3 31 24 37 31l6 7 10 12 4 5h-1l9 8 29 20c3 2 7 4 9 7-6 38-35 67-72 74-11 2-21 1-31 1h-86c-41-2-76-34-83-75l29-21 15-10c6-5 9-13 14-19l11-12c12-11 21-20 35-28l-5 10-8 17-12 18-11 14c-6 6-12 12-15 20-5 15 4 32 14 43 19 23 43 25 63 0l5-8 3-1 2 4c9 15 23 26 41 22 23-4 50-43 36-65-4-7-11-13-16-19-10-12-29-39-32-55z"/><path fill="#FD8200" d="m307 260-2-1-12-14-9-10 4 2v-1l6 7 10 12 4 5h-1z"/></svg>