<svg xmlns="http://www.w3.org/2000/svg" viewBox="0 0 436 436"><path fill="#2A9D8F" d="M141 76c7-5 24-11 32-13l14-4 13-2c0 4 1 5-2 8-6 3-31 14-32 17h-2c-8 0-16-3-23-6zm120 282 24-5 9-2c8 0-1 8-1 10-15 10-42 17-59 19l5-3c9-5 14-13 21-19h1zm-115 5c-2-3-5-6-6-10 1-4 11-1 14-1l15 3 7 2 11 10 9 8 5 5c-19-2-39-9-55-17zm194-252c19 21 32 49 37 77l2 16v1l-7-2-4-4-4-4c-7-7-15-15-23-20l4-9c5-13 6-30 1-42l-6-13zm-244 1-1 3-3 5c-6 14-5 31 0 46 1 3 2 8 5 9-6 3-11 8-16 12l-10 10-6 6h-8l1-8 3-15c6-24 18-50 35-68z"/><path fill="#264653" d="M200 57h35c21 2 43 10 62 20 16 9 29 19 41 32l2 2 6 13c5 12 4 29-1 42l-4 9c8 5 16 13 23 20l4 4 4 4 7 2v31l-2 11c-3 22-13 46-26 64l-8 10c-8 13-35 35-50 40 0-2 9-10 1-10l-9 2-24 5h-1c-7 6-12 14-21 19l-5 3-13 1-14-1h-6l-5-5-9-8-11-10-7-2-15-3c-3 0-13-3-14 1 1 4 4 7 6 10l-9-4a162 162 0 0 1-80-124c-2-5-1-26 0-32h8l6-6 10-10c5-4 10-9 16-12-3-1-4-6-5-9-5-15-6-32 0-46l3-5 1-3c7-11 34-31 45-36 7 3 15 6 23 6h2c1-3 26-14 32-17 3-3 2-4 2-8z"/><path fill="#E9C46A" d="m372 203 7 2v31l-14 10 3-10 3-16 1-17zm-315 0h8c0 8 3 33 7 41l-15-9c-2-5-1-26 0-32zm37 119v-1c6-4 5-14 5-21v-24l31-7 53 40c-4 8-7 17-9 26-2 8-3 15 2 22l-7-2-15-3c-3 0-13-3-14 1 1 4 4 7 6 10l-9-4c-14-8-34-24-43-37zm167 36c7-10 3-22 0-32l-7-17 1-2 11-8 39-29c1-1 1-2 3-1l23 6 6 1 1 1v25c0 6 0 14 5 19-8 13-35 35-50 40 0-2 9-10 1-10l-9 2-24 5zM96 112c7-11 34-31 45-36 7 3 15 6 23 6h2c1 15 9 28 18 41l-18 15-33 31-9 9-1 1c-6-4-18-6-25-4h-1c-3-1-4-6-5-9-5-15-6-32 0-46l3-5 1-3zm139-55c21 2 43 10 62 20 16 9 29 19 41 32l2 2 6 13c5 12 4 29-1 42l-4 9h-1c-7-3-21 0-27 4l-10-11-38-35-12-11c8-9 17-28 17-40l1-1v-1l-6-3-11-5-19-9v-6z"/><path fill="#BD4467" d="m289 80 8-2c-2 2-6 2-8 3v-1z"/><path fill="#676A83" d="m271 81 18-1v1c-6 1-12 2-19 1l1-1z"/><path fill="#2A9D8F" d="M207 125h34c5 0 7 1 11 4 9 7 17 16 25 24l27 25c4 4 5 4 3 9l-10 23c-2 6-3 8-2 15l7 37c-2 5-8 8-12 11l-37 27c-5 4-5 4-12 4h-51l-9-5-45-34c-2-2-2-1-2-4l7-34c1-3 2-7 1-10 0-7-8-20-11-26-2-4-5-7-2-9l41-40c9-9 13-17 27-17h10z"/></svg>