<svg xmlns="http://www.w3.org/2000/svg" width="436" height="436"><path fill="#2A9D8F" d="M140.986 75.962c7.35-5.065 23.606-10.682 32.126-13.131l14.184-3.377c4.053-.876 8.341-1.205 12.33-2.265l.222-.061c-.085 4.01 1.043 5.281-2.328 7.676-5.138 3.65-30.882 13.842-31.882 16.937-.541-.132-1.314.013-1.895 0-7.765-.175-15.835-2.35-22.757-5.779zm119.673 281.691l23.91-5.126c2.894-.529 6.049-1.2 8.994-1.222 8.133-.063-.672 7.257-.137 10.16-15.487 9.295-42.018 16.975-59.47 18.41 1.449-1.223 3.545-2.056 5.195-3.025 8.393-4.933 14.073-12.795 21.311-19.031l.197-.166zm-114.999 5.298c-1.714-3.319-5.077-6.34-5.794-10.126 1.512-3.61 11.516-.937 14.165-.505l15.162 2.702c1.985.445 4.495 1.518 6.485 1.605l.373.008c3.895 3.18 7.35 7.044 11.048 10.47l8.69 8.003c1.598 1.443 3.548 2.719 4.848 4.446-18.393-1.11-38.856-8.195-54.976-16.603zm194.1-251.818c19.18 20.948 32.195 48.966 37.386 76.672 1.013 5.409 2.13 11.029 2.09 16.552l-.018.397c-2.615-.191-5.068-1.354-7.6-2.201-1.652-.39-3.037-2.281-4.112-3.47l-3.62-3.752c-7.302-7.325-14.498-14.944-23.249-20.539l4.237-9.216c5.006-12.496 6.164-29.179 1.241-41.883-1.697-4.378-4.504-8.122-6.279-12.369l-.077-.19zm-243.6.777l-.037.323c-.12.851-.76 1.797-1.154 2.574l-2.48 5.082c-6.51 14.498-5.495 31.475-.481 46.272.823 2.429 1.933 7.636 4.55 8.708-5.623 3.582-10.393 8.005-15.283 12.498l-10.193 9.35c-2.012 1.902-3.791 4.36-5.944 6.056-.334-.037-.232-.046-.51-.02l-7.683.131c.53-2.536.618-5.153.995-7.715l2.909-14.96c5.726-24.048 18.425-50.441 35.31-68.298z"/><path fill="#264653" d="M199.806 57.128c7.924-1.361 27.097-1.082 35.019-.027 20.886 1.422 43.625 9.907 61.81 19.775 15.975 8.67 29.75 18.671 41.825 32.542.444.51 1.057 1.088 1.3 1.715l.076.191c1.775 4.247 4.582 7.99 6.279 12.37 4.923 12.703 3.765 29.386-1.241 41.882l-4.237 9.216c8.751 5.595 15.947 13.214 23.25 20.539l3.62 3.752c1.074 1.189 2.459 3.08 4.11 3.47 2.533.847 4.986 2.01 7.684 2.201.796 3.657.999 28.798-.399 31.17l-1.49 11.034c-3.291 22.193-13.784 45.888-26.422 64.213-2.368 3.433-4.762 7.198-7.817 10.061-8.547 12.664-34.688 34.63-49.747 40.233-.535-2.903 8.27-10.223.137-10.16-2.945.023-6.1.693-8.995 1.222l-23.91 5.126-.196.166c-7.238 6.236-12.918 14.098-21.31 19.03-1.65.97-3.747 1.803-5.195 3.025-4.368.689-8.948.6-13.361.654l-13.521-.224c-2.142-.128-4.35-.218-6.438-.75-1.3-1.727-3.25-3.003-4.847-4.446l-8.69-8.004c-3.7-3.425-7.154-7.29-11.049-10.469l-.373-.008c-1.99-.087-4.5-1.16-6.485-1.605l-15.162-2.702c-2.649-.432-12.653-3.105-14.165.505.717 3.787 4.08 6.807 5.795 10.126-2.85-.607-5.71-2.702-8.228-4.156-14.128-8.16-34.095-23.442-43.795-37.126-16.049-16.508-29.245-48.222-33.827-69.945-1.172-5.557-2.257-10.938-2.62-16.618l-.017-.02c-1.767-5.516-1.211-26.34-.23-32.202l7.683-.13c.28-.027.177-.018.51.019 2.154-1.697 3.933-4.154 5.945-6.055l10.193-9.35c4.89-4.494 9.66-8.917 15.284-12.5-2.618-1.07-3.728-6.278-4.551-8.707-5.014-14.797-6.028-31.774.48-46.272l2.481-5.082c.394-.777 1.034-1.723 1.154-2.574l.036-.322.029-.088c6.897-10.99 33.802-30.857 44.798-35.861 6.922 3.429 14.992 5.604 22.757 5.78.58.012 1.354-.133 1.895 0 1-3.096 26.744-13.287 31.882-16.938 3.371-2.395 2.243-3.665 2.286-7.676z"/><path fill="#E9C46A" d="M371.698 202.553c2.452.847 4.905 2.01 7.603 2.201.796 3.657.999 28.798-.399 31.17-4.032 4.237-9.44 6.391-14.069 9.88 1.404-3.302 2.01-6.811 2.78-10.294l2.914-15.499c.902-5.78 1.594-11.6 1.171-17.458zm-314.753.331l7.682-.13c.28-.027.177-.018.51.019.013 8.48 2.61 33.206 6.42 41.199l-14.366-8.866-.017-.02c-1.767-5.516-1.211-26.34-.23-32.202zM93.638 321.67l.233-.197c5.743-4.907 5.196-14.158 5.203-20.993l.012-14.037c.005-3.436-.059-6.909.25-10.334l30.25-7.191 52.962 39.685c-3.761 8.273-6.774 17.526-8.875 26.324-1.816 7.603-2.84 15.226 2.378 21.708l-.373-.008c-1.99-.087-4.5-1.16-6.485-1.605l-15.162-2.702c-2.649-.432-12.653-3.105-14.165.505.717 3.787 4.08 6.807 5.795 10.126-2.85-.607-5.71-2.702-8.228-4.156-14.128-8.16-34.095-23.442-43.795-37.126zm167.021 35.983c7.457-9.295 3.268-21.614-.014-31.656-1.934-5.92-4-12-7.026-17.46l1.37-1.258c3.37-2.91 7.334-5.296 10.909-7.967l38.88-29.089c1.587-1.253 1.592-1.966 3.539-1.494l22.635 6.015c1.848.45 4.104 1.29 5.978 1.39l.369.014.605.368c.227 2.754.099 5.643.117 8.41l.04 16.595c-.007 6.914-.488 14.515 5.112 19.711-8.547 12.664-34.688 34.63-49.747 40.233-.535-2.903 8.27-10.223.137-10.16-2.945.023-6.1.693-8.995 1.222l-23.91 5.126zM96.16 111.91l.028-.087c6.897-10.99 33.802-30.857 44.798-35.861 6.922 3.429 14.992 5.604 22.757 5.78.58.012 1.354-.133 1.895 0 1.457 15.2 9.8 28.74 18.21 41.07-6.39 4.904-12.406 9.925-18.295 15.442L132.74 169.45c-3 2.823-6.58 5.517-8.877 8.945l-.561.828c-6.28-4.255-17.887-6.08-25.469-4.64l-1.273.286c-2.618-1.072-3.728-6.28-4.551-8.708-5.014-14.797-6.028-31.774.48-46.272l2.481-5.082c.394-.777 1.034-1.723 1.154-2.574l.036-.322zm138.667-54.809c20.884 1.422 43.623 9.907 61.808 19.775 15.975 8.67 29.75 18.671 41.825 32.542.444.51 1.057 1.088 1.3 1.715l.076.191c1.775 4.247 4.582 7.99 6.279 12.37 4.923 12.703 3.765 29.386-1.241 41.882l-4.237 9.216-.292-.1c-6.85-2.193-21.343.807-27.192 3.929l-.257.139c-2.574-3.847-6.334-7.067-9.629-10.289l-37.788-35.549c-4.136-3.794-8.057-7.515-12.74-10.672 8.153-9.646 17.155-28.453 17.626-40.498l.006-.19c.108-.313.288-.59.45-.877l-.083-.517c-1.65-1.283-3.66-2.112-5.535-3.02l-11.061-5.06c-6.47-2.876-12.851-5.874-18.957-9.465-.308-1.834-.32-3.668-.358-5.522z"/><path fill="#BD4467" d="M288.56 79.904c2.321-.637 5.76-2.097 8.159-1.961l.222.23c-1.573 1.6-5.7 2.093-7.92 2.54l-.46-.81z"/><path fill="#676A83" d="M270.82 80.685l.19.424c6.041.087 11.614.023 17.55-1.205l.462.81c-6.36 1.144-12.226 1.98-18.65.848.107-.313.287-.59.448-.877z"/><path fill="#2A9D8F" d="M206.79 124.953l34.634.018c4.56.019 6.937 1.012 10.665 3.851 9.142 6.961 17 15.751 25.205 23.767l26.427 25.644c4.016 4.204 5.604 4.11 3.726 8.908l-10.244 23.093c-2.664 5.836-2.717 8.1-1.722 14.285l6.882 37.952c-2.715 4.14-8.335 7.32-12.28 10.155l-37.092 27.712c-5.226 3.842-5.077 3.773-11.528 3.778l-12.723-.004-24.296-.007c-4.645-.004-9.662.366-14.257-.207-3.4-.423-6.126-3.418-8.788-5.317l-45.483-33.339c-2.312-1.815-2.134-1.173-1.56-4.015l6.797-34.052c.544-3.27 1.602-7.098 1.248-10.412-.696-6.515-8.71-20.104-11.743-26.104-1.791-3.543-4.635-6.252-1.752-9.136l40.678-39.465c9.256-9.215 13.165-17.053 26.944-17.097l10.262-.008z"/></svg>